M48
;Layer_Color=9474304
;FILE_FORMAT=2:5
INCH,LZ
;TYPE=PLATED
T3F00S00C0.02362
T5F00S00C0.02756
%
G90
G05
T03
G00X0023425Y0117717
M15
G01X0026575
M16
G00X0023425Y015
M15
G01X0026575
M16
T05
G00X0174409Y001
M15
G01X0175591
M16
G00X022441Y001
M15
G01X022559
M16
G00X0269409Y001
M15
G01X027059
M16
G00X0206909Y01225
M15
G01X020809
M16
G00X032441Y001
M15
G01X032559
M16
G00X0309409Y02475
M15
G01X0310591
M16
G00X024191Y02475
M15
G01X0243091
M16
G00X0084409Y022
M15
G01X008559
M16
G00X0084409Y0315
M15
G01X008559
M16
G00X0084409Y0375
M15
G01X008559
M16
G00X024191Y0375
M15
G01X0243091
M16
G00X0314409Y0375
M15
G01X0315591
M16
G00X035441Y0375
M15
G01X0355591
M16
G00X040441Y0375
M15
G01X040559
M16
M17
M30
