M48
;Layer_Color=9474304
;FILE_FORMAT=2:5
INCH,LZ
;TYPE=PLATED
T1F00S00C0.01968
T2F00S00C0.02362
T4F00S00C0.02756
T6F00S00C0.03150
T7F00S00C0.03543
T8F00S00C0.04331
T9F00S00C0.05118
T10F00S00C0.07480
%
T01
X01725Y023
X01825Y022
X01925Y023
X0182228Y0252448
X0172228Y0262448
X0192228
T02
X01925Y0165
Y0185
X02125Y0175
T04
X0025Y0125984
Y0133858
Y0141732
X0265Y00525
X0275
X0295
X0305
X0315
T06
X0062992Y0122047
X022441Y0141732
X0228346Y007874
X032Y007
X035Y00275
Y00175
X04125Y00525
X0385827Y0082677
X04625Y011
X04725Y01
Y009
Y008
Y007
Y006
Y005
Y004
X05025
Y005
Y006
Y007
Y008
Y009
Y01
X0543307Y0102362
X05825Y016
Y017
Y018
Y019
Y02
Y021
Y022
Y023
Y024
Y025
X06125
Y024
Y023
Y022
Y021
Y02
Y019
Y018
Y017
Y016
X05025
Y017
Y018
Y019
Y02
Y021
Y022
X04725
Y021
Y02
Y019
Y018
Y017
Y016
X0485Y02
X04875Y02375
Y02725
X04725Y028
Y029
Y03
Y031
X05025
Y03
Y029
Y028
X051Y0265
X0401575Y0283465
X03425Y02225
Y02125
Y02025
Y01925
Y01825
Y01725
Y01625
X03125
Y01725
Y01825
Y01925
Y02025
Y02125
Y02225
X032
Y02375
X03275Y01925
X04625Y016
X03025Y02025
X0232283Y0200787
X0161417Y0208661
X01625Y019
Y016
X0279528Y0255906
X0228346Y0311024
X0155Y02875
X01Y03
X01325Y019
X01425
X01525
Y016
X01425
X01325
X014Y03225
Y03325
Y03425
Y03525
X0129921Y0374016
X017Y03525
Y03425
Y03325
Y03225
X02425
Y03325
Y03425
Y03525
X02725
Y03425
Y03325
Y03225
X0315
Y03325
Y03425
Y03525
X0345
Y03425
Y03325
Y03225
X03525Y03375
X04725Y034
Y033
Y032
X05025
Y033
Y034
X0488189Y0370079
T07
X0085Y0155315
X04325Y0140217
Y0119587
X04475Y0110315
Y0089685
X04325Y0080216
Y0059587
X04475Y0050315
X04325Y0020216
X04475Y0149685
X0520315Y014
X0559685
X0557185Y008
Y005
X0517815
Y008
X052Y017
Y02
X0520315Y023
X0559685
X055937Y02
Y017
X0559685Y027
Y03
X0520315
Y027
X04475Y0269685
Y0290315
X04325Y0299587
Y0260216
Y0239587
X04475Y0230315
Y0209685
X04325Y0200217
Y0179587
X04475Y0170315
X03925Y018313
X0365
Y02225
X03925
X0329685Y02725
Y029
X0290315
Y02725
X029Y0222185
X02625Y02225
Y018313
X029Y0182815
X02175Y0260315
Y0299685
X0085Y0194685
X0085315Y03425
X0124685
X02875Y0357185
Y0317815
X0362815Y03525
X0402185
X04325Y0359587
Y0320216
X04475Y0329685
X0520315Y033
Y036
X0559685
Y033
T08
X007Y0255
Y0265
Y0275
Y0285
T09
X03675Y026
X03775
X03875
X02625Y02825
X02525
X02425
T10
X0041949Y0015
X00825
Y0076024
X0041949
M30
