G04*
G04 #@! TF.GenerationSoftware,Altium Limited,Altium Designer,20.1.12 (249)*
G04*
G04 Layer_Color=65535*
%FSLAX25Y25*%
%MOIN*%
G70*
G04*
G04 #@! TF.SameCoordinates,6C7D9CAF-E978-41D4-BD8A-455F840FEFA2*
G04*
G04*
G04 #@! TF.FilePolarity,Positive*
G04*
G01*
G75*
%ADD10C,0.00984*%
%ADD11C,0.00787*%
%ADD12C,0.01000*%
%ADD13C,0.00591*%
%ADD14C,0.00197*%
D10*
X131693Y292185D02*
G03*
X131693Y292185I-492J0D01*
G01*
D11*
X595000Y255000D02*
G03*
X600000Y255000I2500J0D01*
G01*
X485500Y105630D02*
G03*
X489500Y105630I2000J0D01*
G01*
X485500Y225630D02*
G03*
X489500Y225630I2000J0D01*
G01*
X485500Y345630D02*
G03*
X489500Y345630I2000J0D01*
G01*
X328000Y357500D02*
G03*
X332000Y357500I2000J0D01*
G01*
X127500Y173000D02*
G03*
X127500Y177000I0J2000D01*
G01*
X325500Y228130D02*
G03*
X329500Y228130I2000J0D01*
G01*
X153000Y357500D02*
G03*
X157000Y357500I2000J0D01*
G01*
X255500D02*
G03*
X259500Y357500I2000J0D01*
G01*
X127500Y165000D02*
Y173000D01*
Y177000D02*
Y185000D01*
X167500D01*
X127500Y165000D02*
X167500D01*
Y185000D01*
X135728Y278701D02*
Y291299D01*
X139272Y278701D02*
Y291299D01*
X135728D02*
X139272D01*
X135728Y278701D02*
X139272D01*
X148193Y261050D02*
Y262034D01*
Y247861D02*
Y248845D01*
X131263Y247861D02*
Y248845D01*
Y262034D02*
X148193D01*
X131263Y247861D02*
X148193D01*
X131263Y261050D02*
Y262034D01*
X136185Y247861D02*
Y262034D01*
X131263Y230361D02*
Y231345D01*
Y243550D02*
Y244534D01*
X148193Y243550D02*
Y244534D01*
X131263Y230361D02*
X148193D01*
X131263Y244534D02*
X148193D01*
Y230361D02*
Y231345D01*
X143271Y230361D02*
Y244534D01*
X436437Y28091D02*
Y51713D01*
X428563D02*
X436437D01*
X428563Y28091D02*
Y51713D01*
X432500D02*
Y54469D01*
Y25335D02*
Y28091D01*
X428563D02*
X436437D01*
X451437Y58189D02*
Y81811D01*
X443563D02*
X451437D01*
X443563Y58189D02*
Y81811D01*
X447500D02*
Y84567D01*
Y55433D02*
Y58189D01*
X443563D02*
X451437D01*
X436437Y88090D02*
Y111713D01*
X428563D02*
X436437D01*
X428563Y88090D02*
Y111713D01*
X432500D02*
Y114469D01*
Y85335D02*
Y88090D01*
X428563D02*
X436437D01*
X451437Y118189D02*
Y141811D01*
X443563D02*
X451437D01*
X443563Y118189D02*
Y141811D01*
X447500D02*
Y144567D01*
Y115433D02*
Y118189D01*
X443563D02*
X451437D01*
X436437Y148091D02*
Y171713D01*
X428563D02*
X436437D01*
X428563Y148091D02*
Y171713D01*
X432500D02*
Y174469D01*
Y145335D02*
Y148091D01*
X428563D02*
X436437D01*
X525689Y46063D02*
Y53937D01*
X522933Y50000D02*
X525689D01*
X549311D02*
X552067D01*
X525689Y53937D02*
X549311D01*
Y46063D02*
Y53937D01*
X525689Y46063D02*
X549311D01*
X525689Y76063D02*
Y83937D01*
X522933Y80000D02*
X525689D01*
X549311D02*
X552067D01*
X525689Y83937D02*
X549311D01*
Y76063D02*
Y83937D01*
X525689Y76063D02*
X549311D01*
X528189Y136063D02*
Y143937D01*
X525433Y140000D02*
X528189D01*
X551811D02*
X554567D01*
X528189Y143937D02*
X551811D01*
Y136063D02*
Y143937D01*
X528189Y136063D02*
X551811D01*
X527874Y166063D02*
Y173937D01*
X525118Y170000D02*
X527874D01*
X551496D02*
X554252D01*
X527874Y173937D02*
X551496D01*
Y166063D02*
Y173937D01*
X527874Y166063D02*
X551496D01*
X443563Y178189D02*
X451437D01*
X447500Y175433D02*
Y178189D01*
Y201811D02*
Y204567D01*
X443563Y178189D02*
Y201811D01*
X451437D01*
Y178189D02*
Y201811D01*
X527874Y196063D02*
Y203937D01*
X525118Y200000D02*
X527874D01*
X551496D02*
X554252D01*
X527874Y203937D02*
X551496D01*
Y196063D02*
Y203937D01*
X527874Y196063D02*
X551496D01*
X528189Y226063D02*
Y233937D01*
X525433Y230000D02*
X528189D01*
X551811D02*
X554567D01*
X528189Y233937D02*
X551811D01*
Y226063D02*
Y233937D01*
X528189Y226063D02*
X551811D01*
X528189Y266063D02*
Y273937D01*
X525433Y270000D02*
X528189D01*
X551811D02*
X554567D01*
X528189Y273937D02*
X551811D01*
Y266063D02*
Y273937D01*
X528189Y266063D02*
X551811D01*
X436437Y208090D02*
Y231713D01*
X428563D02*
X436437D01*
X428563Y208090D02*
Y231713D01*
X432500D02*
Y234469D01*
Y205335D02*
Y208090D01*
X428563D02*
X436437D01*
X528189Y296063D02*
Y303937D01*
X525433Y300000D02*
X528189D01*
X551811D02*
X554567D01*
X528189Y303937D02*
X551811D01*
Y296063D02*
Y303937D01*
X528189Y296063D02*
X551811D01*
X528189Y326063D02*
Y333937D01*
X525433Y330000D02*
X528189D01*
X551811D02*
X554567D01*
X528189Y333937D02*
X551811D01*
Y326063D02*
Y333937D01*
X528189Y326063D02*
X551811D01*
X528189Y356063D02*
Y363937D01*
X525433Y360000D02*
X528189D01*
X551811D02*
X554567D01*
X528189Y363937D02*
X551811D01*
Y356063D02*
Y363937D01*
X528189Y356063D02*
X551811D01*
X451437Y238189D02*
Y261811D01*
X443563D02*
X451437D01*
X443563Y238189D02*
Y261811D01*
X447500D02*
Y264567D01*
Y235433D02*
Y238189D01*
X443563D02*
X451437D01*
X436437Y268091D02*
Y291713D01*
X428563D02*
X436437D01*
X428563Y268091D02*
Y291713D01*
X432500D02*
Y294468D01*
Y265335D02*
Y268091D01*
X428563D02*
X436437D01*
X451437Y298189D02*
Y321811D01*
X443563D02*
X451437D01*
X443563Y298189D02*
Y321811D01*
X447500D02*
Y324567D01*
Y295433D02*
Y298189D01*
X443563D02*
X451437D01*
X436437Y328091D02*
Y351713D01*
X428563D02*
X436437D01*
X428563Y328091D02*
Y351713D01*
X432500D02*
Y354468D01*
Y325335D02*
Y328091D01*
X428563D02*
X436437D01*
X283563Y325689D02*
X291437D01*
X287500Y322933D02*
Y325689D01*
Y349311D02*
Y352067D01*
X283563Y325689D02*
Y349311D01*
X291437D01*
Y325689D02*
Y349311D01*
X394311Y348563D02*
Y356437D01*
Y352500D02*
X397067D01*
X367933D02*
X370689D01*
Y348563D02*
X394311D01*
X370689D02*
Y356437D01*
X394311D01*
X361063Y214626D02*
X368937D01*
X365000D02*
Y217382D01*
Y188248D02*
Y191004D01*
X368937D02*
Y214626D01*
X361063Y191004D02*
X368937D01*
X361063D02*
Y214626D01*
X286063Y190689D02*
X293937D01*
X290000Y187933D02*
Y190689D01*
Y214311D02*
Y217067D01*
X286063Y190689D02*
Y214311D01*
X293937D01*
Y190689D02*
Y214311D01*
X88937Y163189D02*
Y186811D01*
X81063D02*
X88937D01*
X81063Y163189D02*
Y186811D01*
X85000D02*
Y189567D01*
Y160433D02*
Y163189D01*
X81063D02*
X88937D01*
X388563Y191004D02*
X396437D01*
X392500Y188248D02*
Y191004D01*
Y214626D02*
Y217382D01*
X388563Y191004D02*
Y214626D01*
X396437D01*
Y191004D02*
Y214626D01*
X258563Y191004D02*
X266437D01*
X262500Y188248D02*
Y191004D01*
Y214626D02*
Y217382D01*
X258563Y191004D02*
Y214626D01*
X266437D01*
Y191004D02*
Y214626D01*
X213563Y291811D02*
X221437D01*
X217500D02*
Y294567D01*
Y265433D02*
Y268189D01*
X221437D02*
Y291811D01*
X213563Y268189D02*
X221437D01*
X213563D02*
Y291811D01*
X298189Y268563D02*
Y276437D01*
X295433Y272500D02*
X298189D01*
X321811D02*
X324567D01*
X298189Y276437D02*
X321811D01*
Y268563D02*
Y276437D01*
X298189Y268563D02*
X321811D01*
X93189Y338563D02*
X116811D01*
Y346437D01*
X93189D02*
X116811D01*
Y342500D02*
X119567D01*
X90433D02*
X93189D01*
Y338563D02*
Y346437D01*
X303307Y293543D02*
X316693D01*
X303307Y286457D02*
X316693D01*
Y293543D01*
X303307Y286457D02*
Y293543D01*
X305276Y286457D02*
Y293543D01*
X295827Y290000D02*
X303307D01*
X316693D02*
X324173D01*
X589331Y155000D02*
Y255000D01*
Y155000D02*
X605669D01*
Y255000D01*
X600000D02*
X605669D01*
X589331D02*
X595000D01*
X477500Y34370D02*
X497500D01*
X477500D02*
Y105630D01*
X497500Y34370D02*
Y105630D01*
X489500D02*
X497500D01*
X477500D02*
X485500D01*
X477500Y154370D02*
X497500D01*
X477500D02*
Y225630D01*
X497500Y154370D02*
Y225630D01*
X489500D02*
X497500D01*
X477500D02*
X485500D01*
X477500Y274370D02*
X497500D01*
X477500D02*
Y345630D01*
X497500Y274370D02*
Y345630D01*
X489500D02*
X497500D01*
X477500D02*
X485500D01*
X320000Y317500D02*
X340000D01*
X320000D02*
Y357500D01*
X340000Y317500D02*
Y357500D01*
X332000D02*
X340000D01*
X320000D02*
X328000D01*
X400177Y150748D02*
Y161772D01*
X396634Y150748D02*
Y161772D01*
Y150748D02*
X400177D01*
X396634Y161772D02*
X400177D01*
X258366Y150748D02*
Y161772D01*
X254823Y150748D02*
Y161772D01*
Y150748D02*
X258366D01*
X254823Y161772D02*
X258366D01*
X325728Y105512D02*
X329272D01*
X325728Y94488D02*
X329272D01*
X325728D02*
Y105512D01*
X329272Y94488D02*
Y105512D01*
X317500Y156870D02*
X337500D01*
X317500D02*
Y228130D01*
X337500Y156870D02*
Y228130D01*
X329500D02*
X337500D01*
X317500D02*
X325500D01*
X145000Y317500D02*
X165000D01*
X145000D02*
Y357500D01*
X165000Y317500D02*
Y357500D01*
X157000D02*
X165000D01*
X145000D02*
X153000D01*
X247500Y317500D02*
X267500D01*
X247500D02*
Y357500D01*
X267500Y317500D02*
Y357500D01*
X259500D02*
X267500D01*
X247500D02*
X255500D01*
X476870Y20276D02*
X483169D01*
X476870Y29724D02*
X483169D01*
X476870Y20276D02*
Y29724D01*
X498131Y20275D02*
Y29724D01*
X491831D02*
X498131D01*
X491831Y20275D02*
X498131D01*
X229725Y54331D02*
Y60631D01*
X220276Y54331D02*
Y60631D01*
X229725D01*
X220276Y39370D02*
X229724D01*
X220276D02*
Y45669D01*
X229724Y39370D02*
Y45669D01*
X132225Y54331D02*
Y60631D01*
X122776Y54331D02*
Y60631D01*
X132225D01*
X122776Y39370D02*
X132224D01*
X122776D02*
Y45669D01*
X132224Y39370D02*
Y45669D01*
X345275Y35570D02*
Y41869D01*
X354724Y35570D02*
Y41869D01*
X345275Y35570D02*
X354724D01*
X345276Y56831D02*
X354724D01*
Y50532D02*
Y56831D01*
X345276Y50532D02*
Y56831D01*
X271869Y74725D02*
X278169D01*
X271869Y65276D02*
X278169D01*
X271869D02*
Y74725D01*
X293130Y65276D02*
Y74724D01*
X286831Y65276D02*
X293130D01*
X286831Y74724D02*
X293130D01*
X476870Y140276D02*
X483169D01*
X476870Y149724D02*
X483169D01*
X476870Y140276D02*
Y149724D01*
X498131Y140275D02*
Y149724D01*
X491831D02*
X498131D01*
X491831Y140275D02*
X498131D01*
X359370Y317776D02*
X365669D01*
X359370Y327224D02*
X365669D01*
X359370Y317776D02*
Y327224D01*
X380631Y317775D02*
Y327224D01*
X374331D02*
X380631D01*
X374331Y317775D02*
X380631D01*
X359370Y332776D02*
X365669D01*
X359370Y342224D02*
X365669D01*
X359370Y332776D02*
Y342224D01*
X380631Y332775D02*
Y342224D01*
X374331D02*
X380631D01*
X374331Y332775D02*
X380631D01*
X476870Y260276D02*
X483169D01*
X476870Y269724D02*
X483169D01*
X476870Y260276D02*
Y269724D01*
X498131Y260275D02*
Y269724D01*
X491831D02*
X498131D01*
X491831Y260275D02*
X498131D01*
X360276Y130532D02*
Y136831D01*
X369724Y130532D02*
Y136831D01*
X360276D02*
X369724D01*
X360275Y115570D02*
X369724D01*
Y121869D01*
X360275Y115570D02*
Y121869D01*
X331831Y152224D02*
X338130D01*
X331831Y142776D02*
X338130D01*
Y152224D01*
X316869Y142776D02*
Y152225D01*
Y142776D02*
X323169D01*
X316869Y152225D02*
X323169D01*
X285276Y130532D02*
Y136831D01*
X294724Y130532D02*
Y136831D01*
X285276D02*
X294724D01*
X285275Y115570D02*
X294724D01*
Y121869D01*
X285275Y115570D02*
Y121869D01*
X175275Y119369D02*
Y125669D01*
X184724Y119369D02*
Y125669D01*
X175275Y119369D02*
X184724D01*
X175276Y140630D02*
X184724D01*
Y134331D02*
Y140630D01*
X175276Y134331D02*
Y140630D01*
X150275Y119369D02*
Y125669D01*
X159724Y119369D02*
Y125669D01*
X150275Y119369D02*
X159724D01*
X150276Y140630D02*
X159724D01*
Y134331D02*
Y140630D01*
X150276Y134331D02*
Y140630D01*
X102775Y164369D02*
Y170669D01*
X112224Y164369D02*
Y170669D01*
X102775Y164369D02*
X112224D01*
X102776Y185630D02*
X112224D01*
Y179331D02*
Y185630D01*
X102776Y179331D02*
Y185630D01*
X111831Y259724D02*
X118130D01*
X111831Y250276D02*
X118130D01*
Y259724D01*
X96869Y250276D02*
Y259725D01*
Y250276D02*
X103169D01*
X96869Y259725D02*
X103169D01*
X202225Y334331D02*
Y340631D01*
X192776Y334331D02*
Y340631D01*
X202225D01*
X192776Y319370D02*
X202224D01*
X192776D02*
Y325669D01*
X202224Y319370D02*
Y325669D01*
X192776Y364331D02*
Y370630D01*
X202224Y364331D02*
Y370630D01*
X192776D02*
X202224D01*
X192775Y349369D02*
X202224D01*
Y355669D01*
X192775Y349369D02*
Y355669D01*
X359370Y285276D02*
X365669D01*
X359370Y294724D02*
X365669D01*
X359370Y285276D02*
Y294724D01*
X380631Y285275D02*
Y294724D01*
X374331D02*
X380631D01*
X374331Y285275D02*
X380631D01*
X224724Y319370D02*
Y325669D01*
X215276Y319370D02*
Y325669D01*
Y319370D02*
X224724D01*
X215276Y340631D02*
X224725D01*
X215276Y334331D02*
Y340631D01*
X224725Y334331D02*
Y340631D01*
X215276Y364331D02*
Y370630D01*
X224724Y364331D02*
Y370630D01*
X215276D02*
X224724D01*
X215275Y349369D02*
X224724D01*
Y355669D01*
X215275Y349369D02*
Y355669D01*
X95003Y274317D02*
Y280616D01*
X104452Y274317D02*
Y280616D01*
X95003Y274317D02*
X104452D01*
X95004Y295577D02*
X104453D01*
Y289278D02*
Y295577D01*
X95004Y289278D02*
Y295577D01*
X144370Y362776D02*
X150669D01*
X144370Y372224D02*
X150669D01*
X144370Y362776D02*
Y372224D01*
X165631Y362775D02*
Y372224D01*
X159331D02*
X165631D01*
X159331Y362775D02*
X165631D01*
D12*
X34055Y116535D02*
Y151181D01*
X197Y116535D02*
Y151181D01*
X30118D02*
X34055D01*
X197D02*
X19488D01*
X197Y116535D02*
X19488D01*
X30118D02*
X34055D01*
X273917Y269508D02*
Y289193D01*
X231398Y269508D02*
X273917D01*
X231398D02*
Y289193D01*
X273917D01*
X356398Y266693D02*
X398917D01*
X356398Y247008D02*
Y266693D01*
Y247008D02*
X398917D01*
Y266693D01*
X75217Y249764D02*
Y290315D01*
X64685Y249764D02*
X75217D01*
X64685D02*
Y290315D01*
X75217D01*
X196342Y248176D02*
Y277113D01*
X168094D02*
X196342D01*
X168094Y248176D02*
X196342D01*
X168094D02*
Y277113D01*
X196614Y215728D02*
Y244665D01*
X168366D02*
X196614D01*
X168366Y215728D02*
X196614D01*
X168366D02*
Y244665D01*
X91890Y141654D02*
X117480D01*
Y116063D02*
Y141654D01*
X91890Y116063D02*
X117480D01*
X91890D02*
Y141654D01*
X18917Y433D02*
Y96507D01*
X61043Y433D02*
Y96507D01*
X18917D02*
X103288D01*
X18917Y433D02*
X103211D01*
X103288Y511D01*
Y96507D01*
X183012Y155354D02*
Y194626D01*
Y155354D02*
X222185D01*
X183012Y194626D02*
X222185D01*
Y155354D02*
Y194626D01*
X255157Y33996D02*
X332716D01*
Y58012D01*
X255157Y33996D02*
Y58012D01*
X332716D01*
X162205Y46201D02*
Y59390D01*
X187598Y46201D02*
Y59587D01*
X162205Y46201D02*
X168701D01*
X181299D02*
X187598D01*
X183661Y59587D02*
X187598D01*
X162205Y59390D02*
X166535D01*
X11071Y109994D02*
X9754Y111301D01*
X7130Y111291D01*
X5824Y109974D01*
X5829Y108662D01*
X7146Y107355D01*
X9770Y107365D01*
X11087Y106059D01*
X11092Y104747D01*
X9785Y103430D01*
X7162Y103419D01*
X5844Y104726D01*
X17657Y103461D02*
X15033Y103451D01*
X13716Y104757D01*
X13705Y107381D01*
X15012Y108698D01*
X17636Y108709D01*
X18953Y107402D01*
X18958Y106090D01*
X13711Y106069D01*
X21592Y103477D02*
X21572Y108724D01*
X25507Y108740D01*
X26824Y107433D01*
X26840Y103497D01*
X29464Y103508D02*
X33400Y103523D01*
X34706Y104841D01*
X33389Y106147D01*
X30765Y106137D01*
X29448Y107443D01*
X30755Y108761D01*
X34691Y108776D01*
X38647Y103544D02*
X41271Y103555D01*
X42578Y104872D01*
X42567Y107496D01*
X41250Y108802D01*
X38626Y108792D01*
X37320Y107475D01*
X37330Y104851D01*
X38647Y103544D01*
X45186Y108818D02*
X45207Y103570D01*
X45196Y106194D01*
X46503Y107511D01*
X47810Y108828D01*
X49122Y108834D01*
X9796Y164940D02*
X8479Y166246D01*
X5855Y166236D01*
X4549Y164919D01*
X4554Y163607D01*
X5871Y162300D01*
X8495Y162311D01*
X9812Y161004D01*
X9817Y159692D01*
X8510Y158375D01*
X5887Y158364D01*
X4569Y159671D01*
X12446Y158390D02*
X15070Y158401D01*
X13758Y158396D01*
X13737Y163643D01*
X12425Y163638D01*
X19006Y158417D02*
X18985Y163664D01*
X20297Y163669D01*
X21614Y162363D01*
X21629Y158427D01*
X21614Y162363D01*
X22920Y163680D01*
X24238Y162373D01*
X24253Y158437D01*
X26856Y163696D02*
X26872Y159760D01*
X28189Y158453D01*
X32125Y158469D01*
X32104Y163716D01*
X34748Y158479D02*
X37372Y158490D01*
X36060Y158484D01*
X36029Y166356D01*
X34717Y166351D01*
X42599Y163758D02*
X45223Y163768D01*
X46540Y162462D01*
X46556Y158526D01*
X42620Y158510D01*
X41303Y159817D01*
X42609Y161134D01*
X46545Y161150D01*
X50465Y165101D02*
X50470Y163789D01*
X49158Y163784D01*
X51782Y163795D01*
X50470Y163789D01*
X50486Y159854D01*
X51803Y158547D01*
X55739Y158563D02*
X58363Y158573D01*
X57051Y158568D01*
X57030Y163815D01*
X55718Y163810D01*
X63610Y158594D02*
X66234Y158604D01*
X67541Y159921D01*
X67530Y162545D01*
X66213Y163852D01*
X63589Y163841D01*
X62283Y162524D01*
X62293Y159900D01*
X63610Y158594D01*
X70170Y158620D02*
X70149Y163867D01*
X74085Y163883D01*
X75402Y162576D01*
X75417Y158641D01*
D13*
X318091Y387398D02*
X325962D01*
X322026D01*
Y375590D01*
X329898D02*
Y387398D01*
X335801D01*
X337769Y385430D01*
Y381494D01*
X335801Y379526D01*
X329898D01*
X347608Y375590D02*
Y387398D01*
X341705Y381494D01*
X349576D01*
X58091Y304898D02*
X65962Y293091D01*
Y304898D02*
X58091Y293091D01*
X69898D02*
X73834D01*
X71866D01*
Y304898D01*
X69898Y302930D01*
X240962Y257558D02*
Y265430D01*
X238994Y267398D01*
X235058D01*
X233090Y265430D01*
Y257558D01*
X235058Y255591D01*
X238994D01*
X237026Y259526D02*
X240962Y255591D01*
X238994D02*
X240962Y257558D01*
X244898Y255591D02*
X248833D01*
X246866D01*
Y267398D01*
X244898Y265430D01*
X304410Y325590D02*
X292602D01*
Y331494D01*
X294570Y333462D01*
X298506D01*
X300474Y331494D01*
Y325590D01*
Y329526D02*
X304410Y333462D01*
Y337398D02*
Y341334D01*
Y339366D01*
X292602D01*
X294570Y337398D01*
X292602Y355109D02*
X294570Y351173D01*
X298506Y347237D01*
X302442D01*
X304410Y349205D01*
Y353141D01*
X302442Y355109D01*
X300474D01*
X298506Y353141D01*
Y347237D01*
X173091Y278091D02*
Y289898D01*
X178994D01*
X180962Y287930D01*
Y283994D01*
X178994Y282026D01*
X173091D01*
X177026D02*
X180962Y278091D01*
X192769Y289898D02*
X188833Y287930D01*
X184898Y283994D01*
Y280058D01*
X186866Y278091D01*
X190801D01*
X192769Y280058D01*
Y282026D01*
X190801Y283994D01*
X184898D01*
X198091Y223091D02*
Y234898D01*
X203994D01*
X205962Y232930D01*
Y228994D01*
X203994Y227026D01*
X198091D01*
X202026D02*
X205962Y223091D01*
X209898Y232930D02*
X211866Y234898D01*
X215801D01*
X217769Y232930D01*
Y230962D01*
X215801Y228994D01*
X213833D01*
X215801D01*
X217769Y227026D01*
Y225058D01*
X215801Y223091D01*
X211866D01*
X209898Y225058D01*
X105962Y152930D02*
X103994Y154898D01*
X100058D01*
X98090Y152930D01*
Y150962D01*
X100058Y148994D01*
X103994D01*
X105962Y147026D01*
Y145058D01*
X103994Y143090D01*
X100058D01*
X98090Y145058D01*
X117769Y143090D02*
X109898D01*
X117769Y150962D01*
Y152930D01*
X115801Y154898D01*
X111866D01*
X109898Y152930D01*
X150591Y292398D02*
Y280591D01*
Y284526D01*
X158462Y292398D01*
X152558Y286494D01*
X158462Y280591D01*
X162398D02*
X166333D01*
X164366D01*
Y292398D01*
X162398Y290430D01*
X130590Y263090D02*
Y274898D01*
X136494D01*
X138462Y272930D01*
Y268994D01*
X136494Y267026D01*
X130590D01*
X134526D02*
X138462Y263090D01*
X150269Y274898D02*
X142398D01*
Y268994D01*
X146334Y270962D01*
X148301D01*
X150269Y268994D01*
Y265058D01*
X148301Y263090D01*
X144366D01*
X142398Y265058D01*
X130590Y215591D02*
Y227398D01*
X136494D01*
X138462Y225430D01*
Y221494D01*
X136494Y219526D01*
X130590D01*
X134526D02*
X138462Y215591D01*
X148301D02*
Y227398D01*
X142398Y221494D01*
X150269D01*
X83091Y109898D02*
X90962Y98090D01*
Y109898D02*
X83091Y98090D01*
X102769D02*
X94898D01*
X102769Y105962D01*
Y107930D01*
X100801Y109898D01*
X96866D01*
X94898Y107930D01*
X275590Y11494D02*
X283462D01*
X287398Y5590D02*
X291334D01*
X289366D01*
Y17398D01*
X287398Y15430D01*
X305109Y17398D02*
X297237D01*
Y11494D01*
X301173Y13462D01*
X303141D01*
X305109Y11494D01*
Y7558D01*
X303141Y5590D01*
X299205D01*
X297237Y7558D01*
X309044Y17398D02*
Y9526D01*
X312980Y5590D01*
X316916Y9526D01*
Y17398D01*
X330591Y11494D02*
X338462D01*
X334526Y15430D02*
Y7558D01*
X342398Y5590D02*
X346334D01*
X344366D01*
Y17398D01*
X342398Y15430D01*
X360109Y17398D02*
X352237D01*
Y11494D01*
X356173Y13462D01*
X358141D01*
X360109Y11494D01*
Y7558D01*
X358141Y5590D01*
X354205D01*
X352237Y7558D01*
X364044Y17398D02*
Y9526D01*
X367980Y5590D01*
X371916Y9526D01*
Y17398D01*
X185591D02*
Y9526D01*
X189526Y5590D01*
X193462Y9526D01*
Y17398D01*
X205269Y13462D02*
X199366D01*
X197398Y11494D01*
Y7558D01*
X199366Y5590D01*
X205269D01*
X217076Y13462D02*
X211173D01*
X209205Y11494D01*
Y7558D01*
X211173Y5590D01*
X217076D01*
X143462Y15430D02*
X141494Y17398D01*
X137558D01*
X135591Y15430D01*
Y7558D01*
X137558Y5590D01*
X141494D01*
X143462Y7558D01*
Y11494D01*
X139526D01*
X147398Y5590D02*
Y17398D01*
X155269Y5590D01*
Y17398D01*
X159205D02*
Y5590D01*
X165109D01*
X167076Y7558D01*
Y15430D01*
X165109Y17398D01*
X159205D01*
X408090Y387398D02*
X415962D01*
X412026D01*
Y375590D01*
X419898D02*
Y387398D01*
X425801D01*
X427769Y385430D01*
Y381494D01*
X425801Y379526D01*
X419898D01*
X431705Y375590D02*
X435641D01*
X433673D01*
Y387398D01*
X431705Y385430D01*
X441544D02*
X443512Y387398D01*
X447448D01*
X449416Y385430D01*
Y377558D01*
X447448Y375590D01*
X443512D01*
X441544Y377558D01*
Y385430D01*
X210591Y134898D02*
X218462D01*
X214526D01*
Y123091D01*
X222398D02*
Y134898D01*
X228301D01*
X230269Y132930D01*
Y128994D01*
X228301Y127026D01*
X222398D01*
X234205Y125058D02*
X236173Y123091D01*
X240108D01*
X242076Y125058D01*
Y132930D01*
X240108Y134898D01*
X236173D01*
X234205Y132930D01*
Y130962D01*
X236173Y128994D01*
X242076D01*
X313090Y244155D02*
X320962D01*
X317026D01*
Y232348D01*
X324898D02*
Y244155D01*
X330801D01*
X332769Y242187D01*
Y238251D01*
X330801Y236283D01*
X324898D01*
X336705Y242187D02*
X338673Y244155D01*
X342608D01*
X344576Y242187D01*
Y240219D01*
X342608Y238251D01*
X344576Y236283D01*
Y234315D01*
X342608Y232348D01*
X338673D01*
X336705Y234315D01*
Y236283D01*
X338673Y238251D01*
X336705Y240219D01*
Y242187D01*
X338673Y238251D02*
X342608D01*
X248091Y244898D02*
X255962D01*
X252026D01*
Y233090D01*
X259898D02*
Y244898D01*
X265801D01*
X267769Y242930D01*
Y238994D01*
X265801Y237026D01*
X259898D01*
X271705Y244898D02*
X279576D01*
Y242930D01*
X271705Y235058D01*
Y233090D01*
X88090Y387398D02*
X95962D01*
X92026D01*
Y375590D01*
X99898D02*
Y387398D01*
X105801D01*
X107769Y385430D01*
Y381494D01*
X105801Y379526D01*
X99898D01*
X119576Y387398D02*
X115641Y385430D01*
X111705Y381494D01*
Y377558D01*
X113673Y375590D01*
X117608D01*
X119576Y377558D01*
Y379526D01*
X117608Y381494D01*
X111705D01*
X88090Y327398D02*
X95962D01*
X92026D01*
Y315591D01*
X99898D02*
Y327398D01*
X105801D01*
X107769Y325430D01*
Y321494D01*
X105801Y319526D01*
X99898D01*
X119576Y327398D02*
X111705D01*
Y321494D01*
X115641Y323462D01*
X117608D01*
X119576Y321494D01*
Y317558D01*
X117608Y315591D01*
X113673D01*
X111705Y317558D01*
X88090Y227398D02*
X95962D01*
X92026D01*
Y215591D01*
X99898D02*
Y227398D01*
X105801D01*
X107769Y225430D01*
Y221494D01*
X105801Y219526D01*
X99898D01*
X111705Y225430D02*
X113673Y227398D01*
X117608D01*
X119576Y225430D01*
Y223462D01*
X117608Y221494D01*
X115641D01*
X117608D01*
X119576Y219526D01*
Y217558D01*
X117608Y215591D01*
X113673D01*
X111705Y217558D01*
X245590Y387398D02*
X253462D01*
X249526D01*
Y375590D01*
X257398D02*
Y387398D01*
X263301D01*
X265269Y385430D01*
Y381494D01*
X263301Y379526D01*
X257398D01*
X277076Y375590D02*
X269205D01*
X277076Y383462D01*
Y385430D01*
X275109Y387398D01*
X271173D01*
X269205Y385430D01*
X358090Y387398D02*
X365962D01*
X362026D01*
Y375590D01*
X369898D02*
Y387398D01*
X375801D01*
X377769Y385430D01*
Y381494D01*
X375801Y379526D01*
X369898D01*
X381705Y375590D02*
X385641D01*
X383673D01*
Y387398D01*
X381705Y385430D01*
X43462Y127930D02*
X41494Y129898D01*
X37558D01*
X35590Y127930D01*
Y125962D01*
X37558Y123994D01*
X41494D01*
X43462Y122026D01*
Y120058D01*
X41494Y118090D01*
X37558D01*
X35590Y120058D01*
X47398Y118090D02*
X51333D01*
X49366D01*
Y129898D01*
X47398Y127930D01*
X426909Y28091D02*
X415102D01*
Y33994D01*
X417070Y35962D01*
X421006D01*
X422974Y33994D01*
Y28091D01*
Y32026D02*
X426909Y35962D01*
X417070Y39898D02*
X415102Y41866D01*
Y45801D01*
X417070Y47769D01*
X419038D01*
X421006Y45801D01*
Y43834D01*
Y45801D01*
X422974Y47769D01*
X424942D01*
X426909Y45801D01*
Y41866D01*
X424942Y39898D01*
X415102Y51705D02*
Y59576D01*
X417070D01*
X424942Y51705D01*
X426909D01*
X464409Y58091D02*
X452602D01*
Y63994D01*
X454570Y65962D01*
X458506D01*
X460474Y63994D01*
Y58091D01*
Y62026D02*
X464409Y65962D01*
X454570Y69898D02*
X452602Y71866D01*
Y75801D01*
X454570Y77769D01*
X456538D01*
X458506Y75801D01*
Y73834D01*
Y75801D01*
X460474Y77769D01*
X462442D01*
X464409Y75801D01*
Y71866D01*
X462442Y69898D01*
X452602Y89576D02*
X454570Y85641D01*
X458506Y81705D01*
X462442D01*
X464409Y83673D01*
Y87608D01*
X462442Y89576D01*
X460474D01*
X458506Y87608D01*
Y81705D01*
X426909Y88090D02*
X415102D01*
Y93994D01*
X417070Y95962D01*
X421006D01*
X422974Y93994D01*
Y88090D01*
Y92026D02*
X426909Y95962D01*
X417070Y99898D02*
X415102Y101866D01*
Y105801D01*
X417070Y107769D01*
X419038D01*
X421006Y105801D01*
Y103833D01*
Y105801D01*
X422974Y107769D01*
X424942D01*
X426909Y105801D01*
Y101866D01*
X424942Y99898D01*
X415102Y119576D02*
Y111705D01*
X421006D01*
X419038Y115641D01*
Y117608D01*
X421006Y119576D01*
X424942D01*
X426909Y117608D01*
Y113673D01*
X424942Y111705D01*
X464409Y118090D02*
X452602D01*
Y123994D01*
X454570Y125962D01*
X458506D01*
X460474Y123994D01*
Y118090D01*
Y122026D02*
X464409Y125962D01*
X454570Y129898D02*
X452602Y131866D01*
Y135801D01*
X454570Y137769D01*
X456538D01*
X458506Y135801D01*
Y133834D01*
Y135801D01*
X460474Y137769D01*
X462442D01*
X464409Y135801D01*
Y131866D01*
X462442Y129898D01*
X464409Y147608D02*
X452602D01*
X458506Y141705D01*
Y149576D01*
X426909Y148091D02*
X415102D01*
Y153994D01*
X417070Y155962D01*
X421006D01*
X422974Y153994D01*
Y148091D01*
Y152026D02*
X426909Y155962D01*
X417070Y159898D02*
X415102Y161866D01*
Y165801D01*
X417070Y167769D01*
X419038D01*
X421006Y165801D01*
Y163833D01*
Y165801D01*
X422974Y167769D01*
X424942D01*
X426909Y165801D01*
Y161866D01*
X424942Y159898D01*
X417070Y171705D02*
X415102Y173673D01*
Y177609D01*
X417070Y179576D01*
X419038D01*
X421006Y177609D01*
Y175641D01*
Y177609D01*
X422974Y179576D01*
X424942D01*
X426909Y177609D01*
Y173673D01*
X424942Y171705D01*
X523091Y33090D02*
Y44898D01*
X528994D01*
X530962Y42930D01*
Y38994D01*
X528994Y37026D01*
X523091D01*
X527026D02*
X530962Y33090D01*
X534898Y42930D02*
X536866Y44898D01*
X540801D01*
X542769Y42930D01*
Y40962D01*
X540801Y38994D01*
X538834D01*
X540801D01*
X542769Y37026D01*
Y35058D01*
X540801Y33090D01*
X536866D01*
X534898Y35058D01*
X554576Y33090D02*
X546705D01*
X554576Y40962D01*
Y42930D01*
X552608Y44898D01*
X548673D01*
X546705Y42930D01*
X523091Y63090D02*
Y74898D01*
X528994D01*
X530962Y72930D01*
Y68994D01*
X528994Y67026D01*
X523091D01*
X527026D02*
X530962Y63090D01*
X534898Y72930D02*
X536866Y74898D01*
X540801D01*
X542769Y72930D01*
Y70962D01*
X540801Y68994D01*
X538834D01*
X540801D01*
X542769Y67026D01*
Y65058D01*
X540801Y63090D01*
X536866D01*
X534898Y65058D01*
X546705Y63090D02*
X550641D01*
X548673D01*
Y74898D01*
X546705Y72930D01*
X525591Y123091D02*
Y134898D01*
X531494D01*
X533462Y132930D01*
Y128994D01*
X531494Y127026D01*
X525591D01*
X529526D02*
X533462Y123091D01*
X537398Y132930D02*
X539366Y134898D01*
X543301D01*
X545269Y132930D01*
Y130962D01*
X543301Y128994D01*
X541333D01*
X543301D01*
X545269Y127026D01*
Y125058D01*
X543301Y123091D01*
X539366D01*
X537398Y125058D01*
X549205Y132930D02*
X551173Y134898D01*
X555108D01*
X557076Y132930D01*
Y125058D01*
X555108Y123091D01*
X551173D01*
X549205Y125058D01*
Y132930D01*
X525591Y153091D02*
Y164898D01*
X531494D01*
X533462Y162930D01*
Y158994D01*
X531494Y157026D01*
X525591D01*
X529526D02*
X533462Y153091D01*
X545269D02*
X537398D01*
X545269Y160962D01*
Y162930D01*
X543301Y164898D01*
X539366D01*
X537398Y162930D01*
X549205Y155058D02*
X551173Y153091D01*
X555108D01*
X557076Y155058D01*
Y162930D01*
X555108Y164898D01*
X551173D01*
X549205Y162930D01*
Y160962D01*
X551173Y158994D01*
X557076D01*
X464409Y178091D02*
X452602D01*
Y183994D01*
X454570Y185962D01*
X458506D01*
X460474Y183994D01*
Y178091D01*
Y182026D02*
X464409Y185962D01*
Y197769D02*
Y189898D01*
X456538Y197769D01*
X454570D01*
X452602Y195801D01*
Y191866D01*
X454570Y189898D01*
Y201705D02*
X452602Y203673D01*
Y207609D01*
X454570Y209576D01*
X456538D01*
X458506Y207609D01*
X460474Y209576D01*
X462442D01*
X464409Y207609D01*
Y203673D01*
X462442Y201705D01*
X460474D01*
X458506Y203673D01*
X456538Y201705D01*
X454570D01*
X458506Y203673D02*
Y207609D01*
X525591Y183090D02*
Y194898D01*
X531494D01*
X533462Y192930D01*
Y188994D01*
X531494Y187026D01*
X525591D01*
X529526D02*
X533462Y183090D01*
X545269D02*
X537398D01*
X545269Y190962D01*
Y192930D01*
X543301Y194898D01*
X539366D01*
X537398Y192930D01*
X549205Y194898D02*
X557076D01*
Y192930D01*
X549205Y185058D01*
Y183090D01*
X525591Y213090D02*
Y224898D01*
X531494D01*
X533462Y222930D01*
Y218994D01*
X531494Y217026D01*
X525591D01*
X529526D02*
X533462Y213090D01*
X545269D02*
X537398D01*
X545269Y220962D01*
Y222930D01*
X543301Y224898D01*
X539366D01*
X537398Y222930D01*
X557076Y224898D02*
X553141Y222930D01*
X549205Y218994D01*
Y215058D01*
X551173Y213090D01*
X555108D01*
X557076Y215058D01*
Y217026D01*
X555108Y218994D01*
X549205D01*
X525591Y253091D02*
Y264898D01*
X531494D01*
X533462Y262930D01*
Y258994D01*
X531494Y257026D01*
X525591D01*
X529526D02*
X533462Y253091D01*
X545269D02*
X537398D01*
X545269Y260962D01*
Y262930D01*
X543301Y264898D01*
X539366D01*
X537398Y262930D01*
X557076Y264898D02*
X549205D01*
Y258994D01*
X553141Y260962D01*
X555108D01*
X557076Y258994D01*
Y255058D01*
X555108Y253091D01*
X551173D01*
X549205Y255058D01*
X426909Y208090D02*
X415102D01*
Y213994D01*
X417070Y215962D01*
X421006D01*
X422974Y213994D01*
Y208090D01*
Y212026D02*
X426909Y215962D01*
Y227769D02*
Y219898D01*
X419038Y227769D01*
X417070D01*
X415102Y225801D01*
Y221866D01*
X417070Y219898D01*
X426909Y237609D02*
X415102D01*
X421006Y231705D01*
Y239576D01*
X525591Y283090D02*
Y294898D01*
X531494D01*
X533462Y292930D01*
Y288994D01*
X531494Y287026D01*
X525591D01*
X529526D02*
X533462Y283090D01*
X545269D02*
X537398D01*
X545269Y290962D01*
Y292930D01*
X543301Y294898D01*
X539366D01*
X537398Y292930D01*
X549205D02*
X551173Y294898D01*
X555108D01*
X557076Y292930D01*
Y290962D01*
X555108Y288994D01*
X553141D01*
X555108D01*
X557076Y287026D01*
Y285058D01*
X555108Y283090D01*
X551173D01*
X549205Y285058D01*
X525591Y313090D02*
Y324898D01*
X531494D01*
X533462Y322930D01*
Y318994D01*
X531494Y317026D01*
X525591D01*
X529526D02*
X533462Y313090D01*
X545269D02*
X537398D01*
X545269Y320962D01*
Y322930D01*
X543301Y324898D01*
X539366D01*
X537398Y322930D01*
X557076Y313090D02*
X549205D01*
X557076Y320962D01*
Y322930D01*
X555108Y324898D01*
X551173D01*
X549205Y322930D01*
X525591Y343091D02*
Y354898D01*
X531494D01*
X533462Y352930D01*
Y348994D01*
X531494Y347026D01*
X525591D01*
X529526D02*
X533462Y343091D01*
X545269D02*
X537398D01*
X545269Y350962D01*
Y352930D01*
X543301Y354898D01*
X539366D01*
X537398Y352930D01*
X549205Y343091D02*
X553141D01*
X551173D01*
Y354898D01*
X549205Y352930D01*
X464409Y238090D02*
X452602D01*
Y243994D01*
X454570Y245962D01*
X458506D01*
X460474Y243994D01*
Y238090D01*
Y242026D02*
X464409Y245962D01*
Y257769D02*
Y249898D01*
X456538Y257769D01*
X454570D01*
X452602Y255801D01*
Y251866D01*
X454570Y249898D01*
Y261705D02*
X452602Y263673D01*
Y267608D01*
X454570Y269576D01*
X462442D01*
X464409Y267608D01*
Y263673D01*
X462442Y261705D01*
X454570D01*
X426909Y268091D02*
X415102D01*
Y273994D01*
X417070Y275962D01*
X421006D01*
X422974Y273994D01*
Y268091D01*
Y272026D02*
X426909Y275962D01*
Y279898D02*
Y283834D01*
Y281866D01*
X415102D01*
X417070Y279898D01*
X424942Y289737D02*
X426909Y291705D01*
Y295641D01*
X424942Y297609D01*
X417070D01*
X415102Y295641D01*
Y291705D01*
X417070Y289737D01*
X419038D01*
X421006Y291705D01*
Y297609D01*
X464409Y298091D02*
X452602D01*
Y303994D01*
X454570Y305962D01*
X458506D01*
X460474Y303994D01*
Y298091D01*
Y302026D02*
X464409Y305962D01*
Y309898D02*
Y313833D01*
Y311866D01*
X452602D01*
X454570Y309898D01*
Y319737D02*
X452602Y321705D01*
Y325641D01*
X454570Y327609D01*
X456538D01*
X458506Y325641D01*
X460474Y327609D01*
X462442D01*
X464409Y325641D01*
Y321705D01*
X462442Y319737D01*
X460474D01*
X458506Y321705D01*
X456538Y319737D01*
X454570D01*
X458506Y321705D02*
Y325641D01*
X449409Y338090D02*
X437602D01*
Y343994D01*
X439570Y345962D01*
X443506D01*
X445474Y343994D01*
Y338090D01*
Y342026D02*
X449409Y345962D01*
Y349898D02*
Y353834D01*
Y351866D01*
X437602D01*
X439570Y349898D01*
X437602Y359737D02*
Y367609D01*
X439570D01*
X447442Y359737D01*
X449409D01*
X368091Y358090D02*
Y369898D01*
X373994D01*
X375962Y367930D01*
Y363994D01*
X373994Y362026D01*
X368091D01*
X372026D02*
X375962Y358090D01*
X379898D02*
X383834D01*
X381866D01*
Y369898D01*
X379898Y367930D01*
X397609Y369898D02*
X389737D01*
Y363994D01*
X393673Y365962D01*
X395641D01*
X397609Y363994D01*
Y360058D01*
X395641Y358090D01*
X391705D01*
X389737Y360058D01*
X359409Y190591D02*
X347602D01*
Y196494D01*
X349570Y198462D01*
X353506D01*
X355474Y196494D01*
Y190591D01*
Y194526D02*
X359409Y198462D01*
Y202398D02*
Y206333D01*
Y204366D01*
X347602D01*
X349570Y202398D01*
X359409Y218141D02*
X347602D01*
X353506Y212237D01*
Y220109D01*
X284409Y190591D02*
X272602D01*
Y196494D01*
X274570Y198462D01*
X278506D01*
X280474Y196494D01*
Y190591D01*
Y194526D02*
X284409Y198462D01*
Y202398D02*
Y206333D01*
Y204366D01*
X272602D01*
X274570Y202398D01*
Y212237D02*
X272602Y214205D01*
Y218141D01*
X274570Y220109D01*
X276538D01*
X278506Y218141D01*
Y216173D01*
Y218141D01*
X280474Y220109D01*
X282442D01*
X284409Y218141D01*
Y214205D01*
X282442Y212237D01*
X183090Y195590D02*
Y207398D01*
X188994D01*
X190962Y205430D01*
Y201494D01*
X188994Y199526D01*
X183090D01*
X187026D02*
X190962Y195590D01*
X194898D02*
X198834D01*
X196866D01*
Y207398D01*
X194898Y205430D01*
X212609Y195590D02*
X204737D01*
X212609Y203462D01*
Y205430D01*
X210641Y207398D01*
X206705D01*
X204737Y205430D01*
X79409Y170590D02*
X67602D01*
Y176494D01*
X69570Y178462D01*
X73506D01*
X75474Y176494D01*
Y170590D01*
Y174526D02*
X79409Y178462D01*
Y182398D02*
Y186334D01*
Y184366D01*
X67602D01*
X69570Y182398D01*
X79409Y192237D02*
Y196173D01*
Y194205D01*
X67602D01*
X69570Y192237D01*
X386910Y190591D02*
X375102D01*
Y196494D01*
X377070Y198462D01*
X381006D01*
X382974Y196494D01*
Y190591D01*
Y194526D02*
X386910Y198462D01*
Y202398D02*
Y206333D01*
Y204366D01*
X375102D01*
X377070Y202398D01*
Y212237D02*
X375102Y214205D01*
Y218141D01*
X377070Y220109D01*
X384942D01*
X386910Y218141D01*
Y214205D01*
X384942Y212237D01*
X377070D01*
X256909Y190591D02*
X245102D01*
Y196494D01*
X247070Y198462D01*
X251006D01*
X252974Y196494D01*
Y190591D01*
Y194526D02*
X256909Y198462D01*
X254942Y202398D02*
X256909Y204366D01*
Y208301D01*
X254942Y210269D01*
X247070D01*
X245102Y208301D01*
Y204366D01*
X247070Y202398D01*
X249038D01*
X251006Y204366D01*
Y210269D01*
X211910Y268091D02*
X200102D01*
Y273994D01*
X202070Y275962D01*
X206006D01*
X207974Y273994D01*
Y268091D01*
Y272026D02*
X211910Y275962D01*
X202070Y279898D02*
X200102Y281866D01*
Y285801D01*
X202070Y287769D01*
X204038D01*
X206006Y285801D01*
X207974Y287769D01*
X209942D01*
X211910Y285801D01*
Y281866D01*
X209942Y279898D01*
X207974D01*
X206006Y281866D01*
X204038Y279898D01*
X202070D01*
X206006Y281866D02*
Y285801D01*
X295590Y255591D02*
Y267398D01*
X301494D01*
X303462Y265430D01*
Y261494D01*
X301494Y259526D01*
X295590D01*
X299526D02*
X303462Y255591D01*
X307398Y267398D02*
X315269D01*
Y265430D01*
X307398Y257558D01*
Y255591D01*
X93090Y348091D02*
Y359898D01*
X98994D01*
X100962Y357930D01*
Y353994D01*
X98994Y352026D01*
X93090D01*
X97026D02*
X100962Y348091D01*
X112769D02*
X104898D01*
X112769Y355962D01*
Y357930D01*
X110801Y359898D01*
X106866D01*
X104898Y357930D01*
X298091Y295590D02*
Y307398D01*
X303994D01*
X305962Y305430D01*
Y301494D01*
X303994Y299526D01*
X298091D01*
X302026D02*
X305962Y295590D01*
X309898D02*
X313833D01*
X311866D01*
Y307398D01*
X309898Y305430D01*
X363462Y270058D02*
Y277930D01*
X361494Y279898D01*
X357558D01*
X355591Y277930D01*
Y270058D01*
X357558Y268091D01*
X361494D01*
X359526Y272026D02*
X363462Y268091D01*
X361494D02*
X363462Y270058D01*
X375269Y268091D02*
X367398D01*
X375269Y275962D01*
Y277930D01*
X373301Y279898D01*
X369366D01*
X367398Y277930D01*
X590590Y258090D02*
Y269898D01*
X596494D01*
X598462Y267930D01*
Y263994D01*
X596494Y262026D01*
X590590D01*
X602398Y258090D02*
X606333D01*
X604366D01*
Y269898D01*
X602398Y267930D01*
X473091Y119898D02*
Y108090D01*
Y112026D01*
X480962Y119898D01*
X475058Y113994D01*
X480962Y108090D01*
X484898D02*
X488834D01*
X486866D01*
Y119898D01*
X484898Y117930D01*
X500641Y108090D02*
Y119898D01*
X494737Y113994D01*
X502609D01*
X473091Y239898D02*
Y228091D01*
Y232026D01*
X480962Y239898D01*
X475058Y233994D01*
X480962Y228091D01*
X484898D02*
X488834D01*
X486866D01*
Y239898D01*
X484898Y237930D01*
X494737D02*
X496705Y239898D01*
X500641D01*
X502609Y237930D01*
Y235962D01*
X500641Y233994D01*
X498673D01*
X500641D01*
X502609Y232026D01*
Y230058D01*
X500641Y228091D01*
X496705D01*
X494737Y230058D01*
X255591Y32398D02*
Y20591D01*
Y24526D01*
X263462Y32398D01*
X257558Y26494D01*
X263462Y20591D01*
X267398D02*
X271334D01*
X269366D01*
Y32398D01*
X267398Y30430D01*
X285109Y20591D02*
X277237D01*
X285109Y28462D01*
Y30430D01*
X283141Y32398D01*
X279205D01*
X277237Y30430D01*
X163091Y84898D02*
Y73090D01*
Y77026D01*
X170962Y84898D01*
X165058Y78994D01*
X170962Y73090D01*
X174898D02*
X178833D01*
X176866D01*
Y84898D01*
X174898Y82930D01*
X184737Y73090D02*
X188673D01*
X186705D01*
Y84898D01*
X184737Y82930D01*
X473091Y359898D02*
Y348091D01*
Y352026D01*
X480962Y359898D01*
X475058Y353994D01*
X480962Y348091D01*
X484898D02*
X488834D01*
X486866D01*
Y359898D01*
X484898Y357930D01*
X494737D02*
X496705Y359898D01*
X500641D01*
X502609Y357930D01*
Y350058D01*
X500641Y348091D01*
X496705D01*
X494737Y350058D01*
Y357930D01*
X320590Y314898D02*
Y303091D01*
Y307026D01*
X328462Y314898D01*
X322558Y308994D01*
X328462Y303091D01*
X332398Y305058D02*
X334366Y303091D01*
X338301D01*
X340269Y305058D01*
Y312930D01*
X338301Y314898D01*
X334366D01*
X332398Y312930D01*
Y310962D01*
X334366Y308994D01*
X340269D01*
X388090Y147398D02*
Y135591D01*
Y139526D01*
X395962Y147398D01*
X390058Y141494D01*
X395962Y135591D01*
X399898Y145430D02*
X401866Y147398D01*
X405801D01*
X407769Y145430D01*
Y143462D01*
X405801Y141494D01*
X407769Y139526D01*
Y137558D01*
X405801Y135591D01*
X401866D01*
X399898Y137558D01*
Y139526D01*
X401866Y141494D01*
X399898Y143462D01*
Y145430D01*
X401866Y141494D02*
X405801D01*
X248091Y174898D02*
Y163091D01*
Y167026D01*
X255962Y174898D01*
X250058Y168994D01*
X255962Y163091D01*
X259898Y174898D02*
X267769D01*
Y172930D01*
X259898Y165058D01*
Y163091D01*
X318091Y92398D02*
Y80590D01*
Y84526D01*
X325962Y92398D01*
X320058Y86494D01*
X325962Y80590D01*
X337769Y92398D02*
X333834Y90430D01*
X329898Y86494D01*
Y82558D01*
X331866Y80590D01*
X335801D01*
X337769Y82558D01*
Y84526D01*
X335801Y86494D01*
X329898D01*
X130590Y207398D02*
Y195590D01*
Y199526D01*
X138462Y207398D01*
X132558Y201494D01*
X138462Y195590D01*
X150269Y207398D02*
X142398D01*
Y201494D01*
X146334Y203462D01*
X148301D01*
X150269Y201494D01*
Y197558D01*
X148301Y195590D01*
X144366D01*
X142398Y197558D01*
X318091Y226655D02*
Y214848D01*
Y218783D01*
X325962Y226655D01*
X320058Y220751D01*
X325962Y214848D01*
X335801D02*
Y226655D01*
X329898Y220751D01*
X337769D01*
X145590Y314898D02*
Y303091D01*
Y307026D01*
X153462Y314898D01*
X147558Y308994D01*
X153462Y303091D01*
X157398Y312930D02*
X159366Y314898D01*
X163301D01*
X165269Y312930D01*
Y310962D01*
X163301Y308994D01*
X161334D01*
X163301D01*
X165269Y307026D01*
Y305058D01*
X163301Y303091D01*
X159366D01*
X157398Y305058D01*
X248091Y314898D02*
Y303091D01*
Y307026D01*
X255962Y314898D01*
X250058Y308994D01*
X255962Y303091D01*
X267769D02*
X259898D01*
X267769Y310962D01*
Y312930D01*
X265801Y314898D01*
X261866D01*
X259898Y312930D01*
X480962Y15430D02*
X478994Y17398D01*
X475058D01*
X473091Y15430D01*
Y7558D01*
X475058Y5590D01*
X478994D01*
X480962Y7558D01*
X492769Y5590D02*
X484898D01*
X492769Y13462D01*
Y15430D01*
X490801Y17398D01*
X486866D01*
X484898Y15430D01*
X496705D02*
X498673Y17398D01*
X502608D01*
X504576Y15430D01*
Y13462D01*
X502608Y11494D01*
X500641D01*
X502608D01*
X504576Y9526D01*
Y7558D01*
X502608Y5590D01*
X498673D01*
X496705Y7558D01*
X218462Y72930D02*
X216494Y74898D01*
X212558D01*
X210591Y72930D01*
Y65058D01*
X212558Y63090D01*
X216494D01*
X218462Y65058D01*
X230269Y63090D02*
X222398D01*
X230269Y70962D01*
Y72930D01*
X228301Y74898D01*
X224366D01*
X222398Y72930D01*
X242076Y63090D02*
X234205D01*
X242076Y70962D01*
Y72930D01*
X240108Y74898D01*
X236173D01*
X234205Y72930D01*
X120962D02*
X118994Y74898D01*
X115058D01*
X113091Y72930D01*
Y65058D01*
X115058Y63090D01*
X118994D01*
X120962Y65058D01*
X132769Y63090D02*
X124898D01*
X132769Y70962D01*
Y72930D01*
X130801Y74898D01*
X126866D01*
X124898Y72930D01*
X136705Y63090D02*
X140641D01*
X138673D01*
Y74898D01*
X136705Y72930D01*
X343462Y70430D02*
X341494Y72398D01*
X337558D01*
X335591Y70430D01*
Y62558D01*
X337558Y60590D01*
X341494D01*
X343462Y62558D01*
X355269Y60590D02*
X347398D01*
X355269Y68462D01*
Y70430D01*
X353301Y72398D01*
X349366D01*
X347398Y70430D01*
X359205D02*
X361173Y72398D01*
X365108D01*
X367076Y70430D01*
Y62558D01*
X365108Y60590D01*
X361173D01*
X359205Y62558D01*
Y70430D01*
X273462Y87930D02*
X271494Y89898D01*
X267558D01*
X265591Y87930D01*
Y80058D01*
X267558Y78091D01*
X271494D01*
X273462Y80058D01*
X277398Y78091D02*
X281333D01*
X279366D01*
Y89898D01*
X277398Y87930D01*
X287237Y80058D02*
X289205Y78091D01*
X293141D01*
X295109Y80058D01*
Y87930D01*
X293141Y89898D01*
X289205D01*
X287237Y87930D01*
Y85962D01*
X289205Y83994D01*
X295109D01*
X480962Y135430D02*
X478994Y137398D01*
X475058D01*
X473091Y135430D01*
Y127558D01*
X475058Y125591D01*
X478994D01*
X480962Y127558D01*
X484898Y125591D02*
X488834D01*
X486866D01*
Y137398D01*
X484898Y135430D01*
X494737D02*
X496705Y137398D01*
X500641D01*
X502609Y135430D01*
Y133462D01*
X500641Y131494D01*
X502609Y129526D01*
Y127558D01*
X500641Y125591D01*
X496705D01*
X494737Y127558D01*
Y129526D01*
X496705Y131494D01*
X494737Y133462D01*
Y135430D01*
X496705Y131494D02*
X500641D01*
X390962Y325430D02*
X388994Y327398D01*
X385058D01*
X383090Y325430D01*
Y317558D01*
X385058Y315591D01*
X388994D01*
X390962Y317558D01*
X394898Y315591D02*
X398833D01*
X396866D01*
Y327398D01*
X394898Y325430D01*
X404737Y327398D02*
X412609D01*
Y325430D01*
X404737Y317558D01*
Y315591D01*
X390962Y342930D02*
X388994Y344898D01*
X385058D01*
X383090Y342930D01*
Y335058D01*
X385058Y333090D01*
X388994D01*
X390962Y335058D01*
X394898Y333090D02*
X398833D01*
X396866D01*
Y344898D01*
X394898Y342930D01*
X412609Y344898D02*
X408673Y342930D01*
X404737Y338994D01*
Y335058D01*
X406705Y333090D01*
X410641D01*
X412609Y335058D01*
Y337026D01*
X410641Y338994D01*
X404737D01*
X480962Y255430D02*
X478994Y257398D01*
X475058D01*
X473091Y255430D01*
Y247558D01*
X475058Y245590D01*
X478994D01*
X480962Y247558D01*
X484898Y245590D02*
X488834D01*
X486866D01*
Y257398D01*
X484898Y255430D01*
X502609Y257398D02*
X494737D01*
Y251494D01*
X498673Y253462D01*
X500641D01*
X502609Y251494D01*
Y247558D01*
X500641Y245590D01*
X496705D01*
X494737Y247558D01*
X368462Y110430D02*
X366494Y112398D01*
X362558D01*
X360591Y110430D01*
Y102558D01*
X362558Y100591D01*
X366494D01*
X368462Y102558D01*
X372398Y100591D02*
X376333D01*
X374366D01*
Y112398D01*
X372398Y110430D01*
X388141Y100591D02*
Y112398D01*
X382237Y106494D01*
X390109D01*
X320962Y137930D02*
X318994Y139898D01*
X315058D01*
X313090Y137930D01*
Y130058D01*
X315058Y128091D01*
X318994D01*
X320962Y130058D01*
X324898Y128091D02*
X328834D01*
X326866D01*
Y139898D01*
X324898Y137930D01*
X334737D02*
X336705Y139898D01*
X340641D01*
X342609Y137930D01*
Y135962D01*
X340641Y133994D01*
X338673D01*
X340641D01*
X342609Y132026D01*
Y130058D01*
X340641Y128091D01*
X336705D01*
X334737Y130058D01*
X273462Y110430D02*
X271494Y112398D01*
X267558D01*
X265591Y110430D01*
Y102558D01*
X267558Y100591D01*
X271494D01*
X273462Y102558D01*
X277398Y100591D02*
X281333D01*
X279366D01*
Y112398D01*
X277398Y110430D01*
X295109Y100591D02*
X287237D01*
X295109Y108462D01*
Y110430D01*
X293141Y112398D01*
X289205D01*
X287237Y110430D01*
X183462Y115430D02*
X181494Y117398D01*
X177558D01*
X175591Y115430D01*
Y107558D01*
X177558Y105590D01*
X181494D01*
X183462Y107558D01*
X187398Y105590D02*
X191333D01*
X189366D01*
Y117398D01*
X187398Y115430D01*
X197237Y105590D02*
X201173D01*
X199205D01*
Y117398D01*
X197237Y115430D01*
X140962D02*
X138994Y117398D01*
X135058D01*
X133090Y115430D01*
Y107558D01*
X135058Y105590D01*
X138994D01*
X140962Y107558D01*
X144898Y105590D02*
X148834D01*
X146866D01*
Y117398D01*
X144898Y115430D01*
X154737D02*
X156705Y117398D01*
X160641D01*
X162609Y115430D01*
Y107558D01*
X160641Y105590D01*
X156705D01*
X154737Y107558D01*
Y115430D01*
X102070Y195962D02*
X100102Y193994D01*
Y190058D01*
X102070Y188091D01*
X109942D01*
X111909Y190058D01*
Y193994D01*
X109942Y195962D01*
Y199898D02*
X111909Y201866D01*
Y205801D01*
X109942Y207769D01*
X102070D01*
X100102Y205801D01*
Y201866D01*
X102070Y199898D01*
X104038D01*
X106006Y201866D01*
Y207769D01*
X103462Y245430D02*
X101494Y247398D01*
X97558D01*
X95591Y245430D01*
Y237558D01*
X97558Y235591D01*
X101494D01*
X103462Y237558D01*
X107398Y245430D02*
X109366Y247398D01*
X113301D01*
X115269Y245430D01*
Y243462D01*
X113301Y241494D01*
X115269Y239526D01*
Y237558D01*
X113301Y235591D01*
X109366D01*
X107398Y237558D01*
Y239526D01*
X109366Y241494D01*
X107398Y243462D01*
Y245430D01*
X109366Y241494D02*
X113301D01*
X190962Y315430D02*
X188994Y317398D01*
X185058D01*
X183090Y315430D01*
Y307558D01*
X185058Y305591D01*
X188994D01*
X190962Y307558D01*
X194898Y317398D02*
X202769D01*
Y315430D01*
X194898Y307558D01*
Y305591D01*
X190962Y385430D02*
X188994Y387398D01*
X185058D01*
X183090Y385430D01*
Y377558D01*
X185058Y375590D01*
X188994D01*
X190962Y377558D01*
X202769Y387398D02*
X198834Y385430D01*
X194898Y381494D01*
Y377558D01*
X196866Y375590D01*
X200801D01*
X202769Y377558D01*
Y379526D01*
X200801Y381494D01*
X194898D01*
X368462Y305430D02*
X366494Y307398D01*
X362558D01*
X360591Y305430D01*
Y297558D01*
X362558Y295590D01*
X366494D01*
X368462Y297558D01*
X380269Y307398D02*
X372398D01*
Y301494D01*
X376333Y303462D01*
X378301D01*
X380269Y301494D01*
Y297558D01*
X378301Y295590D01*
X374366D01*
X372398Y297558D01*
X223462Y315430D02*
X221494Y317398D01*
X217558D01*
X215591Y315430D01*
Y307558D01*
X217558Y305591D01*
X221494D01*
X223462Y307558D01*
X233301Y305591D02*
Y317398D01*
X227398Y311494D01*
X235269D01*
X223462Y385430D02*
X221494Y387398D01*
X217558D01*
X215591Y385430D01*
Y377558D01*
X217558Y375590D01*
X221494D01*
X223462Y377558D01*
X227398Y385430D02*
X229366Y387398D01*
X233301D01*
X235269Y385430D01*
Y383462D01*
X233301Y381494D01*
X231333D01*
X233301D01*
X235269Y379526D01*
Y377558D01*
X233301Y375590D01*
X229366D01*
X227398Y377558D01*
X103462Y307930D02*
X101494Y309898D01*
X97558D01*
X95591Y307930D01*
Y300058D01*
X97558Y298091D01*
X101494D01*
X103462Y300058D01*
X115269Y298091D02*
X107398D01*
X115269Y305962D01*
Y307930D01*
X113301Y309898D01*
X109366D01*
X107398Y307930D01*
X153462Y385430D02*
X151494Y387398D01*
X147558D01*
X145590Y385430D01*
Y377558D01*
X147558Y375590D01*
X151494D01*
X153462Y377558D01*
X157398Y375590D02*
X161334D01*
X159366D01*
Y387398D01*
X157398Y385430D01*
D14*
X610236Y0D02*
G03*
X629921Y19685I0J19685D01*
G01*
Y374016D02*
G03*
X610236Y393701I-19685J0D01*
G01*
X19685D02*
G03*
X0Y374016I0J-19685D01*
G01*
Y19685D02*
G03*
X19685Y0I19685J0D01*
G01*
Y393701D02*
X610236D01*
X629921Y19685D02*
Y374016D01*
X0Y19685D02*
Y374016D01*
X19685Y0D02*
X610236D01*
M02*
