G04*
G04 #@! TF.GenerationSoftware,Altium Limited,Altium Designer,20.1.12 (249)*
G04*
G04 Layer_Physical_Order=1*
G04 Layer_Color=255*
%FSLAX25Y25*%
%MOIN*%
G70*
G04*
G04 #@! TF.SameCoordinates,6C7D9CAF-E978-41D4-BD8A-455F840FEFA2*
G04*
G04*
G04 #@! TF.FilePolarity,Positive*
G04*
G01*
G75*
%ADD12C,0.01000*%
%ADD14C,0.00197*%
%ADD41R,0.08268X0.05512*%
%ADD42O,0.05906X0.02559*%
%ADD43R,0.09055X0.09055*%
%ADD44R,0.03740X0.06890*%
%ADD45R,0.14173X0.09843*%
%ADD46R,0.03740X0.09843*%
%ADD47R,0.05906X0.02165*%
%ADD48R,0.05906X0.02165*%
%ADD49R,0.06299X0.06890*%
%ADD50R,0.06890X0.06299*%
%ADD51C,0.02000*%
%ADD52C,0.05000*%
%ADD53R,0.13780X0.09843*%
%ADD54R,0.09843X0.42913*%
%ADD55R,0.13780X0.09744*%
G04:AMPARAMS|DCode=56|XSize=78.74mil|YSize=66.93mil|CornerRadius=0mil|HoleSize=0mil|Usage=FLASHONLY|Rotation=0.000|XOffset=0mil|YOffset=0mil|HoleType=Round|Shape=Octagon|*
%AMOCTAGOND56*
4,1,8,0.03937,-0.01673,0.03937,0.01673,0.02264,0.03347,-0.02264,0.03347,-0.03937,0.01673,-0.03937,-0.01673,-0.02264,-0.03347,0.02264,-0.03347,0.03937,-0.01673,0.0*
%
%ADD56OCTAGOND56*%

%ADD57C,0.06299*%
%ADD58O,0.07480X0.05906*%
%ADD59C,0.05906*%
%ADD60R,0.07087X0.09843*%
%ADD61O,0.07087X0.09843*%
%ADD62O,0.08268X0.05906*%
%ADD63C,0.11417*%
%ADD64C,0.07480*%
%ADD65R,0.07480X0.07480*%
%ADD66C,0.07087*%
%ADD67R,0.07087X0.07087*%
%ADD68O,0.06299X0.05315*%
%ADD69C,0.05118*%
G36*
X612574Y388777D02*
X614855Y388230D01*
X617021Y387333D01*
X619021Y386107D01*
X620804Y384584D01*
X622328Y382801D01*
X623553Y380801D01*
X624450Y378634D01*
X624998Y376354D01*
X625179Y374058D01*
X625170Y374016D01*
Y19685D01*
X625179Y19643D01*
X624998Y17347D01*
X624450Y15067D01*
X623553Y12900D01*
X622328Y10900D01*
X620804Y9117D01*
X619021Y7594D01*
X617021Y6368D01*
X614855Y5471D01*
X612574Y4923D01*
X610278Y4743D01*
X610236Y4751D01*
X23622Y4751D01*
X23622Y4751D01*
Y4751D01*
X23133Y4777D01*
X21158Y4907D01*
X18736Y5388D01*
X16398Y6182D01*
X14184Y7274D01*
X12130Y8646D01*
X10274Y10274D01*
X8646Y12130D01*
X7274Y14184D01*
X6182Y16398D01*
X5388Y18736D01*
X4907Y21158D01*
X4747Y23599D01*
X4751Y23622D01*
Y374016D01*
X4743Y374058D01*
X4923Y376354D01*
X5471Y378634D01*
X6368Y380801D01*
X7594Y382801D01*
X9117Y384584D01*
X10900Y386107D01*
X12900Y387333D01*
X15067Y388230D01*
X17347Y388777D01*
X19643Y388958D01*
X19685Y388950D01*
X610236D01*
X610278Y388958D01*
X612574Y388777D01*
D02*
G37*
%LPC*%
G36*
X130421Y377540D02*
Y374516D01*
X133445D01*
X133389Y374945D01*
X133030Y375811D01*
X132460Y376554D01*
X131716Y377125D01*
X130850Y377483D01*
X130421Y377540D01*
D02*
G37*
G36*
X129421D02*
X128992Y377483D01*
X128126Y377125D01*
X127383Y376554D01*
X126812Y375811D01*
X126454Y374945D01*
X126397Y374516D01*
X129421D01*
Y377540D01*
D02*
G37*
G36*
X407614Y379047D02*
X402386D01*
X400363Y377023D01*
Y372977D01*
X402386Y370953D01*
X407614D01*
X409637Y372977D01*
Y377023D01*
X407614Y379047D01*
D02*
G37*
G36*
X317614D02*
X312386D01*
X310363Y377023D01*
Y376223D01*
X282500D01*
X282032Y376130D01*
X281635Y375865D01*
X279135Y373365D01*
X278870Y372968D01*
X278777Y372500D01*
Y343724D01*
X276160D01*
X275863Y344441D01*
X275246Y345246D01*
X274441Y345863D01*
X273505Y346251D01*
X272500Y346383D01*
X271495Y346251D01*
X270559Y345863D01*
X269754Y345246D01*
X269137Y344441D01*
X268749Y343505D01*
X268617Y342500D01*
X268749Y341495D01*
X269137Y340559D01*
X269754Y339754D01*
X270559Y339137D01*
X271495Y338750D01*
X272500Y338617D01*
X273505Y338750D01*
X274441Y339137D01*
X275246Y339754D01*
X275863Y340559D01*
X276160Y341277D01*
X284493D01*
X286277Y339493D01*
Y333723D01*
X276160D01*
X275863Y334441D01*
X275246Y335246D01*
X274441Y335863D01*
X273505Y336250D01*
X272500Y336383D01*
X271495Y336250D01*
X270559Y335863D01*
X269754Y335246D01*
X269137Y334441D01*
X268749Y333505D01*
X268617Y332500D01*
X268749Y331495D01*
X269137Y330559D01*
X269754Y329754D01*
X270559Y329137D01*
X271495Y328749D01*
X272500Y328617D01*
X273505Y328749D01*
X274441Y329137D01*
X275246Y329754D01*
X275863Y330559D01*
X276160Y331276D01*
X286277D01*
Y322114D01*
X285261Y321693D01*
X284333Y320982D01*
X283622Y320054D01*
X283174Y318974D01*
X283021Y317815D01*
X283174Y316656D01*
X283622Y315576D01*
X284333Y314648D01*
X285261Y313936D01*
X286341Y313489D01*
X287500Y313336D01*
X288659Y313489D01*
X289739Y313936D01*
X290667Y314648D01*
X291378Y315576D01*
X291826Y316656D01*
X291979Y317815D01*
X291826Y318974D01*
X291378Y320054D01*
X290667Y320982D01*
X289739Y321693D01*
X288723Y322114D01*
Y332500D01*
Y340000D01*
X288630Y340468D01*
X288365Y340865D01*
X285865Y343365D01*
X285468Y343630D01*
X285000Y343724D01*
X281224D01*
Y371993D01*
X283007Y373777D01*
X310363D01*
Y372977D01*
X312386Y370953D01*
X317614D01*
X319637Y372977D01*
Y377023D01*
X317614Y379047D01*
D02*
G37*
G36*
X245114D02*
X239886D01*
X237863Y377023D01*
Y376223D01*
X150000D01*
X149532Y376130D01*
X149135Y375865D01*
X147836Y374566D01*
X147570Y374169D01*
X147477Y373701D01*
Y371645D01*
X144851D01*
Y368724D01*
X142500D01*
X142032Y368630D01*
X141635Y368365D01*
X139135Y365865D01*
X138870Y365468D01*
X138777Y365000D01*
Y356160D01*
X138059Y355863D01*
X137254Y355246D01*
X136637Y354441D01*
X136249Y353505D01*
X136117Y352500D01*
X136249Y351495D01*
X136637Y350559D01*
X137254Y349754D01*
X138059Y349137D01*
X138995Y348749D01*
X140000Y348617D01*
X141005Y348749D01*
X141941Y349137D01*
X142746Y349754D01*
X143363Y350559D01*
X143751Y351495D01*
X143883Y352500D01*
X143751Y353505D01*
X143363Y354441D01*
X142746Y355246D01*
X141941Y355863D01*
X141224Y356160D01*
Y364493D01*
X143007Y366277D01*
X144851D01*
Y363355D01*
X152550D01*
Y371645D01*
X149924D01*
Y373194D01*
X150507Y373777D01*
X237863D01*
Y372977D01*
X239886Y370953D01*
X245114D01*
X247137Y372977D01*
Y377023D01*
X245114Y379047D01*
D02*
G37*
G36*
X488689Y373603D02*
Y370579D01*
X491713D01*
X491656Y371008D01*
X491298Y371874D01*
X490727Y372617D01*
X489984Y373188D01*
X489118Y373546D01*
X488689Y373603D01*
D02*
G37*
G36*
X487689D02*
X487260Y373546D01*
X486394Y373188D01*
X485651Y372617D01*
X485080Y371874D01*
X484722Y371008D01*
X484665Y370579D01*
X487689D01*
Y373603D01*
D02*
G37*
G36*
X133445Y373516D02*
X130421D01*
Y370492D01*
X130850Y370548D01*
X131716Y370907D01*
X132460Y371477D01*
X133030Y372221D01*
X133389Y373087D01*
X133445Y373516D01*
D02*
G37*
G36*
X129421D02*
X126397D01*
X126454Y373087D01*
X126812Y372221D01*
X127383Y371477D01*
X128126Y370907D01*
X128992Y370548D01*
X129421Y370492D01*
Y373516D01*
D02*
G37*
G36*
X224145Y370149D02*
X215855D01*
Y368033D01*
X201645D01*
Y370149D01*
X193355D01*
Y364901D01*
X182688Y354233D01*
X173449D01*
X173363Y354441D01*
X172746Y355246D01*
X171941Y355863D01*
X171005Y356251D01*
X170000Y356383D01*
X168995Y356251D01*
X168059Y355863D01*
X167254Y355246D01*
X166637Y354441D01*
X166250Y353505D01*
X166117Y352500D01*
X166250Y351495D01*
X166637Y350559D01*
X167254Y349754D01*
X168059Y349137D01*
X168995Y348749D01*
X170000Y348617D01*
X171005Y348749D01*
X171941Y349137D01*
X172746Y349754D01*
X173363Y350559D01*
X173449Y350767D01*
X183405D01*
X184069Y350899D01*
X184631Y351274D01*
X195806Y362450D01*
X201645D01*
Y364566D01*
X215855D01*
Y362450D01*
X224145D01*
Y364566D01*
X257983D01*
X268836Y353713D01*
X268749Y353505D01*
X268617Y352500D01*
X268749Y351495D01*
X269137Y350559D01*
X269754Y349754D01*
X270559Y349137D01*
X271495Y348749D01*
X272500Y348617D01*
X273505Y348749D01*
X274441Y349137D01*
X275246Y349754D01*
X275863Y350559D01*
X276251Y351495D01*
X276383Y352500D01*
X276251Y353505D01*
X275863Y354441D01*
X275246Y355246D01*
X274441Y355863D01*
X273505Y356251D01*
X272500Y356383D01*
X271495Y356251D01*
X271287Y356164D01*
X259926Y367525D01*
X259364Y367901D01*
X258701Y368033D01*
X224145D01*
Y370149D01*
D02*
G37*
G36*
X491713Y369579D02*
X488689D01*
Y366555D01*
X489118Y366611D01*
X489984Y366970D01*
X490727Y367540D01*
X491298Y368284D01*
X491656Y369150D01*
X491713Y369579D01*
D02*
G37*
G36*
X487689D02*
X484665D01*
X484722Y369150D01*
X485080Y368284D01*
X485651Y367540D01*
X486394Y366970D01*
X487260Y366611D01*
X487689Y366555D01*
Y369579D01*
D02*
G37*
G36*
X520315Y364478D02*
X519156Y364326D01*
X518076Y363878D01*
X517148Y363167D01*
X516436Y362239D01*
X515989Y361159D01*
X515836Y360000D01*
X515989Y358841D01*
X516436Y357761D01*
X517148Y356833D01*
X518076Y356121D01*
X519156Y355674D01*
X520315Y355521D01*
X521474Y355674D01*
X522554Y356121D01*
X523482Y356833D01*
X524193Y357761D01*
X524641Y358841D01*
X524793Y360000D01*
X524641Y361159D01*
X524193Y362239D01*
X523482Y363167D01*
X522554Y363878D01*
X521474Y364326D01*
X520315Y364478D01*
D02*
G37*
G36*
X219500Y357850D02*
X215555D01*
Y355433D01*
X201945D01*
Y357850D01*
X198000D01*
Y353700D01*
X197500D01*
Y353200D01*
X193055D01*
Y349551D01*
X195766D01*
Y340449D01*
X193055D01*
Y336800D01*
X197500D01*
Y336300D01*
X198000D01*
Y332150D01*
X201945D01*
Y334567D01*
X215555D01*
Y332150D01*
X219500D01*
Y336300D01*
X220000D01*
Y336800D01*
X224445D01*
Y340449D01*
X221734D01*
Y349551D01*
X224445D01*
Y353200D01*
X220000D01*
Y353700D01*
X219500D01*
Y357850D01*
D02*
G37*
G36*
X432500Y364065D02*
X431341Y363913D01*
X430261Y363465D01*
X429333Y362753D01*
X428621Y361826D01*
X428583Y361733D01*
X422500D01*
X421837Y361601D01*
X421274Y361226D01*
X418774Y358726D01*
X418399Y358163D01*
X418267Y357500D01*
Y225718D01*
X416782Y224233D01*
X396588D01*
X396378Y224739D01*
X395667Y225667D01*
X394739Y226378D01*
X393659Y226826D01*
X392500Y226978D01*
X391341Y226826D01*
X390261Y226378D01*
X389333Y225667D01*
X388621Y224739D01*
X388174Y223659D01*
X388021Y222500D01*
X388174Y221341D01*
X388621Y220261D01*
X389333Y219333D01*
X390261Y218621D01*
X391341Y218174D01*
X392500Y218021D01*
X393659Y218174D01*
X394739Y218621D01*
X395667Y219333D01*
X396378Y220261D01*
X396588Y220767D01*
X403267D01*
Y161783D01*
X400658D01*
Y158217D01*
X407964D01*
Y161783D01*
X406733D01*
Y220767D01*
X417500D01*
X418163Y220899D01*
X418726Y221274D01*
X421226Y223774D01*
X421601Y224337D01*
X421733Y225000D01*
Y356782D01*
X423218Y358267D01*
X428241D01*
X428621Y357347D01*
X429333Y356420D01*
X430261Y355708D01*
X431341Y355261D01*
X432500Y355108D01*
X433659Y355261D01*
X434739Y355708D01*
X435667Y356420D01*
X436378Y357347D01*
X436826Y358428D01*
X436978Y359587D01*
X436826Y360746D01*
X436378Y361826D01*
X435667Y362753D01*
X434739Y363465D01*
X433659Y363913D01*
X432500Y364065D01*
D02*
G37*
G36*
X224445Y357850D02*
X220500D01*
Y354200D01*
X224445D01*
Y357850D01*
D02*
G37*
G36*
X197000D02*
X193055D01*
Y354200D01*
X197000D01*
Y357850D01*
D02*
G37*
G36*
X402185Y356979D02*
X401026Y356826D01*
X399946Y356379D01*
X399018Y355667D01*
X398307Y354739D01*
X397859Y353659D01*
X397707Y352500D01*
X397859Y351341D01*
X398307Y350261D01*
X399018Y349333D01*
X399946Y348622D01*
X401026Y348174D01*
X402185Y348022D01*
X403344Y348174D01*
X404424Y348622D01*
X405352Y349333D01*
X406064Y350261D01*
X406511Y351341D01*
X406664Y352500D01*
X406511Y353659D01*
X406064Y354739D01*
X405352Y355667D01*
X404424Y356379D01*
X403344Y356826D01*
X402185Y356979D01*
D02*
G37*
G36*
X360000Y361224D02*
X317500D01*
X317032Y361130D01*
X316635Y360865D01*
X314135Y358365D01*
X313870Y357968D01*
X313776Y357500D01*
Y356160D01*
X313059Y355863D01*
X312254Y355246D01*
X311637Y354441D01*
X311249Y353505D01*
X311117Y352500D01*
X311249Y351495D01*
X311637Y350559D01*
X312254Y349754D01*
X313059Y349137D01*
X313995Y348749D01*
X315000Y348617D01*
X316005Y348749D01*
X316941Y349137D01*
X317746Y349754D01*
X318363Y350559D01*
X318751Y351495D01*
X318883Y352500D01*
X318751Y353505D01*
X318363Y354441D01*
X317746Y355246D01*
X316941Y355863D01*
X316224Y356160D01*
Y356993D01*
X318007Y358776D01*
X359493D01*
X361139Y357131D01*
X361065Y356581D01*
X360576Y356379D01*
X359648Y355667D01*
X358937Y354739D01*
X358489Y353659D01*
X358336Y352500D01*
X358489Y351341D01*
X358937Y350261D01*
X359648Y349333D01*
X360576Y348622D01*
X361656Y348174D01*
X362815Y348022D01*
X363974Y348174D01*
X365054Y348622D01*
X365982Y349333D01*
X366693Y350261D01*
X367141Y351341D01*
X367293Y352500D01*
X367141Y353659D01*
X366693Y354739D01*
X365982Y355667D01*
X365054Y356379D01*
X363974Y356826D01*
X363723Y356859D01*
Y357500D01*
X363630Y357968D01*
X363365Y358365D01*
X360865Y360865D01*
X360468Y361130D01*
X360000Y361224D01*
D02*
G37*
G36*
X242500Y356383D02*
X241495Y356251D01*
X240559Y355863D01*
X239754Y355246D01*
X239137Y354441D01*
X238750Y353505D01*
X238617Y352500D01*
X238750Y351495D01*
X239137Y350559D01*
X239754Y349754D01*
X240559Y349137D01*
X241495Y348749D01*
X242500Y348617D01*
X243505Y348749D01*
X244441Y349137D01*
X245246Y349754D01*
X245863Y350559D01*
X246160Y351276D01*
X251993D01*
X253777Y349493D01*
Y343724D01*
X246160D01*
X245863Y344441D01*
X245246Y345246D01*
X244441Y345863D01*
X243505Y346251D01*
X242500Y346383D01*
X241495Y346251D01*
X240559Y345863D01*
X239754Y345246D01*
X239137Y344441D01*
X238750Y343505D01*
X238617Y342500D01*
X238750Y341495D01*
X239137Y340559D01*
X239754Y339754D01*
X240559Y339137D01*
X241495Y338750D01*
X242500Y338617D01*
X243505Y338750D01*
X244441Y339137D01*
X245246Y339754D01*
X245863Y340559D01*
X246160Y341277D01*
X253777D01*
Y331146D01*
X253622Y331041D01*
X253276Y330954D01*
X250865Y333365D01*
X250468Y333630D01*
X250000Y333723D01*
X246160D01*
X245863Y334441D01*
X245246Y335246D01*
X244441Y335863D01*
X243505Y336250D01*
X242500Y336383D01*
X241495Y336250D01*
X240559Y335863D01*
X239754Y335246D01*
X239137Y334441D01*
X238750Y333505D01*
X238617Y332500D01*
X238750Y331495D01*
X239137Y330559D01*
X239754Y329754D01*
X240559Y329137D01*
X241495Y328749D01*
X242500Y328617D01*
X243505Y328749D01*
X244441Y329137D01*
X245246Y329754D01*
X245863Y330559D01*
X246160Y331276D01*
X249493D01*
X251276Y329493D01*
Y287964D01*
X250360Y287584D01*
X249474Y286904D01*
X248794Y286018D01*
X248366Y284986D01*
X248220Y283878D01*
Y281122D01*
X248366Y280014D01*
X248794Y278982D01*
X249474Y278096D01*
X250360Y277415D01*
X251392Y276988D01*
X252500Y276842D01*
X253608Y276988D01*
X254640Y277415D01*
X255526Y278096D01*
X256206Y278982D01*
X256634Y280014D01*
X256780Y281122D01*
Y283878D01*
X256634Y284986D01*
X256206Y286018D01*
X255526Y286904D01*
X254640Y287584D01*
X253724Y287964D01*
Y291354D01*
X253878Y291459D01*
X254223Y291546D01*
X256635Y289135D01*
X257032Y288870D01*
X257500Y288776D01*
X286016D01*
X286437Y287761D01*
X287148Y286833D01*
X288076Y286122D01*
X289156Y285674D01*
X290315Y285522D01*
X291474Y285674D01*
X292554Y286122D01*
X293482Y286833D01*
X294193Y287761D01*
X294641Y288841D01*
X294793Y290000D01*
X294641Y291159D01*
X294193Y292239D01*
X293482Y293167D01*
X292554Y293879D01*
X291474Y294326D01*
X290315Y294479D01*
X289156Y294326D01*
X288076Y293879D01*
X287148Y293167D01*
X286437Y292239D01*
X286016Y291224D01*
X258007D01*
X256224Y293007D01*
Y342500D01*
Y350000D01*
X256130Y350468D01*
X255865Y350865D01*
X253365Y353365D01*
X252968Y353630D01*
X252500Y353724D01*
X246160D01*
X245863Y354441D01*
X245246Y355246D01*
X244441Y355863D01*
X243505Y356251D01*
X242500Y356383D01*
D02*
G37*
G36*
X165149Y371645D02*
X157450D01*
Y363355D01*
X158776D01*
Y345507D01*
X156993Y343724D01*
X143660D01*
X143363Y344441D01*
X142746Y345246D01*
X141941Y345863D01*
X141005Y346251D01*
X140000Y346383D01*
X138995Y346251D01*
X138059Y345863D01*
X137254Y345246D01*
X136637Y344441D01*
X136249Y343505D01*
X136117Y342500D01*
X136249Y341495D01*
X136637Y340559D01*
X137254Y339754D01*
X138059Y339137D01*
X138995Y338750D01*
X140000Y338617D01*
X141005Y338750D01*
X141941Y339137D01*
X142746Y339754D01*
X143363Y340559D01*
X143660Y341277D01*
X157500D01*
X157968Y341370D01*
X158365Y341635D01*
X160865Y344135D01*
X161130Y344532D01*
X161223Y345000D01*
Y363355D01*
X165149D01*
Y371645D01*
D02*
G37*
G36*
X345000Y356383D02*
X343995Y356251D01*
X343059Y355863D01*
X342254Y355246D01*
X341637Y354441D01*
X341249Y353505D01*
X341117Y352500D01*
X341249Y351495D01*
X341637Y350559D01*
X342254Y349754D01*
X343059Y349137D01*
X343995Y348749D01*
X345000Y348617D01*
X346005Y348749D01*
X346941Y349137D01*
X347746Y349754D01*
X347891Y349944D01*
X349101D01*
X359350Y339695D01*
X359158Y339233D01*
X355278D01*
X354824Y339824D01*
X354144Y340347D01*
X353351Y340675D01*
X352500Y340787D01*
X351649Y340675D01*
X350856Y340347D01*
X350176Y339824D01*
X349653Y339144D01*
X349325Y338351D01*
X349213Y337500D01*
X349325Y336649D01*
X349653Y335856D01*
X350176Y335176D01*
X350856Y334653D01*
X351649Y334325D01*
X352500Y334213D01*
X353351Y334325D01*
X354144Y334653D01*
X354824Y335176D01*
X355278Y335767D01*
X359851D01*
Y333355D01*
X367550D01*
Y341645D01*
X362302D01*
X351044Y352903D01*
X350482Y353279D01*
X349819Y353411D01*
X348763D01*
X348750Y353505D01*
X348363Y354441D01*
X347746Y355246D01*
X346941Y355863D01*
X346005Y356251D01*
X345000Y356383D01*
D02*
G37*
G36*
Y346383D02*
X343995Y346251D01*
X343059Y345863D01*
X342254Y345246D01*
X341637Y344441D01*
X341249Y343505D01*
X341117Y342500D01*
X341249Y341495D01*
X341637Y340559D01*
X342254Y339754D01*
X343059Y339137D01*
X343995Y338750D01*
X345000Y338617D01*
X346005Y338750D01*
X346941Y339137D01*
X347746Y339754D01*
X348363Y340559D01*
X348750Y341495D01*
X348883Y342500D01*
X348750Y343505D01*
X348363Y344441D01*
X347746Y345246D01*
X346941Y345863D01*
X346005Y346251D01*
X345000Y346383D01*
D02*
G37*
G36*
X287500Y361664D02*
X286341Y361511D01*
X285261Y361064D01*
X284333Y360352D01*
X283622Y359424D01*
X283174Y358344D01*
X283021Y357185D01*
X283174Y356026D01*
X283622Y354946D01*
X284333Y354018D01*
X285261Y353307D01*
X286341Y352859D01*
X287500Y352707D01*
X288659Y352859D01*
X289675Y353280D01*
X301320Y341635D01*
X301717Y341370D01*
X302185Y341277D01*
X311340D01*
X311637Y340559D01*
X312254Y339754D01*
X313059Y339137D01*
X313995Y338750D01*
X315000Y338617D01*
X316005Y338750D01*
X316941Y339137D01*
X317746Y339754D01*
X318363Y340559D01*
X318751Y341495D01*
X318883Y342500D01*
X318751Y343505D01*
X318363Y344441D01*
X317746Y345246D01*
X316941Y345863D01*
X316005Y346251D01*
X315000Y346383D01*
X313995Y346251D01*
X313059Y345863D01*
X312254Y345246D01*
X311637Y344441D01*
X311340Y343724D01*
X302692D01*
X291405Y355010D01*
X291826Y356026D01*
X291979Y357185D01*
X291826Y358344D01*
X291378Y359424D01*
X290667Y360352D01*
X289739Y361064D01*
X288659Y361511D01*
X287500Y361664D01*
D02*
G37*
G36*
X170000Y346383D02*
X168995Y346251D01*
X168059Y345863D01*
X167254Y345246D01*
X166637Y344441D01*
X166250Y343505D01*
X166117Y342500D01*
X166250Y341495D01*
X166637Y340559D01*
X167254Y339754D01*
X168059Y339137D01*
X168995Y338750D01*
X170000Y338617D01*
X171005Y338750D01*
X171941Y339137D01*
X172746Y339754D01*
X173363Y340559D01*
X173750Y341495D01*
X173883Y342500D01*
X173750Y343505D01*
X173363Y344441D01*
X172746Y345246D01*
X171941Y345863D01*
X171005Y346251D01*
X170000Y346383D01*
D02*
G37*
G36*
X124685Y346978D02*
X123526Y346826D01*
X122446Y346378D01*
X121518Y345667D01*
X120807Y344739D01*
X120359Y343659D01*
X120207Y342500D01*
X120359Y341341D01*
X120807Y340261D01*
X121518Y339333D01*
X122446Y338621D01*
X123526Y338174D01*
X124685Y338021D01*
X125844Y338174D01*
X126924Y338621D01*
X127852Y339333D01*
X128563Y340261D01*
X129011Y341341D01*
X129164Y342500D01*
X129011Y343659D01*
X128563Y344739D01*
X127852Y345667D01*
X126924Y346378D01*
X125844Y346826D01*
X124685Y346978D01*
D02*
G37*
G36*
X87614Y379047D02*
X82386D01*
X80363Y377023D01*
Y372977D01*
X82386Y370953D01*
X84091D01*
Y346799D01*
X83076Y346378D01*
X82148Y345667D01*
X81437Y344739D01*
X80989Y343659D01*
X80836Y342500D01*
X80989Y341341D01*
X81437Y340261D01*
X82148Y339333D01*
X83076Y338621D01*
X84156Y338174D01*
X85315Y338021D01*
X86474Y338174D01*
X87554Y338621D01*
X88482Y339333D01*
X89193Y340261D01*
X89641Y341341D01*
X89793Y342500D01*
X89641Y343659D01*
X89193Y344739D01*
X88482Y345667D01*
X87554Y346378D01*
X86538Y346799D01*
Y370953D01*
X87614D01*
X89637Y372977D01*
Y377023D01*
X87614Y379047D01*
D02*
G37*
G36*
X380449Y341945D02*
X376800D01*
Y338000D01*
X380449D01*
Y341945D01*
D02*
G37*
G36*
X375800D02*
X372150D01*
Y338000D01*
X375800D01*
Y341945D01*
D02*
G37*
G36*
X472500Y343883D02*
X471495Y343751D01*
X470559Y343363D01*
X469754Y342746D01*
X469137Y341941D01*
X468750Y341005D01*
X468617Y340000D01*
X468750Y338995D01*
X469137Y338059D01*
X469754Y337254D01*
X470559Y336637D01*
X471495Y336249D01*
X472500Y336117D01*
X473505Y336249D01*
X474441Y336637D01*
X475246Y337254D01*
X475863Y338059D01*
X476251Y338995D01*
X476383Y340000D01*
X476251Y341005D01*
X475863Y341941D01*
X475246Y342746D01*
X474441Y343363D01*
X473505Y343751D01*
X472500Y343883D01*
D02*
G37*
G36*
X315500Y336620D02*
Y333000D01*
X319120D01*
X319043Y333583D01*
X318625Y334593D01*
X317959Y335459D01*
X317093Y336125D01*
X316083Y336543D01*
X315500Y336620D01*
D02*
G37*
G36*
X314500D02*
X313917Y336543D01*
X312907Y336125D01*
X312040Y335459D01*
X311375Y334593D01*
X310957Y333583D01*
X310880Y333000D01*
X314500D01*
Y336620D01*
D02*
G37*
G36*
X140500D02*
Y333000D01*
X144120D01*
X144043Y333583D01*
X143625Y334593D01*
X142959Y335459D01*
X142093Y336125D01*
X141083Y336543D01*
X140500Y336620D01*
D02*
G37*
G36*
X139500D02*
X138917Y336543D01*
X137907Y336125D01*
X137040Y335459D01*
X136375Y334593D01*
X135957Y333583D01*
X135880Y333000D01*
X139500D01*
Y336620D01*
D02*
G37*
G36*
X224445Y335800D02*
X220500D01*
Y332150D01*
X224445D01*
Y335800D01*
D02*
G37*
G36*
X345000Y336383D02*
X343995Y336250D01*
X343059Y335863D01*
X342254Y335246D01*
X341637Y334441D01*
X341249Y333505D01*
X341117Y332500D01*
X341249Y331495D01*
X341637Y330559D01*
X342254Y329754D01*
X343059Y329137D01*
X343995Y328749D01*
X345000Y328617D01*
X346005Y328749D01*
X346941Y329137D01*
X347746Y329754D01*
X348363Y330559D01*
X348750Y331495D01*
X348883Y332500D01*
X348750Y333505D01*
X348363Y334441D01*
X347746Y335246D01*
X346941Y335863D01*
X346005Y336250D01*
X345000Y336383D01*
D02*
G37*
G36*
X170000D02*
X168995Y336250D01*
X168059Y335863D01*
X167254Y335246D01*
X166637Y334441D01*
X166250Y333505D01*
X166117Y332500D01*
X166250Y331495D01*
X166637Y330559D01*
X167254Y329754D01*
X168059Y329137D01*
X168995Y328749D01*
X170000Y328617D01*
X171005Y328749D01*
X171941Y329137D01*
X172746Y329754D01*
X173363Y330559D01*
X173750Y331495D01*
X173883Y332500D01*
X173750Y333505D01*
X173363Y334441D01*
X172746Y335246D01*
X171941Y335863D01*
X171005Y336250D01*
X170000Y336383D01*
D02*
G37*
G36*
X319120Y332000D02*
X315500D01*
Y328380D01*
X316083Y328457D01*
X317093Y328875D01*
X317959Y329540D01*
X318625Y330407D01*
X319043Y331417D01*
X319120Y332000D01*
D02*
G37*
G36*
X314500D02*
X310880D01*
X310957Y331417D01*
X311375Y330407D01*
X312040Y329540D01*
X312907Y328875D01*
X313917Y328457D01*
X314500Y328380D01*
Y332000D01*
D02*
G37*
G36*
X139500D02*
X135880D01*
X135957Y331417D01*
X136375Y330407D01*
X137040Y329540D01*
X137907Y328875D01*
X138917Y328457D01*
X139500Y328380D01*
Y332000D01*
D02*
G37*
G36*
X502500Y333883D02*
X501495Y333751D01*
X500559Y333363D01*
X499754Y332746D01*
X499137Y331941D01*
X498749Y331005D01*
X498617Y330000D01*
X498749Y328995D01*
X499137Y328059D01*
X499754Y327254D01*
X500559Y326637D01*
X501495Y326250D01*
X502500Y326117D01*
X503505Y326250D01*
X504441Y326637D01*
X505246Y327254D01*
X505863Y328059D01*
X506250Y328995D01*
X506383Y330000D01*
X506250Y331005D01*
X505863Y331941D01*
X505246Y332746D01*
X504441Y333363D01*
X503505Y333751D01*
X502500Y333883D01*
D02*
G37*
G36*
X447500Y334163D02*
X446341Y334011D01*
X445261Y333563D01*
X444333Y332852D01*
X443621Y331924D01*
X443174Y330844D01*
X443021Y329685D01*
X443174Y328526D01*
X443621Y327446D01*
X444333Y326518D01*
X445261Y325807D01*
X446277Y325386D01*
Y323007D01*
X444493Y321223D01*
X436846D01*
X436826Y321376D01*
X436378Y322456D01*
X435667Y323383D01*
X434739Y324095D01*
X433659Y324542D01*
X432500Y324695D01*
X431341Y324542D01*
X430261Y324095D01*
X429333Y323383D01*
X428621Y322456D01*
X428174Y321376D01*
X428021Y320216D01*
X428174Y319057D01*
X428621Y317977D01*
X429333Y317050D01*
X430261Y316338D01*
X431341Y315891D01*
X432500Y315738D01*
X433659Y315891D01*
X434739Y316338D01*
X435667Y317050D01*
X436378Y317977D01*
X436709Y318776D01*
X445000D01*
X445468Y318870D01*
X445865Y319135D01*
X448365Y321635D01*
X448630Y322032D01*
X448724Y322500D01*
Y325386D01*
X449739Y325807D01*
X450667Y326518D01*
X451378Y327446D01*
X451826Y328526D01*
X451838Y328619D01*
X468905D01*
X469137Y328059D01*
X469754Y327254D01*
X470559Y326637D01*
X471495Y326250D01*
X472500Y326117D01*
X473505Y326250D01*
X474441Y326637D01*
X475246Y327254D01*
X475863Y328059D01*
X476251Y328995D01*
X476383Y330000D01*
X476251Y331005D01*
X475863Y331941D01*
X475246Y332746D01*
X474441Y333363D01*
X473505Y333751D01*
X472500Y333883D01*
X471495Y333751D01*
X470559Y333363D01*
X469754Y332746D01*
X469137Y331941D01*
X468775Y331066D01*
X451734D01*
X451378Y331924D01*
X450667Y332852D01*
X449739Y333563D01*
X448659Y334011D01*
X447500Y334163D01*
D02*
G37*
G36*
X520315Y334478D02*
X519156Y334326D01*
X518076Y333878D01*
X517148Y333167D01*
X516436Y332239D01*
X515989Y331159D01*
X515836Y330000D01*
X515989Y328841D01*
X516436Y327761D01*
X517148Y326833D01*
X518076Y326121D01*
X519156Y325674D01*
X520315Y325521D01*
X521474Y325674D01*
X522554Y326121D01*
X523482Y326833D01*
X524193Y327761D01*
X524641Y328841D01*
X524793Y330000D01*
X524641Y331159D01*
X524193Y332239D01*
X523482Y333167D01*
X522554Y333878D01*
X521474Y334326D01*
X520315Y334478D01*
D02*
G37*
G36*
X380449Y337000D02*
X372150D01*
Y333055D01*
X374567D01*
Y326945D01*
X372150D01*
Y323000D01*
X380449D01*
Y326945D01*
X378033D01*
Y333055D01*
X380449D01*
Y337000D01*
D02*
G37*
G36*
X345000Y326383D02*
X343995Y326251D01*
X343059Y325863D01*
X342254Y325246D01*
X341637Y324441D01*
X341249Y323505D01*
X341117Y322500D01*
X341249Y321495D01*
X341637Y320559D01*
X342254Y319754D01*
X343059Y319137D01*
X343995Y318749D01*
X345000Y318617D01*
X346005Y318749D01*
X346941Y319137D01*
X347746Y319754D01*
X348363Y320559D01*
X348750Y321495D01*
X348883Y322500D01*
X348750Y323505D01*
X348363Y324441D01*
X347746Y325246D01*
X346941Y325863D01*
X346005Y326251D01*
X345000Y326383D01*
D02*
G37*
G36*
X170000D02*
X168995Y326251D01*
X168059Y325863D01*
X167254Y325246D01*
X166637Y324441D01*
X166250Y323505D01*
X166117Y322500D01*
X166250Y321495D01*
X166637Y320559D01*
X167254Y319754D01*
X168059Y319137D01*
X168995Y318749D01*
X170000Y318617D01*
X171005Y318749D01*
X171941Y319137D01*
X172746Y319754D01*
X173363Y320559D01*
X173750Y321495D01*
X173883Y322500D01*
X173750Y323505D01*
X173363Y324441D01*
X172746Y325246D01*
X171941Y325863D01*
X171005Y326251D01*
X170000Y326383D01*
D02*
G37*
G36*
X502500Y343883D02*
X501495Y343751D01*
X500559Y343363D01*
X499754Y342746D01*
X499137Y341941D01*
X498749Y341005D01*
X498617Y340000D01*
X498749Y338995D01*
X499137Y338059D01*
X499754Y337254D01*
X500559Y336637D01*
X501495Y336249D01*
X502500Y336117D01*
X503505Y336249D01*
X504223Y336547D01*
X511276Y329493D01*
Y318646D01*
X511122Y318541D01*
X510777Y318454D01*
X508365Y320865D01*
X507968Y321130D01*
X507500Y321223D01*
X506160D01*
X505863Y321941D01*
X505246Y322746D01*
X504441Y323363D01*
X503505Y323750D01*
X502500Y323883D01*
X501495Y323750D01*
X500559Y323363D01*
X499754Y322746D01*
X499137Y321941D01*
X498840Y321223D01*
X476160D01*
X475863Y321941D01*
X475246Y322746D01*
X474441Y323363D01*
X473505Y323750D01*
X472500Y323883D01*
X471495Y323750D01*
X470559Y323363D01*
X469754Y322746D01*
X469137Y321941D01*
X468840Y321223D01*
X467500D01*
X467032Y321130D01*
X466635Y320865D01*
X464135Y318365D01*
X463870Y317968D01*
X463776Y317500D01*
Y302500D01*
X463870Y302032D01*
X464135Y301635D01*
X466635Y299135D01*
X467032Y298870D01*
X467500Y298777D01*
X468840D01*
X469137Y298059D01*
X469754Y297254D01*
X470559Y296637D01*
X471495Y296250D01*
X472500Y296117D01*
X473505Y296250D01*
X474441Y296637D01*
X475246Y297254D01*
X475863Y298059D01*
X476251Y298995D01*
X476383Y300000D01*
X476251Y301005D01*
X475863Y301941D01*
X475246Y302746D01*
X474441Y303363D01*
X473505Y303750D01*
X472500Y303883D01*
X471495Y303750D01*
X470559Y303363D01*
X469754Y302746D01*
X469137Y301941D01*
X468840Y301223D01*
X468007D01*
X466223Y303007D01*
Y316993D01*
X468007Y318776D01*
X468840D01*
X469137Y318059D01*
X469754Y317254D01*
X470559Y316637D01*
X471495Y316249D01*
X472500Y316117D01*
X473505Y316249D01*
X474441Y316637D01*
X475246Y317254D01*
X475863Y318059D01*
X476160Y318776D01*
X498840D01*
X499137Y318059D01*
X499754Y317254D01*
X500559Y316637D01*
X501495Y316249D01*
X502500Y316117D01*
X503505Y316249D01*
X504441Y316637D01*
X505246Y317254D01*
X505863Y318059D01*
X506160Y318776D01*
X506993D01*
X508777Y316993D01*
Y303007D01*
X506993Y301223D01*
X506160D01*
X505863Y301941D01*
X505246Y302746D01*
X504441Y303363D01*
X503505Y303750D01*
X502500Y303883D01*
X501495Y303750D01*
X500559Y303363D01*
X499754Y302746D01*
X499137Y301941D01*
X498749Y301005D01*
X498617Y300000D01*
X498749Y298995D01*
X499047Y298277D01*
X496635Y295865D01*
X496370Y295468D01*
X496277Y295000D01*
Y275000D01*
X496370Y274532D01*
X496635Y274135D01*
X498776Y271993D01*
Y235507D01*
X486635Y223365D01*
X484135Y220865D01*
X483870Y220468D01*
X483777Y220000D01*
Y203021D01*
X483356Y202847D01*
X482974Y202554D01*
X482474Y202800D01*
Y260855D01*
X485050D01*
Y269145D01*
X482934D01*
Y308799D01*
X482802Y309462D01*
X482426Y310025D01*
X481226Y311226D01*
X480663Y311601D01*
X480000Y311733D01*
X475949D01*
X475863Y311941D01*
X475246Y312746D01*
X474441Y313363D01*
X473505Y313751D01*
X472500Y313883D01*
X471495Y313751D01*
X470559Y313363D01*
X469754Y312746D01*
X469137Y311941D01*
X468750Y311005D01*
X468617Y310000D01*
X468750Y308995D01*
X469137Y308059D01*
X469754Y307254D01*
X470559Y306637D01*
X471495Y306249D01*
X472500Y306117D01*
X473505Y306249D01*
X474441Y306637D01*
X475246Y307254D01*
X475863Y308059D01*
X475949Y308267D01*
X479282D01*
X479467Y308081D01*
Y269145D01*
X477351D01*
Y260855D01*
X479008D01*
Y191733D01*
X475949D01*
X475863Y191941D01*
X475246Y192746D01*
X474441Y193363D01*
X473505Y193751D01*
X472500Y193883D01*
X471495Y193751D01*
X470559Y193363D01*
X469754Y192746D01*
X469137Y191941D01*
X468750Y191005D01*
X468617Y190000D01*
X468750Y188995D01*
X469137Y188059D01*
X469754Y187254D01*
X470559Y186637D01*
X471495Y186249D01*
X472500Y186117D01*
X473505Y186249D01*
X474441Y186637D01*
X475246Y187254D01*
X475863Y188059D01*
X475949Y188267D01*
X479008D01*
Y149145D01*
X477351D01*
Y140855D01*
X479467D01*
Y71733D01*
X475949D01*
X475863Y71941D01*
X475246Y72746D01*
X474441Y73363D01*
X473505Y73751D01*
X472500Y73883D01*
X471495Y73751D01*
X470559Y73363D01*
X469754Y72746D01*
X469137Y71941D01*
X468750Y71005D01*
X468617Y70000D01*
X468750Y68995D01*
X469137Y68059D01*
X469754Y67254D01*
X470559Y66637D01*
X471495Y66250D01*
X472500Y66117D01*
X473505Y66250D01*
X474441Y66637D01*
X475246Y67254D01*
X475863Y68059D01*
X475949Y68267D01*
X479467D01*
Y29145D01*
X477351D01*
Y20855D01*
X479467D01*
Y14419D01*
X476782Y11733D01*
X358218D01*
X353190Y16761D01*
X353287Y17500D01*
X353175Y18351D01*
X352847Y19144D01*
X352324Y19824D01*
X351644Y20347D01*
X350851Y20675D01*
X350000Y20787D01*
X349149Y20675D01*
X348356Y20347D01*
X347676Y19824D01*
X347153Y19144D01*
X346825Y18351D01*
X346713Y17500D01*
X346825Y16649D01*
X347153Y15856D01*
X347676Y15176D01*
X348356Y14653D01*
X349149Y14325D01*
X350000Y14213D01*
X350739Y14310D01*
X356274Y8774D01*
X356837Y8399D01*
X357500Y8267D01*
X477500D01*
X478163Y8399D01*
X478726Y8774D01*
X482426Y12475D01*
X482802Y13037D01*
X482934Y13701D01*
Y20855D01*
X485050D01*
Y29145D01*
X482934D01*
Y140855D01*
X485050D01*
Y149145D01*
X482474D01*
Y197200D01*
X482974Y197447D01*
X483356Y197153D01*
X484149Y196825D01*
X485000Y196713D01*
X485851Y196825D01*
X486644Y197153D01*
X487324Y197676D01*
X487847Y198356D01*
X488021Y198776D01*
X498840D01*
X499137Y198059D01*
X499754Y197254D01*
X500559Y196637D01*
X501495Y196249D01*
X502500Y196117D01*
X503505Y196249D01*
X504441Y196637D01*
X505246Y197254D01*
X505863Y198059D01*
X506160Y198776D01*
X506993D01*
X508777Y196993D01*
Y183007D01*
X506993Y181223D01*
X506160D01*
X505863Y181941D01*
X505246Y182746D01*
X504441Y183363D01*
X503505Y183750D01*
X502500Y183883D01*
X501495Y183750D01*
X500559Y183363D01*
X499754Y182746D01*
X499137Y181941D01*
X498749Y181005D01*
X498617Y180000D01*
X498749Y178995D01*
X499137Y178059D01*
X499754Y177254D01*
X500559Y176637D01*
X501495Y176250D01*
X502500Y176117D01*
X503505Y176250D01*
X504441Y176637D01*
X505246Y177254D01*
X505863Y178059D01*
X506160Y178777D01*
X507500D01*
X507968Y178870D01*
X508365Y179135D01*
X510865Y181635D01*
X511130Y182032D01*
X511224Y182500D01*
Y197500D01*
X511130Y197968D01*
X510865Y198365D01*
X508365Y200865D01*
X507968Y201130D01*
X507500Y201223D01*
X506160D01*
X505863Y201941D01*
X505246Y202746D01*
X504441Y203363D01*
X503505Y203750D01*
X502500Y203883D01*
X501495Y203750D01*
X500559Y203363D01*
X499754Y202746D01*
X499137Y201941D01*
X498840Y201223D01*
X488021D01*
X487847Y201644D01*
X487324Y202324D01*
X486644Y202847D01*
X486224Y203021D01*
Y219493D01*
X488365Y221635D01*
X500865Y234135D01*
X501130Y234532D01*
X501224Y235000D01*
Y272500D01*
X501130Y272968D01*
X500865Y273365D01*
X498724Y275507D01*
Y277818D01*
X499224Y277946D01*
X499754Y277254D01*
X500559Y276637D01*
X501495Y276250D01*
X502500Y276117D01*
X503505Y276250D01*
X504441Y276637D01*
X505246Y277254D01*
X505863Y278059D01*
X506250Y278995D01*
X506383Y280000D01*
X506250Y281005D01*
X505863Y281941D01*
X505246Y282746D01*
X504441Y283363D01*
X503505Y283751D01*
X502500Y283883D01*
X501495Y283751D01*
X500559Y283363D01*
X499754Y282746D01*
X499224Y282054D01*
X498724Y282182D01*
Y287818D01*
X499224Y287946D01*
X499754Y287254D01*
X500559Y286637D01*
X501495Y286249D01*
X502500Y286117D01*
X503505Y286249D01*
X504441Y286637D01*
X505246Y287254D01*
X505863Y288059D01*
X506160Y288776D01*
X506993D01*
X508777Y286993D01*
Y268021D01*
X508356Y267847D01*
X507676Y267324D01*
X507153Y266644D01*
X506825Y265851D01*
X506713Y265000D01*
X506825Y264149D01*
X507153Y263356D01*
X507676Y262676D01*
X508356Y262153D01*
X509149Y261825D01*
X510000Y261713D01*
X510851Y261825D01*
X511644Y262153D01*
X512324Y262676D01*
X512847Y263356D01*
X513175Y264149D01*
X513287Y265000D01*
X513175Y265851D01*
X512847Y266644D01*
X512324Y267324D01*
X511644Y267847D01*
X511224Y268021D01*
Y271354D01*
X511378Y271460D01*
X511724Y271546D01*
X514135Y269135D01*
X514532Y268870D01*
X515000Y268776D01*
X516016D01*
X516436Y267761D01*
X517148Y266833D01*
X518076Y266122D01*
X519156Y265674D01*
X520315Y265522D01*
X521474Y265674D01*
X522554Y266122D01*
X523482Y266833D01*
X524193Y267761D01*
X524641Y268841D01*
X524793Y270000D01*
X524641Y271159D01*
X524193Y272239D01*
X523482Y273167D01*
X522554Y273879D01*
X521474Y274326D01*
X520315Y274479D01*
X519156Y274326D01*
X518076Y273879D01*
X517148Y273167D01*
X516436Y272239D01*
X516016Y271223D01*
X515507D01*
X513724Y273007D01*
Y330000D01*
X513630Y330468D01*
X513365Y330865D01*
X505953Y338277D01*
X506250Y338995D01*
X506383Y340000D01*
X506250Y341005D01*
X505863Y341941D01*
X505246Y342746D01*
X504441Y343363D01*
X503505Y343751D01*
X502500Y343883D01*
D02*
G37*
G36*
X380449Y322000D02*
X376800D01*
Y318055D01*
X380449D01*
Y322000D01*
D02*
G37*
G36*
X375800D02*
X372150D01*
Y318055D01*
X375800D01*
Y322000D01*
D02*
G37*
G36*
X367550Y326645D02*
X359851D01*
Y320806D01*
X355778Y316733D01*
X323218D01*
X318664Y321287D01*
X318751Y321495D01*
X318883Y322500D01*
X318751Y323505D01*
X318363Y324441D01*
X317746Y325246D01*
X316941Y325863D01*
X316005Y326251D01*
X315000Y326383D01*
X313995Y326251D01*
X313059Y325863D01*
X312254Y325246D01*
X311637Y324441D01*
X311249Y323505D01*
X311117Y322500D01*
X311249Y321495D01*
X311637Y320559D01*
X312254Y319754D01*
X313059Y319137D01*
X313995Y318749D01*
X315000Y318617D01*
X316005Y318749D01*
X316213Y318836D01*
X321274Y313774D01*
X321837Y313399D01*
X322500Y313267D01*
X356496D01*
X357159Y313399D01*
X357722Y313774D01*
X362302Y318355D01*
X367550D01*
Y326645D01*
D02*
G37*
G36*
X197000Y335800D02*
X193055D01*
Y334601D01*
X175187Y316733D01*
X158418D01*
X143953Y331199D01*
X144043Y331417D01*
X144120Y332000D01*
X140500D01*
Y328380D01*
X141083Y328457D01*
X141584Y328665D01*
X155754Y314495D01*
X155562Y314033D01*
X150918D01*
X143664Y321287D01*
X143751Y321495D01*
X143883Y322500D01*
X143751Y323505D01*
X143363Y324441D01*
X142746Y325246D01*
X141941Y325863D01*
X141005Y326251D01*
X140000Y326383D01*
X138995Y326251D01*
X138059Y325863D01*
X137254Y325246D01*
X136637Y324441D01*
X136249Y323505D01*
X136117Y322500D01*
X136249Y321495D01*
X136637Y320559D01*
X137254Y319754D01*
X138059Y319137D01*
X138995Y318749D01*
X140000Y318617D01*
X141005Y318749D01*
X141213Y318836D01*
X148974Y311074D01*
X149537Y310699D01*
X150200Y310567D01*
X194800D01*
X195463Y310699D01*
X196026Y311074D01*
X198726Y313774D01*
X199101Y314337D01*
X199233Y315000D01*
Y319851D01*
X201645D01*
Y321968D01*
X215855D01*
Y319851D01*
X224145D01*
Y320767D01*
X239051D01*
X239137Y320559D01*
X239754Y319754D01*
X240559Y319137D01*
X241495Y318749D01*
X242500Y318617D01*
X243505Y318749D01*
X244441Y319137D01*
X245246Y319754D01*
X245863Y320559D01*
X246251Y321495D01*
X246383Y322500D01*
X246251Y323505D01*
X245863Y324441D01*
X245246Y325246D01*
X244441Y325863D01*
X243505Y326251D01*
X242500Y326383D01*
X241495Y326251D01*
X240559Y325863D01*
X239754Y325246D01*
X239137Y324441D01*
X239051Y324233D01*
X224145D01*
Y327550D01*
X215855D01*
Y325434D01*
X201645D01*
Y327550D01*
X193355D01*
Y319851D01*
X195767D01*
Y315718D01*
X194082Y314033D01*
X178043D01*
X177852Y314495D01*
X195507Y332150D01*
X197000D01*
Y335800D01*
D02*
G37*
G36*
X228847Y314548D02*
Y311524D01*
X231870D01*
X231814Y311953D01*
X231455Y312819D01*
X230885Y313562D01*
X230141Y314132D01*
X229276Y314491D01*
X228847Y314548D01*
D02*
G37*
G36*
X227847D02*
X227417Y314491D01*
X226552Y314132D01*
X225808Y313562D01*
X225238Y312819D01*
X224879Y311953D01*
X224822Y311524D01*
X227847D01*
Y314548D01*
D02*
G37*
G36*
X503000Y314120D02*
Y310500D01*
X506620D01*
X506543Y311083D01*
X506125Y312093D01*
X505459Y312960D01*
X504593Y313625D01*
X503583Y314043D01*
X503000Y314120D01*
D02*
G37*
G36*
X231870Y310524D02*
X228847D01*
Y307500D01*
X229276Y307556D01*
X230141Y307915D01*
X230885Y308485D01*
X231455Y309229D01*
X231814Y310094D01*
X231870Y310524D01*
D02*
G37*
G36*
X227847D02*
X224822D01*
X224879Y310094D01*
X225238Y309229D01*
X225808Y308485D01*
X226552Y307915D01*
X227417Y307556D01*
X227847Y307500D01*
Y310524D01*
D02*
G37*
G36*
X506620Y309500D02*
X503000D01*
Y305880D01*
X503583Y305957D01*
X504593Y306375D01*
X505459Y307041D01*
X506125Y307907D01*
X506543Y308917D01*
X506620Y309500D01*
D02*
G37*
G36*
X502000Y314120D02*
X501417Y314043D01*
X500407Y313625D01*
X499541Y312960D01*
X498875Y312093D01*
X498727Y311733D01*
X495000D01*
X494337Y311601D01*
X493774Y311226D01*
X492574Y310026D01*
X492199Y309463D01*
X492067Y308800D01*
Y269445D01*
X490143D01*
X490072Y269445D01*
X489646Y269925D01*
X489660Y270050D01*
X489824Y270176D01*
X490347Y270856D01*
X490675Y271649D01*
X490787Y272500D01*
X490675Y273351D01*
X490347Y274144D01*
X489824Y274824D01*
X489144Y275347D01*
X488351Y275675D01*
X487500Y275787D01*
X486649Y275675D01*
X485856Y275347D01*
X485176Y274824D01*
X484653Y274144D01*
X484325Y273351D01*
X484213Y272500D01*
X484325Y271649D01*
X484653Y270856D01*
X485176Y270176D01*
X485856Y269653D01*
X486276Y269479D01*
Y240521D01*
X485856Y240347D01*
X485176Y239824D01*
X484653Y239144D01*
X484325Y238351D01*
X484213Y237500D01*
X484325Y236649D01*
X484653Y235856D01*
X485176Y235176D01*
X485856Y234653D01*
X486649Y234325D01*
X487500Y234213D01*
X488351Y234325D01*
X489144Y234653D01*
X489824Y235176D01*
X490347Y235856D01*
X490675Y236649D01*
X490787Y237500D01*
X490675Y238351D01*
X490347Y239144D01*
X489824Y239824D01*
X489144Y240347D01*
X488724Y240521D01*
Y269384D01*
X489143Y269646D01*
X489290Y269616D01*
X489550Y269505D01*
X489614Y269445D01*
X489650Y269085D01*
X489650Y268962D01*
Y265500D01*
X497949D01*
Y269445D01*
X495533D01*
Y308082D01*
X495718Y308267D01*
X498727D01*
X498875Y307907D01*
X499541Y307041D01*
X500407Y306375D01*
X501417Y305957D01*
X502000Y305880D01*
Y310000D01*
Y314120D01*
D02*
G37*
G36*
X559685Y334478D02*
X558526Y334326D01*
X557446Y333878D01*
X556518Y333167D01*
X555807Y332239D01*
X555359Y331159D01*
X555207Y330000D01*
X555359Y328841D01*
X555807Y327761D01*
X556518Y326833D01*
X557446Y326121D01*
X558526Y325674D01*
X559685Y325521D01*
X560844Y325674D01*
X561924Y326121D01*
X562852Y326833D01*
X563563Y327761D01*
X563984Y328777D01*
X571993D01*
X573776Y326993D01*
Y298646D01*
X573622Y298540D01*
X573277Y298454D01*
X570865Y300865D01*
X570468Y301130D01*
X570000Y301223D01*
X563984D01*
X563563Y302239D01*
X562852Y303167D01*
X561924Y303878D01*
X560844Y304326D01*
X559685Y304479D01*
X558526Y304326D01*
X557446Y303878D01*
X556518Y303167D01*
X555807Y302239D01*
X555359Y301159D01*
X555207Y300000D01*
X555359Y298841D01*
X555807Y297761D01*
X556518Y296833D01*
X557446Y296122D01*
X558526Y295674D01*
X559685Y295521D01*
X560844Y295674D01*
X561924Y296122D01*
X562852Y296833D01*
X563563Y297761D01*
X563984Y298777D01*
X569493D01*
X571277Y296993D01*
Y268646D01*
X571122Y268541D01*
X570777Y268454D01*
X568365Y270865D01*
X567968Y271130D01*
X567500Y271223D01*
X563984D01*
X563563Y272239D01*
X562852Y273167D01*
X561924Y273879D01*
X560844Y274326D01*
X559685Y274479D01*
X558526Y274326D01*
X557446Y273879D01*
X556518Y273167D01*
X555807Y272239D01*
X555359Y271159D01*
X555207Y270000D01*
X555359Y268841D01*
X555807Y267761D01*
X556518Y266833D01*
X557446Y266122D01*
X558526Y265674D01*
X559685Y265522D01*
X560844Y265674D01*
X561924Y266122D01*
X562852Y266833D01*
X563563Y267761D01*
X563984Y268776D01*
X566993D01*
X568777Y266993D01*
Y228646D01*
X568622Y228540D01*
X568277Y228454D01*
X565865Y230865D01*
X565468Y231130D01*
X565000Y231224D01*
X563984D01*
X563563Y232239D01*
X562852Y233167D01*
X561924Y233878D01*
X560844Y234326D01*
X559685Y234478D01*
X558526Y234326D01*
X557446Y233878D01*
X556518Y233167D01*
X555807Y232239D01*
X555359Y231159D01*
X555207Y230000D01*
X555359Y228841D01*
X555807Y227761D01*
X556518Y226833D01*
X557446Y226121D01*
X558526Y225674D01*
X559685Y225521D01*
X560844Y225674D01*
X561924Y226121D01*
X562852Y226833D01*
X563563Y227761D01*
X563984Y228777D01*
X564493D01*
X566277Y226993D01*
Y212500D01*
X566370Y212032D01*
X566635Y211635D01*
X569135Y209135D01*
X569532Y208870D01*
X570000Y208776D01*
X578414D01*
X578793Y207860D01*
X579474Y206974D01*
X580360Y206294D01*
X581392Y205866D01*
X582500Y205720D01*
X583608Y205866D01*
X584640Y206294D01*
X585526Y206974D01*
X586206Y207860D01*
X586634Y208892D01*
X586780Y210000D01*
X586634Y211108D01*
X586206Y212140D01*
X585526Y213026D01*
X584640Y213706D01*
X583608Y214134D01*
X582500Y214280D01*
X581392Y214134D01*
X580360Y213706D01*
X579474Y213026D01*
X578793Y212140D01*
X578414Y211224D01*
X570507D01*
X568723Y213007D01*
Y221354D01*
X568878Y221460D01*
X569223Y221546D01*
X571635Y219135D01*
X572032Y218870D01*
X572500Y218776D01*
X578414D01*
X578793Y217860D01*
X579474Y216974D01*
X580360Y216294D01*
X581392Y215866D01*
X582500Y215720D01*
X583608Y215866D01*
X584640Y216294D01*
X585526Y216974D01*
X586206Y217860D01*
X586634Y218892D01*
X586780Y220000D01*
X586634Y221108D01*
X586206Y222140D01*
X585526Y223026D01*
X584640Y223707D01*
X583608Y224134D01*
X582500Y224280D01*
X581392Y224134D01*
X580360Y223707D01*
X579474Y223026D01*
X578793Y222140D01*
X578414Y221223D01*
X573007D01*
X571223Y223007D01*
Y231354D01*
X571378Y231459D01*
X571724Y231546D01*
X574135Y229135D01*
X574532Y228870D01*
X575000Y228777D01*
X578414D01*
X578793Y227860D01*
X579474Y226974D01*
X580360Y226293D01*
X581392Y225866D01*
X582500Y225720D01*
X583608Y225866D01*
X584640Y226293D01*
X585526Y226974D01*
X586206Y227860D01*
X586634Y228892D01*
X586780Y230000D01*
X586634Y231108D01*
X586206Y232140D01*
X585526Y233026D01*
X584640Y233706D01*
X583608Y234134D01*
X582500Y234280D01*
X581392Y234134D01*
X580360Y233706D01*
X579474Y233026D01*
X578793Y232140D01*
X578414Y231224D01*
X575507D01*
X573724Y233007D01*
Y241354D01*
X573878Y241459D01*
X574224Y241546D01*
X576635Y239135D01*
X577032Y238870D01*
X577500Y238776D01*
X578414D01*
X578793Y237860D01*
X579474Y236974D01*
X580360Y236294D01*
X581392Y235866D01*
X582500Y235720D01*
X583608Y235866D01*
X584640Y236294D01*
X585526Y236974D01*
X586206Y237860D01*
X586634Y238892D01*
X586780Y240000D01*
X586634Y241108D01*
X586206Y242140D01*
X585526Y243026D01*
X584640Y243706D01*
X583608Y244134D01*
X582500Y244280D01*
X581392Y244134D01*
X580360Y243706D01*
X579474Y243026D01*
X578793Y242140D01*
X578460Y241336D01*
X577952Y241278D01*
X576224Y243007D01*
Y327500D01*
X576130Y327968D01*
X575865Y328365D01*
X573365Y330865D01*
X572968Y331130D01*
X572500Y331224D01*
X563984D01*
X563563Y332239D01*
X562852Y333167D01*
X561924Y333878D01*
X560844Y334326D01*
X559685Y334478D01*
D02*
G37*
G36*
X520315Y304479D02*
X519156Y304326D01*
X518076Y303878D01*
X517148Y303167D01*
X516436Y302239D01*
X515989Y301159D01*
X515836Y300000D01*
X515989Y298841D01*
X516436Y297761D01*
X517148Y296833D01*
X518076Y296122D01*
X519156Y295674D01*
X520315Y295521D01*
X521474Y295674D01*
X522554Y296122D01*
X523482Y296833D01*
X524193Y297761D01*
X524641Y298841D01*
X524793Y300000D01*
X524641Y301159D01*
X524193Y302239D01*
X523482Y303167D01*
X522554Y303878D01*
X521474Y304326D01*
X520315Y304479D01*
D02*
G37*
G36*
X217500Y304164D02*
X216341Y304011D01*
X215261Y303563D01*
X214333Y302852D01*
X213621Y301924D01*
X213174Y300844D01*
X213021Y299685D01*
X213174Y298526D01*
X213621Y297446D01*
X214333Y296518D01*
X215261Y295807D01*
X216341Y295359D01*
X217500Y295207D01*
X218659Y295359D01*
X219739Y295807D01*
X220667Y296518D01*
X221378Y297446D01*
X221826Y298526D01*
X221978Y299685D01*
X221826Y300844D01*
X221378Y301924D01*
X220667Y302852D01*
X219739Y303563D01*
X218659Y304011D01*
X217500Y304164D01*
D02*
G37*
G36*
X357614Y379047D02*
X352386D01*
X350363Y377023D01*
Y372977D01*
X352386Y370953D01*
X357316D01*
X368776Y359493D01*
Y293007D01*
X368012Y292243D01*
X367550Y292434D01*
Y294145D01*
X359851D01*
Y291224D01*
X334125D01*
Y294440D01*
X330909D01*
Y295315D01*
X330815Y295783D01*
X330550Y296180D01*
X328365Y298365D01*
X327968Y298630D01*
X327500Y298724D01*
X275507D01*
X273724Y300507D01*
Y318840D01*
X274441Y319137D01*
X275246Y319754D01*
X275863Y320559D01*
X276251Y321495D01*
X276383Y322500D01*
X276251Y323505D01*
X275863Y324441D01*
X275246Y325246D01*
X274441Y325863D01*
X273505Y326251D01*
X272500Y326383D01*
X271495Y326251D01*
X270559Y325863D01*
X269754Y325246D01*
X269137Y324441D01*
X268749Y323505D01*
X268617Y322500D01*
X268749Y321495D01*
X269137Y320559D01*
X269754Y319754D01*
X270559Y319137D01*
X271276Y318840D01*
Y300000D01*
X271370Y299532D01*
X271635Y299135D01*
X274135Y296635D01*
X274532Y296370D01*
X275000Y296276D01*
X326993D01*
X328330Y294940D01*
X328143Y294440D01*
X325245D01*
Y285560D01*
X328462D01*
Y276799D01*
X327446Y276378D01*
X326518Y275667D01*
X325807Y274739D01*
X325359Y273659D01*
X325207Y272500D01*
X325359Y271341D01*
X325807Y270261D01*
X326518Y269333D01*
X327446Y268621D01*
X328526Y268174D01*
X329685Y268021D01*
X330844Y268174D01*
X331924Y268621D01*
X332852Y269333D01*
X333563Y270261D01*
X334011Y271341D01*
X334163Y272500D01*
X334011Y273659D01*
X333563Y274739D01*
X332852Y275667D01*
X331924Y276378D01*
X330909Y276799D01*
Y285560D01*
X334125D01*
Y288776D01*
X359851D01*
Y285855D01*
X367550D01*
Y288787D01*
X367968Y288870D01*
X368365Y289135D01*
X370865Y291635D01*
X371130Y292032D01*
X371223Y292500D01*
Y360000D01*
X371130Y360468D01*
X370865Y360865D01*
X359195Y372535D01*
X359637Y372977D01*
Y377023D01*
X357614Y379047D01*
D02*
G37*
G36*
X380449Y294445D02*
X376800D01*
Y290500D01*
X380449D01*
Y294445D01*
D02*
G37*
G36*
X375800D02*
X372150D01*
Y290500D01*
X375800D01*
Y294445D01*
D02*
G37*
G36*
X155000Y290787D02*
X154149Y290675D01*
X153356Y290347D01*
X152676Y289824D01*
X152153Y289144D01*
X151825Y288351D01*
X151713Y287500D01*
X151759Y287147D01*
X151384Y286733D01*
X146932D01*
X146780Y287233D01*
X146900Y287313D01*
X147337Y287968D01*
X147491Y288740D01*
X147337Y289512D01*
X146900Y290167D01*
X146245Y290605D01*
X145472Y290758D01*
X142126D01*
X141354Y290605D01*
X140699Y290167D01*
X140261Y289512D01*
X140108Y288740D01*
X140261Y287968D01*
X140699Y287313D01*
X140912Y287171D01*
Y286569D01*
X140699Y286427D01*
X140261Y285772D01*
X140108Y285000D01*
X140261Y284228D01*
X140699Y283573D01*
X140912Y283431D01*
Y282829D01*
X140699Y282687D01*
X140261Y282032D01*
X140108Y281260D01*
X140261Y280487D01*
X140699Y279833D01*
X141354Y279395D01*
X142126Y279241D01*
X145472D01*
X146245Y279395D01*
X146900Y279833D01*
X147023Y280017D01*
X178252D01*
X181277Y276993D01*
Y256007D01*
X181274Y256006D01*
X180386Y255638D01*
X179623Y255053D01*
X179037Y254290D01*
X178669Y253401D01*
X178544Y252448D01*
X178669Y251494D01*
X179037Y250605D01*
X179623Y249842D01*
X180386Y249257D01*
X181140Y248944D01*
Y225371D01*
X176993Y221223D01*
X89637D01*
Y222023D01*
X87614Y224046D01*
X86224D01*
Y272500D01*
X86130Y272968D01*
X85865Y273365D01*
X83365Y275865D01*
X82968Y276130D01*
X82500Y276223D01*
X74628D01*
X74372Y276842D01*
X73786Y277605D01*
X73023Y278191D01*
X72135Y278559D01*
X71181Y278684D01*
X68819D01*
X67865Y278559D01*
X66977Y278191D01*
X66214Y277605D01*
X65628Y276842D01*
X65260Y275954D01*
X65135Y275000D01*
X65260Y274046D01*
X65628Y273158D01*
X66214Y272395D01*
X66977Y271809D01*
X67865Y271441D01*
X68819Y271316D01*
X71181D01*
X72135Y271441D01*
X73023Y271809D01*
X73786Y272395D01*
X74372Y273158D01*
X74628Y273777D01*
X81993D01*
X83776Y271993D01*
Y224046D01*
X82386D01*
X80363Y222023D01*
Y217977D01*
X82386Y215953D01*
X87614D01*
X89637Y217977D01*
Y218776D01*
X177500D01*
X177968Y218870D01*
X178365Y219135D01*
X178464Y219234D01*
X178938Y219073D01*
X178941Y219046D01*
X179309Y218158D01*
X179895Y217395D01*
X180658Y216809D01*
X181546Y216441D01*
X182500Y216316D01*
X183454Y216441D01*
X184342Y216809D01*
X185105Y217395D01*
X185691Y218158D01*
X186059Y219046D01*
X186184Y220000D01*
X186059Y220954D01*
X185691Y221842D01*
X185105Y222605D01*
X184342Y223191D01*
X183588Y223503D01*
Y224864D01*
Y249057D01*
X184070Y249257D01*
X184833Y249842D01*
X185419Y250605D01*
X185787Y251494D01*
X185912Y252448D01*
X185787Y253401D01*
X185419Y254290D01*
X184833Y255053D01*
X184070Y255638D01*
X183723Y255782D01*
Y277500D01*
X183630Y277968D01*
X183365Y278365D01*
X179624Y282106D01*
X179227Y282371D01*
X178759Y282464D01*
X147130D01*
X146868Y282793D01*
X147040Y283267D01*
X152269D01*
X152933Y283399D01*
X153495Y283774D01*
X154076Y284355D01*
X154149Y284325D01*
X155000Y284213D01*
X155851Y284325D01*
X156644Y284653D01*
X157324Y285176D01*
X157847Y285856D01*
X158175Y286649D01*
X158287Y287500D01*
X158175Y288351D01*
X157847Y289144D01*
X157324Y289824D01*
X156644Y290347D01*
X155851Y290675D01*
X155000Y290787D01*
D02*
G37*
G36*
X87614Y319046D02*
X82386D01*
X80363Y317023D01*
Y312977D01*
X82386Y310953D01*
X87614D01*
X89637Y312977D01*
Y313776D01*
X134493D01*
X136276Y311993D01*
Y286224D01*
X134437D01*
X134301Y286427D01*
X134088Y286569D01*
Y287171D01*
X134301Y287313D01*
X134739Y287968D01*
X134892Y288740D01*
X134739Y289512D01*
X134301Y290167D01*
X133646Y290605D01*
X132874Y290758D01*
X129528D01*
X128755Y290605D01*
X128559Y290474D01*
X111978D01*
X108726Y293726D01*
X108163Y294101D01*
X107500Y294233D01*
X103873D01*
Y295096D01*
X101733D01*
Y297222D01*
X102324Y297676D01*
X102847Y298356D01*
X103175Y299149D01*
X103287Y300000D01*
X103175Y300851D01*
X102847Y301644D01*
X102324Y302324D01*
X101644Y302847D01*
X100851Y303175D01*
X100000Y303287D01*
X99149Y303175D01*
X98356Y302847D01*
X97676Y302324D01*
X97153Y301644D01*
X96825Y300851D01*
X96713Y300000D01*
X96825Y299149D01*
X97153Y298356D01*
X97676Y297676D01*
X98267Y297222D01*
Y295096D01*
X95583D01*
Y294233D01*
X90000D01*
X89337Y294101D01*
X88774Y293726D01*
X81782Y286733D01*
X74417D01*
X74372Y286842D01*
X73786Y287605D01*
X73023Y288191D01*
X72135Y288559D01*
X71181Y288684D01*
X68819D01*
X67865Y288559D01*
X66977Y288191D01*
X66214Y287605D01*
X65628Y286842D01*
X65260Y285954D01*
X65135Y285000D01*
X65260Y284046D01*
X65628Y283158D01*
X66214Y282395D01*
X66977Y281809D01*
X67865Y281441D01*
X68819Y281316D01*
X71181D01*
X72135Y281441D01*
X73023Y281809D01*
X73786Y282395D01*
X74372Y283158D01*
X74417Y283267D01*
X82500D01*
X83163Y283399D01*
X83726Y283774D01*
X90718Y290767D01*
X95583D01*
Y287397D01*
X103873D01*
Y290767D01*
X106782D01*
X110034Y287514D01*
X110597Y287139D01*
X111260Y287007D01*
X128068D01*
X128220Y286507D01*
X128100Y286427D01*
X127663Y285772D01*
X127509Y285000D01*
X127663Y284228D01*
X128065Y283626D01*
X128117Y283452D01*
X128005Y282993D01*
X111260D01*
X110597Y282861D01*
X110034Y282486D01*
X106782Y279233D01*
X104173D01*
Y282797D01*
X100228D01*
Y278648D01*
Y274498D01*
X104173D01*
Y275767D01*
X107500D01*
X108163Y275899D01*
X108726Y276274D01*
X111978Y279526D01*
X128019D01*
X128638Y279113D01*
X129528Y278936D01*
X130701D01*
Y281260D01*
X131201D01*
Y281760D01*
X135099D01*
X135021Y282149D01*
X134518Y282903D01*
X134485Y282925D01*
X134419Y283504D01*
X134645Y283776D01*
X136276D01*
Y263007D01*
X134135Y260865D01*
X133870Y260468D01*
X133869Y260464D01*
X133580Y260175D01*
X124855D01*
Y256224D01*
X117649D01*
Y259145D01*
X109950D01*
Y250855D01*
X117649D01*
Y253777D01*
X124855D01*
Y249720D01*
X128859D01*
Y242675D01*
X124855D01*
Y232220D01*
X135310D01*
Y242675D01*
X131306D01*
Y249720D01*
X135310D01*
Y258445D01*
X136000Y259135D01*
X136265Y259532D01*
X136266Y259536D01*
X138365Y261635D01*
X138630Y262032D01*
X138724Y262500D01*
Y285000D01*
Y312500D01*
X138630Y312968D01*
X138365Y313365D01*
X135865Y315865D01*
X135468Y316130D01*
X135000Y316224D01*
X89637D01*
Y317023D01*
X87614Y319046D01*
D02*
G37*
G36*
X432500Y304065D02*
X431341Y303912D01*
X430261Y303465D01*
X429333Y302753D01*
X428621Y301826D01*
X428174Y300746D01*
X428021Y299587D01*
X428174Y298428D01*
X428621Y297347D01*
X429333Y296420D01*
X430261Y295708D01*
X431341Y295261D01*
X432500Y295108D01*
X433659Y295261D01*
X434739Y295708D01*
X435667Y296420D01*
X436378Y297347D01*
X436826Y298428D01*
X436872Y298777D01*
X444493D01*
X446277Y296993D01*
Y294614D01*
X445261Y294193D01*
X444333Y293482D01*
X443621Y292554D01*
X443174Y291474D01*
X443021Y290315D01*
X443174Y289156D01*
X443621Y288076D01*
X444333Y287148D01*
X445261Y286437D01*
X446341Y285989D01*
X447500Y285837D01*
X448659Y285989D01*
X449739Y286437D01*
X450667Y287148D01*
X451378Y288076D01*
X451734Y288934D01*
X468775D01*
X469137Y288059D01*
X469754Y287254D01*
X470559Y286637D01*
X471495Y286249D01*
X472500Y286117D01*
X473505Y286249D01*
X474441Y286637D01*
X475246Y287254D01*
X475863Y288059D01*
X476251Y288995D01*
X476383Y290000D01*
X476251Y291005D01*
X475863Y291941D01*
X475246Y292746D01*
X474441Y293363D01*
X473505Y293751D01*
X472500Y293883D01*
X471495Y293751D01*
X470559Y293363D01*
X469754Y292746D01*
X469137Y291941D01*
X468905Y291381D01*
X451838D01*
X451826Y291474D01*
X451378Y292554D01*
X450667Y293482D01*
X449739Y294193D01*
X448724Y294614D01*
Y297500D01*
X448630Y297968D01*
X448365Y298365D01*
X445865Y300865D01*
X445468Y301130D01*
X445000Y301223D01*
X436628D01*
X436378Y301826D01*
X435667Y302753D01*
X434739Y303465D01*
X433659Y303912D01*
X432500Y304065D01*
D02*
G37*
G36*
X380449Y289500D02*
X376800D01*
Y285555D01*
X380449D01*
Y289500D01*
D02*
G37*
G36*
X375800D02*
X372150D01*
Y285555D01*
X375800D01*
Y289500D01*
D02*
G37*
G36*
X402075Y286988D02*
Y283965D01*
X405099D01*
X405042Y284394D01*
X404684Y285260D01*
X404113Y286003D01*
X403370Y286573D01*
X402504Y286932D01*
X402075Y286988D01*
D02*
G37*
G36*
X401075D02*
X400646Y286932D01*
X399780Y286573D01*
X399037Y286003D01*
X398466Y285260D01*
X398107Y284394D01*
X398051Y283965D01*
X401075D01*
Y286988D01*
D02*
G37*
G36*
X405099Y282965D02*
X402075D01*
Y279941D01*
X402504Y279997D01*
X403370Y280356D01*
X404113Y280926D01*
X404684Y281670D01*
X405042Y282536D01*
X405099Y282965D01*
D02*
G37*
G36*
X401075D02*
X398051D01*
X398107Y282536D01*
X398466Y281670D01*
X399037Y280926D01*
X399780Y280356D01*
X400646Y279997D01*
X401075Y279941D01*
Y282965D01*
D02*
G37*
G36*
X99228Y282797D02*
X95283D01*
Y279148D01*
X99228D01*
Y282797D01*
D02*
G37*
G36*
X135099Y280760D02*
X131701D01*
Y278936D01*
X132874D01*
X133763Y279113D01*
X134518Y279616D01*
X135021Y280370D01*
X135099Y280760D01*
D02*
G37*
G36*
X472500Y283883D02*
X471495Y283751D01*
X470559Y283363D01*
X469754Y282746D01*
X469137Y281941D01*
X468750Y281005D01*
X468617Y280000D01*
X468750Y278995D01*
X469137Y278059D01*
X469754Y277254D01*
X470559Y276637D01*
X471495Y276250D01*
X472500Y276117D01*
X473505Y276250D01*
X474441Y276637D01*
X475246Y277254D01*
X475863Y278059D01*
X476251Y278995D01*
X476383Y280000D01*
X476251Y281005D01*
X475863Y281941D01*
X475246Y282746D01*
X474441Y283363D01*
X473505Y283751D01*
X472500Y283883D01*
D02*
G37*
G36*
X99228Y278148D02*
X95283D01*
Y274498D01*
X99228D01*
Y278148D01*
D02*
G37*
G36*
X71181Y268684D02*
X68819D01*
X67865Y268559D01*
X66977Y268191D01*
X66214Y267605D01*
X65628Y266842D01*
X65372Y266224D01*
X17500D01*
X17032Y266130D01*
X16635Y265865D01*
X14135Y263365D01*
X13870Y262968D01*
X13777Y262500D01*
Y130000D01*
X13870Y129532D01*
X14135Y129135D01*
X18151Y125119D01*
X18548Y124854D01*
X19016Y124761D01*
X21553D01*
X21809Y124142D01*
X22395Y123379D01*
X23158Y122794D01*
X24046Y122425D01*
X25000Y122300D01*
X25954Y122425D01*
X26842Y122794D01*
X27605Y123379D01*
X28191Y124142D01*
X28559Y125031D01*
X28684Y125984D01*
X28559Y126938D01*
X28191Y127826D01*
X27605Y128589D01*
X26842Y129175D01*
X25954Y129543D01*
X25000Y129668D01*
X24046Y129543D01*
X23158Y129175D01*
X22395Y128589D01*
X21809Y127826D01*
X21553Y127208D01*
X19523D01*
X16224Y130507D01*
Y261993D01*
X18007Y263776D01*
X65372D01*
X65628Y263158D01*
X66214Y262395D01*
X66977Y261809D01*
X67865Y261441D01*
X68819Y261316D01*
X71181D01*
X72135Y261441D01*
X73023Y261809D01*
X73786Y262395D01*
X74372Y263158D01*
X74740Y264046D01*
X74865Y265000D01*
X74740Y265954D01*
X74372Y266842D01*
X73786Y267605D01*
X73023Y268191D01*
X72135Y268559D01*
X71181Y268684D01*
D02*
G37*
G36*
X447500Y274164D02*
X446341Y274011D01*
X445261Y273564D01*
X444333Y272852D01*
X443621Y271924D01*
X443174Y270844D01*
X443021Y269685D01*
X443174Y268526D01*
X443621Y267446D01*
X444333Y266518D01*
X445261Y265807D01*
X446277Y265386D01*
Y263007D01*
X444493Y261224D01*
X436846D01*
X436826Y261376D01*
X436378Y262456D01*
X435667Y263383D01*
X434739Y264095D01*
X433659Y264542D01*
X432500Y264695D01*
X431341Y264542D01*
X430261Y264095D01*
X429333Y263383D01*
X428621Y262456D01*
X428174Y261376D01*
X428021Y260216D01*
X428174Y259057D01*
X428621Y257977D01*
X429333Y257050D01*
X430261Y256338D01*
X431341Y255891D01*
X432500Y255738D01*
X433659Y255891D01*
X434739Y256338D01*
X435667Y257050D01*
X436378Y257977D01*
X436709Y258776D01*
X445000D01*
X445468Y258870D01*
X445865Y259135D01*
X448365Y261635D01*
X448630Y262032D01*
X448724Y262500D01*
Y265386D01*
X449739Y265807D01*
X450667Y266518D01*
X451378Y267446D01*
X451826Y268526D01*
X451978Y269685D01*
X451826Y270844D01*
X451378Y271924D01*
X450667Y272852D01*
X449739Y273564D01*
X448659Y274011D01*
X447500Y274164D01*
D02*
G37*
G36*
X242500Y288158D02*
X241392Y288012D01*
X240360Y287584D01*
X239474Y286904D01*
X238793Y286018D01*
X238366Y284986D01*
X238220Y283878D01*
Y281122D01*
X238366Y280014D01*
X238793Y278982D01*
X239474Y278096D01*
X240360Y277415D01*
X241277Y277036D01*
Y263007D01*
X239493Y261224D01*
X221859D01*
X221826Y261474D01*
X221378Y262554D01*
X220667Y263482D01*
X219739Y264193D01*
X218659Y264641D01*
X217500Y264793D01*
X216341Y264641D01*
X215261Y264193D01*
X214333Y263482D01*
X213621Y262554D01*
X213174Y261474D01*
X213021Y260315D01*
X213174Y259156D01*
X213621Y258076D01*
X214333Y257148D01*
X215261Y256436D01*
X216341Y255989D01*
X217500Y255837D01*
X218659Y255989D01*
X219739Y256436D01*
X220667Y257148D01*
X221378Y258076D01*
X221669Y258776D01*
X240000D01*
X240468Y258870D01*
X240865Y259135D01*
X243365Y261635D01*
X243630Y262032D01*
X243724Y262500D01*
Y277036D01*
X244640Y277415D01*
X245526Y278096D01*
X246206Y278982D01*
X246634Y280014D01*
X246780Y281122D01*
Y283878D01*
X246634Y284986D01*
X246206Y286018D01*
X245526Y286904D01*
X244640Y287584D01*
X243608Y288012D01*
X242500Y288158D01*
D02*
G37*
G36*
X497949Y264500D02*
X494300D01*
Y260555D01*
X497949D01*
Y264500D01*
D02*
G37*
G36*
X493300D02*
X489650D01*
Y260555D01*
X493300D01*
Y264500D01*
D02*
G37*
G36*
X368000Y265895D02*
Y260500D01*
X372082D01*
Y261378D01*
X371926Y262564D01*
X371469Y263669D01*
X370740Y264618D01*
X369791Y265347D01*
X368686Y265804D01*
X368000Y265895D01*
D02*
G37*
G36*
X367000D02*
X366314Y265804D01*
X365209Y265347D01*
X364260Y264618D01*
X363531Y263669D01*
X363074Y262564D01*
X362917Y261378D01*
Y260500D01*
X367000D01*
Y265895D01*
D02*
G37*
G36*
X192228Y266132D02*
X191274Y266006D01*
X190386Y265638D01*
X189623Y265053D01*
X189037Y264290D01*
X188669Y263401D01*
X188544Y262448D01*
X188669Y261494D01*
X189037Y260605D01*
X189623Y259842D01*
X190386Y259257D01*
X191274Y258889D01*
X192228Y258763D01*
X193182Y258889D01*
X194070Y259257D01*
X194833Y259842D01*
X195419Y260605D01*
X195787Y261494D01*
X195912Y262448D01*
X195787Y263401D01*
X195419Y264290D01*
X194833Y265053D01*
X194070Y265638D01*
X193182Y266006D01*
X192228Y266132D01*
D02*
G37*
G36*
X172228D02*
X171274Y266006D01*
X170386Y265638D01*
X169623Y265053D01*
X169037Y264290D01*
X168781Y263671D01*
X156874D01*
X156405Y263578D01*
X156009Y263313D01*
X152871Y260175D01*
X144146D01*
Y249720D01*
X154601D01*
Y258445D01*
X157380Y261224D01*
X168781D01*
X169037Y260605D01*
X169623Y259842D01*
X170386Y259257D01*
X171274Y258889D01*
X172228Y258763D01*
X173182Y258889D01*
X174070Y259257D01*
X174833Y259842D01*
X175419Y260605D01*
X175787Y261494D01*
X175912Y262448D01*
X175787Y263401D01*
X175419Y264290D01*
X174833Y265053D01*
X174070Y265638D01*
X173182Y266006D01*
X172228Y266132D01*
D02*
G37*
G36*
X280028Y259429D02*
Y256405D01*
X283051D01*
X282995Y256835D01*
X282636Y257700D01*
X282066Y258444D01*
X281322Y259014D01*
X280457Y259373D01*
X280028Y259429D01*
D02*
G37*
G36*
X279028D02*
X278598Y259373D01*
X277733Y259014D01*
X276989Y258444D01*
X276419Y257700D01*
X276060Y256835D01*
X276004Y256405D01*
X279028D01*
Y259429D01*
D02*
G37*
G36*
X105350Y259445D02*
X101700D01*
Y255500D01*
X105350D01*
Y259445D01*
D02*
G37*
G36*
X100700D02*
X97050D01*
Y255500D01*
X100700D01*
Y259445D01*
D02*
G37*
G36*
X71181Y258987D02*
X70500D01*
Y255500D01*
X75102D01*
X75032Y256032D01*
X74634Y256993D01*
X74000Y257819D01*
X73175Y258453D01*
X72213Y258851D01*
X71181Y258987D01*
D02*
G37*
G36*
X69500D02*
X68819D01*
X67787Y258851D01*
X66825Y258453D01*
X66000Y257819D01*
X65366Y256993D01*
X64968Y256032D01*
X64898Y255500D01*
X69500D01*
Y258987D01*
D02*
G37*
G36*
X283051Y255405D02*
X280028D01*
Y252382D01*
X280457Y252438D01*
X281322Y252797D01*
X282066Y253367D01*
X282636Y254111D01*
X282995Y254976D01*
X283051Y255405D01*
D02*
G37*
G36*
X279028D02*
X276004D01*
X276060Y254976D01*
X276419Y254111D01*
X276989Y253367D01*
X277733Y252797D01*
X278598Y252438D01*
X279028Y252382D01*
Y255405D01*
D02*
G37*
G36*
X75102Y254500D02*
X70500D01*
Y251013D01*
X71181D01*
X72213Y251149D01*
X73175Y251547D01*
X74000Y252181D01*
X74634Y253007D01*
X75032Y253968D01*
X75102Y254500D01*
D02*
G37*
G36*
X69500D02*
X64898D01*
X64968Y253968D01*
X65366Y253007D01*
X66000Y252181D01*
X66825Y251547D01*
X67787Y251149D01*
X68819Y251013D01*
X69500D01*
Y254500D01*
D02*
G37*
G36*
X105350Y254500D02*
X101700D01*
Y250555D01*
X105350D01*
Y254500D01*
D02*
G37*
G36*
X100700D02*
X97050D01*
Y250555D01*
X100700D01*
Y254500D01*
D02*
G37*
G36*
X613000Y254517D02*
Y250500D01*
X617017D01*
X616926Y251186D01*
X616469Y252291D01*
X615740Y253240D01*
X614791Y253969D01*
X613686Y254426D01*
X613000Y254517D01*
D02*
G37*
G36*
X612000D02*
X611314Y254426D01*
X610209Y253969D01*
X609260Y253240D01*
X608531Y252291D01*
X608074Y251186D01*
X607983Y250500D01*
X612000D01*
Y254517D01*
D02*
G37*
G36*
X266743Y288121D02*
X258257D01*
Y276879D01*
X261277D01*
Y248724D01*
X247137D01*
Y249523D01*
X245114Y251547D01*
X239886D01*
X237863Y249523D01*
Y245477D01*
X239886Y243454D01*
X245114D01*
X247137Y245477D01*
Y246276D01*
X286993D01*
X288776Y244493D01*
Y226484D01*
X287761Y226063D01*
X286833Y225352D01*
X286122Y224424D01*
X285674Y223344D01*
X285522Y222185D01*
X285674Y221026D01*
X286122Y219946D01*
X286833Y219018D01*
X287761Y218307D01*
X288841Y217859D01*
X290000Y217707D01*
X291159Y217859D01*
X292239Y218307D01*
X293167Y219018D01*
X293879Y219946D01*
X294326Y221026D01*
X294479Y222185D01*
X294326Y223344D01*
X293879Y224424D01*
X293167Y225352D01*
X292239Y226063D01*
X291224Y226484D01*
Y245000D01*
X291130Y245468D01*
X290865Y245865D01*
X288365Y248365D01*
X287968Y248630D01*
X287500Y248724D01*
X263723D01*
Y276879D01*
X266743D01*
Y288121D01*
D02*
G37*
G36*
X559685Y364478D02*
X558526Y364326D01*
X557446Y363878D01*
X556518Y363167D01*
X555807Y362239D01*
X555359Y361159D01*
X555207Y360000D01*
X555359Y358841D01*
X555807Y357761D01*
X556518Y356833D01*
X557446Y356121D01*
X558526Y355674D01*
X559685Y355521D01*
X560844Y355674D01*
X561924Y356121D01*
X562852Y356833D01*
X563563Y357761D01*
X563984Y358776D01*
X579493D01*
X581277Y356993D01*
Y254243D01*
X578257D01*
Y245757D01*
X586743D01*
Y254243D01*
X583723D01*
Y357500D01*
X583630Y357968D01*
X583365Y358365D01*
X580865Y360865D01*
X580468Y361130D01*
X580000Y361224D01*
X563984D01*
X563563Y362239D01*
X562852Y363167D01*
X561924Y363878D01*
X560844Y364326D01*
X559685Y364478D01*
D02*
G37*
G36*
X617017Y249500D02*
X613000D01*
Y245483D01*
X613686Y245574D01*
X614791Y246031D01*
X615740Y246760D01*
X616469Y247709D01*
X616926Y248814D01*
X617017Y249500D01*
D02*
G37*
G36*
X612000D02*
X607983D01*
X608074Y248814D01*
X608531Y247709D01*
X609260Y246760D01*
X610209Y246031D01*
X611314Y245574D01*
X612000Y245483D01*
Y249500D01*
D02*
G37*
G36*
X613000Y244517D02*
Y240500D01*
X617017D01*
X616926Y241186D01*
X616469Y242291D01*
X615740Y243240D01*
X614791Y243969D01*
X613686Y244426D01*
X613000Y244517D01*
D02*
G37*
G36*
X612000D02*
X611314Y244426D01*
X610209Y243969D01*
X609260Y243240D01*
X608531Y242291D01*
X608074Y241186D01*
X607983Y240500D01*
X612000D01*
Y244517D01*
D02*
G37*
G36*
X617017Y239500D02*
X613000D01*
Y235483D01*
X613686Y235574D01*
X614791Y236031D01*
X615740Y236760D01*
X616469Y237709D01*
X616926Y238814D01*
X617017Y239500D01*
D02*
G37*
G36*
X612000D02*
X607983D01*
X608074Y238814D01*
X608531Y237709D01*
X609260Y236760D01*
X610209Y236031D01*
X611314Y235574D01*
X612000Y235483D01*
Y239500D01*
D02*
G37*
G36*
X613000Y234517D02*
Y230500D01*
X617017D01*
X616926Y231186D01*
X616469Y232291D01*
X615740Y233240D01*
X614791Y233969D01*
X613686Y234426D01*
X613000Y234517D01*
D02*
G37*
G36*
X612000D02*
X611314Y234426D01*
X610209Y233969D01*
X609260Y233240D01*
X608531Y232291D01*
X608074Y231186D01*
X607983Y230500D01*
X612000D01*
Y234517D01*
D02*
G37*
G36*
X192500Y233684D02*
X191546Y233559D01*
X190658Y233191D01*
X189895Y232605D01*
X189309Y231842D01*
X188941Y230954D01*
X188816Y230000D01*
X188941Y229046D01*
X189309Y228158D01*
X189895Y227395D01*
X190658Y226809D01*
X191546Y226441D01*
X192500Y226316D01*
X193454Y226441D01*
X194342Y226809D01*
X195105Y227395D01*
X195691Y228158D01*
X196059Y229046D01*
X196184Y230000D01*
X196059Y230954D01*
X195691Y231842D01*
X195105Y232605D01*
X194342Y233191D01*
X193454Y233559D01*
X192500Y233684D01*
D02*
G37*
G36*
X154601Y242675D02*
X144146D01*
Y232220D01*
X152871D01*
X155956Y229135D01*
X156353Y228870D01*
X156821Y228777D01*
X169053D01*
X169309Y228158D01*
X169895Y227395D01*
X170658Y226809D01*
X171546Y226441D01*
X172500Y226316D01*
X173454Y226441D01*
X174342Y226809D01*
X175105Y227395D01*
X175691Y228158D01*
X176059Y229046D01*
X176184Y230000D01*
X176059Y230954D01*
X175691Y231842D01*
X175105Y232605D01*
X174342Y233191D01*
X173454Y233559D01*
X172500Y233684D01*
X171546Y233559D01*
X170658Y233191D01*
X169895Y232605D01*
X169309Y231842D01*
X169053Y231224D01*
X157328D01*
X154601Y233950D01*
Y242675D01*
D02*
G37*
G36*
X432500Y244065D02*
X431341Y243913D01*
X430261Y243465D01*
X429333Y242753D01*
X428621Y241826D01*
X428174Y240746D01*
X428021Y239587D01*
X428174Y238427D01*
X428621Y237347D01*
X429333Y236420D01*
X430261Y235708D01*
X431341Y235261D01*
X432500Y235108D01*
X433659Y235261D01*
X434739Y235708D01*
X435667Y236420D01*
X436378Y237347D01*
X436826Y238427D01*
X436872Y238776D01*
X444493D01*
X446277Y236993D01*
Y234614D01*
X445261Y234193D01*
X444333Y233482D01*
X443621Y232554D01*
X443174Y231474D01*
X443021Y230315D01*
X443174Y229156D01*
X443621Y228076D01*
X444333Y227148D01*
X445261Y226436D01*
X446341Y225989D01*
X447500Y225836D01*
X448659Y225989D01*
X449739Y226436D01*
X450667Y227148D01*
X451378Y228076D01*
X451826Y229156D01*
X451978Y230315D01*
X451826Y231474D01*
X451378Y232554D01*
X450667Y233482D01*
X449739Y234193D01*
X448724Y234614D01*
Y237500D01*
X448630Y237968D01*
X448365Y238365D01*
X445865Y240865D01*
X445468Y241130D01*
X445000Y241224D01*
X436628D01*
X436378Y241826D01*
X435667Y242753D01*
X434739Y243465D01*
X433659Y243913D01*
X432500Y244065D01*
D02*
G37*
G36*
X520315Y234478D02*
X519156Y234326D01*
X518076Y233878D01*
X517148Y233167D01*
X516436Y232239D01*
X515989Y231159D01*
X515836Y230000D01*
X515989Y228841D01*
X516436Y227761D01*
X517148Y226833D01*
X518076Y226121D01*
X519156Y225674D01*
X520315Y225521D01*
X521474Y225674D01*
X522554Y226121D01*
X523482Y226833D01*
X524193Y227761D01*
X524641Y228841D01*
X524793Y230000D01*
X524641Y231159D01*
X524193Y232239D01*
X523482Y233167D01*
X522554Y233878D01*
X521474Y234326D01*
X520315Y234478D01*
D02*
G37*
G36*
X617017Y229500D02*
X613000D01*
Y225483D01*
X613686Y225574D01*
X614791Y226031D01*
X615740Y226760D01*
X616469Y227709D01*
X616926Y228814D01*
X617017Y229500D01*
D02*
G37*
G36*
X612000D02*
X607983D01*
X608074Y228814D01*
X608531Y227709D01*
X609260Y226760D01*
X610209Y226031D01*
X611314Y225574D01*
X612000Y225483D01*
Y229500D01*
D02*
G37*
G36*
X320000Y240787D02*
X319149Y240675D01*
X318356Y240347D01*
X317676Y239824D01*
X317153Y239144D01*
X316825Y238351D01*
X316713Y237500D01*
X316825Y236649D01*
X317153Y235856D01*
X317676Y235176D01*
X318267Y234722D01*
Y225278D01*
X317676Y224824D01*
X317153Y224144D01*
X316825Y223351D01*
X316800Y223162D01*
X316296D01*
X316250Y223505D01*
X315863Y224441D01*
X315246Y225246D01*
X314441Y225863D01*
X313505Y226251D01*
X312500Y226383D01*
X311495Y226251D01*
X310559Y225863D01*
X309754Y225246D01*
X309137Y224441D01*
X308750Y223505D01*
X308617Y222500D01*
X308750Y221495D01*
X309137Y220559D01*
X309754Y219754D01*
X310559Y219137D01*
X311495Y218749D01*
X312500Y218617D01*
X313505Y218749D01*
X314441Y219137D01*
X315246Y219754D01*
X315863Y220559D01*
X316250Y221495D01*
X316296Y221838D01*
X316800D01*
X316825Y221649D01*
X317153Y220856D01*
X317676Y220176D01*
X318356Y219653D01*
X319149Y219325D01*
X320000Y219213D01*
X320851Y219325D01*
X321644Y219653D01*
X322324Y220176D01*
X322847Y220856D01*
X323175Y221649D01*
X323287Y222500D01*
X323175Y223351D01*
X322847Y224144D01*
X322324Y224824D01*
X321733Y225278D01*
Y234722D01*
X322324Y235176D01*
X322847Y235856D01*
X323175Y236649D01*
X323287Y237500D01*
X323175Y238351D01*
X322847Y239144D01*
X322324Y239824D01*
X321644Y240347D01*
X320851Y240675D01*
X320000Y240787D01*
D02*
G37*
G36*
X613000Y224517D02*
Y220500D01*
X617017D01*
X616926Y221186D01*
X616469Y222291D01*
X615740Y223240D01*
X614791Y223969D01*
X613686Y224426D01*
X613000Y224517D01*
D02*
G37*
G36*
X612000D02*
X611314Y224426D01*
X610209Y223969D01*
X609260Y223240D01*
X608531Y222291D01*
X608074Y221186D01*
X607983Y220500D01*
X612000D01*
Y224517D01*
D02*
G37*
G36*
X342500Y226383D02*
X341495Y226251D01*
X340559Y225863D01*
X339754Y225246D01*
X339137Y224441D01*
X339051Y224233D01*
X337500D01*
X336837Y224101D01*
X336274Y223726D01*
X332574Y220025D01*
X332198Y219462D01*
X332066Y218799D01*
Y151645D01*
X329950D01*
Y143355D01*
X332066D01*
Y105523D01*
X329753D01*
Y101957D01*
X337058D01*
Y105523D01*
X335532D01*
Y143355D01*
X337649D01*
Y151645D01*
X335532D01*
Y218081D01*
X338218Y220767D01*
X339051D01*
X339137Y220559D01*
X339754Y219754D01*
X340559Y219137D01*
X341495Y218749D01*
X342500Y218617D01*
X343505Y218749D01*
X344441Y219137D01*
X345246Y219754D01*
X345863Y220559D01*
X346251Y221495D01*
X346383Y222500D01*
X346251Y223505D01*
X345863Y224441D01*
X345246Y225246D01*
X344441Y225863D01*
X343505Y226251D01*
X342500Y226383D01*
D02*
G37*
G36*
X290315Y276978D02*
X289156Y276826D01*
X288076Y276378D01*
X287148Y275667D01*
X286437Y274739D01*
X285989Y273659D01*
X285837Y272500D01*
X285989Y271341D01*
X286437Y270261D01*
X287148Y269333D01*
X288076Y268621D01*
X288776Y268331D01*
Y255000D01*
X288870Y254532D01*
X289135Y254135D01*
X291635Y251635D01*
X292032Y251370D01*
X292500Y251276D01*
X306463D01*
X306654Y250815D01*
X305363Y249523D01*
Y245477D01*
X307386Y243454D01*
X312614D01*
X314637Y245477D01*
Y246276D01*
X363776D01*
Y226799D01*
X362761Y226378D01*
X361833Y225667D01*
X361122Y224739D01*
X360674Y223659D01*
X360522Y222500D01*
X360674Y221341D01*
X361122Y220261D01*
X361833Y219333D01*
X362761Y218621D01*
X363841Y218174D01*
X365000Y218021D01*
X366159Y218174D01*
X367239Y218621D01*
X368167Y219333D01*
X368879Y220261D01*
X369326Y221341D01*
X369479Y222500D01*
X369326Y223659D01*
X368879Y224739D01*
X368167Y225667D01*
X367239Y226378D01*
X366224Y226799D01*
Y246276D01*
X385000D01*
X385468Y246370D01*
X385865Y246635D01*
X388365Y249135D01*
X388630Y249532D01*
X388723Y250000D01*
Y254379D01*
X391743D01*
Y265621D01*
X383257D01*
Y254379D01*
X386277D01*
Y250507D01*
X384493Y248724D01*
X314637D01*
Y249523D01*
X313346Y250815D01*
X313537Y251276D01*
X375000D01*
X375468Y251370D01*
X375865Y251635D01*
X378365Y254135D01*
X378601Y254487D01*
X378608Y254488D01*
X379640Y254915D01*
X380526Y255596D01*
X381206Y256482D01*
X381634Y257514D01*
X381780Y258622D01*
Y261378D01*
X381634Y262486D01*
X381206Y263518D01*
X380526Y264404D01*
X379640Y265085D01*
X378608Y265512D01*
X377500Y265658D01*
X376392Y265512D01*
X375360Y265085D01*
X374474Y264404D01*
X373794Y263518D01*
X373366Y262486D01*
X373220Y261378D01*
Y258622D01*
X373366Y257514D01*
X373794Y256482D01*
X374474Y255596D01*
X375144Y255081D01*
X375239Y254470D01*
X374493Y253724D01*
X368792D01*
X368686Y254196D01*
X369791Y254654D01*
X370740Y255382D01*
X371469Y256331D01*
X371926Y257436D01*
X372082Y258622D01*
Y259500D01*
X367500D01*
X362917D01*
Y258622D01*
X363074Y257436D01*
X363531Y256331D01*
X364260Y255382D01*
X365209Y254654D01*
X366314Y254196D01*
X366208Y253724D01*
X293007D01*
X291224Y255507D01*
Y268141D01*
X291474Y268174D01*
X292554Y268621D01*
X293482Y269333D01*
X294193Y270261D01*
X294641Y271341D01*
X294793Y272500D01*
X294641Y273659D01*
X294193Y274739D01*
X293482Y275667D01*
X292554Y276378D01*
X291474Y276826D01*
X290315Y276978D01*
D02*
G37*
G36*
X262500Y226978D02*
X261341Y226826D01*
X260261Y226378D01*
X259333Y225667D01*
X258622Y224739D01*
X258412Y224233D01*
X215000D01*
X214337Y224101D01*
X213774Y223726D01*
X211274Y221226D01*
X210899Y220663D01*
X210767Y220000D01*
Y178449D01*
X210559Y178363D01*
X209754Y177746D01*
X209137Y176941D01*
X208750Y176005D01*
X208617Y175000D01*
X208750Y173995D01*
X209137Y173059D01*
X209754Y172254D01*
X210559Y171637D01*
X211495Y171249D01*
X212500Y171117D01*
X213505Y171249D01*
X214441Y171637D01*
X215246Y172254D01*
X215863Y173059D01*
X215949Y173267D01*
X259282D01*
X260767Y171782D01*
Y161783D01*
X258847D01*
Y158217D01*
X266153D01*
Y161783D01*
X264233D01*
Y172500D01*
X264101Y173163D01*
X263726Y173726D01*
X261226Y176226D01*
X260663Y176601D01*
X260000Y176733D01*
X215949D01*
X215863Y176941D01*
X215246Y177746D01*
X214441Y178363D01*
X214233Y178449D01*
Y219282D01*
X215718Y220767D01*
X258412D01*
X258622Y220261D01*
X259333Y219333D01*
X260261Y218621D01*
X261341Y218174D01*
X262500Y218021D01*
X263659Y218174D01*
X264739Y218621D01*
X265667Y219333D01*
X266378Y220261D01*
X266826Y221341D01*
X266979Y222500D01*
X266826Y223659D01*
X266378Y224739D01*
X265667Y225667D01*
X264739Y226378D01*
X263659Y226826D01*
X262500Y226978D01*
D02*
G37*
G36*
X502500Y223883D02*
X501495Y223750D01*
X500559Y223363D01*
X499754Y222746D01*
X499137Y221941D01*
X498749Y221005D01*
X498617Y220000D01*
X498749Y218995D01*
X499137Y218059D01*
X499754Y217254D01*
X500559Y216637D01*
X501495Y216249D01*
X502500Y216117D01*
X503505Y216249D01*
X504441Y216637D01*
X505246Y217254D01*
X505863Y218059D01*
X506250Y218995D01*
X506383Y220000D01*
X506250Y221005D01*
X505863Y221941D01*
X505246Y222746D01*
X504441Y223363D01*
X503505Y223750D01*
X502500Y223883D01*
D02*
G37*
G36*
X472500D02*
X471495Y223750D01*
X470559Y223363D01*
X469754Y222746D01*
X469137Y221941D01*
X468750Y221005D01*
X468617Y220000D01*
X468750Y218995D01*
X469137Y218059D01*
X469754Y217254D01*
X470559Y216637D01*
X471495Y216249D01*
X472500Y216117D01*
X473505Y216249D01*
X474441Y216637D01*
X475246Y217254D01*
X475863Y218059D01*
X476251Y218995D01*
X476383Y220000D01*
X476251Y221005D01*
X475863Y221941D01*
X475246Y222746D01*
X474441Y223363D01*
X473505Y223750D01*
X472500Y223883D01*
D02*
G37*
G36*
X617017Y219500D02*
X613000D01*
Y215483D01*
X613686Y215574D01*
X614791Y216031D01*
X615740Y216760D01*
X616469Y217709D01*
X616926Y218814D01*
X617017Y219500D01*
D02*
G37*
G36*
X612000D02*
X607983D01*
X608074Y218814D01*
X608531Y217709D01*
X609260Y216760D01*
X610209Y216031D01*
X611314Y215574D01*
X612000Y215483D01*
Y219500D01*
D02*
G37*
G36*
X613000Y214517D02*
Y210500D01*
X617017D01*
X616926Y211186D01*
X616469Y212291D01*
X615740Y213240D01*
X614791Y213969D01*
X613686Y214426D01*
X613000Y214517D01*
D02*
G37*
G36*
X612000D02*
X611314Y214426D01*
X610209Y213969D01*
X609260Y213240D01*
X608531Y212291D01*
X608074Y211186D01*
X607983Y210500D01*
X612000D01*
Y214517D01*
D02*
G37*
G36*
X161917Y212185D02*
Y209161D01*
X164941D01*
X164885Y209591D01*
X164526Y210456D01*
X163956Y211200D01*
X163212Y211770D01*
X162346Y212129D01*
X161917Y212185D01*
D02*
G37*
G36*
X160917D02*
X160488Y212129D01*
X159622Y211770D01*
X158879Y211200D01*
X158308Y210456D01*
X157950Y209591D01*
X157893Y209161D01*
X160917D01*
Y212185D01*
D02*
G37*
G36*
X312500Y216383D02*
X311495Y216250D01*
X310559Y215863D01*
X309754Y215246D01*
X309137Y214441D01*
X308840Y213723D01*
X291870D01*
X291402Y213630D01*
X291005Y213365D01*
X264675Y187035D01*
X263659Y187456D01*
X262500Y187608D01*
X261341Y187456D01*
X260261Y187008D01*
X259333Y186297D01*
X258622Y185369D01*
X258174Y184289D01*
X258021Y183130D01*
X258174Y181971D01*
X258622Y180891D01*
X259333Y179963D01*
X260261Y179252D01*
X261341Y178804D01*
X262500Y178651D01*
X263659Y178804D01*
X264739Y179252D01*
X265667Y179963D01*
X266378Y180891D01*
X266826Y181971D01*
X266979Y183130D01*
X266826Y184289D01*
X266405Y185305D01*
X292377Y211277D01*
X308840D01*
X309137Y210559D01*
X309754Y209754D01*
X310559Y209137D01*
X311495Y208750D01*
X312500Y208617D01*
X313505Y208750D01*
X314441Y209137D01*
X315246Y209754D01*
X315863Y210559D01*
X316250Y211495D01*
X316383Y212500D01*
X316250Y213505D01*
X315863Y214441D01*
X315246Y215246D01*
X314441Y215863D01*
X313505Y216250D01*
X312500Y216383D01*
D02*
G37*
G36*
X502500Y213883D02*
X501495Y213751D01*
X500559Y213363D01*
X499754Y212746D01*
X499137Y211941D01*
X498749Y211005D01*
X498617Y210000D01*
X498749Y208995D01*
X499137Y208059D01*
X499754Y207254D01*
X500559Y206637D01*
X501495Y206249D01*
X502500Y206117D01*
X503505Y206249D01*
X504441Y206637D01*
X505246Y207254D01*
X505863Y208059D01*
X506250Y208995D01*
X506383Y210000D01*
X506250Y211005D01*
X505863Y211941D01*
X505246Y212746D01*
X504441Y213363D01*
X503505Y213751D01*
X502500Y213883D01*
D02*
G37*
G36*
X447500Y214163D02*
X446341Y214011D01*
X445261Y213563D01*
X444333Y212852D01*
X443621Y211924D01*
X443174Y210844D01*
X443021Y209685D01*
X443174Y208526D01*
X443621Y207446D01*
X444333Y206518D01*
X445261Y205807D01*
X446277Y205386D01*
Y203007D01*
X444493Y201223D01*
X436846D01*
X436826Y201376D01*
X436378Y202456D01*
X435667Y203383D01*
X434739Y204095D01*
X433659Y204542D01*
X432500Y204695D01*
X431341Y204542D01*
X430261Y204095D01*
X429333Y203383D01*
X428621Y202456D01*
X428174Y201376D01*
X428021Y200217D01*
X428174Y199057D01*
X428621Y197977D01*
X429333Y197050D01*
X430261Y196338D01*
X431341Y195891D01*
X432500Y195738D01*
X433659Y195891D01*
X434739Y196338D01*
X435667Y197050D01*
X436378Y197977D01*
X436709Y198776D01*
X445000D01*
X445468Y198870D01*
X445865Y199135D01*
X448365Y201635D01*
X448630Y202032D01*
X448724Y202500D01*
Y205386D01*
X449739Y205807D01*
X450667Y206518D01*
X451378Y207446D01*
X451826Y208526D01*
X451838Y208619D01*
X468905D01*
X469137Y208059D01*
X469754Y207254D01*
X470559Y206637D01*
X471495Y206249D01*
X472500Y206117D01*
X473505Y206249D01*
X474441Y206637D01*
X475246Y207254D01*
X475863Y208059D01*
X476251Y208995D01*
X476383Y210000D01*
X476251Y211005D01*
X475863Y211941D01*
X475246Y212746D01*
X474441Y213363D01*
X473505Y213751D01*
X472500Y213883D01*
X471495Y213751D01*
X470559Y213363D01*
X469754Y212746D01*
X469137Y211941D01*
X468775Y211066D01*
X451734D01*
X451378Y211924D01*
X450667Y212852D01*
X449739Y213563D01*
X448659Y214011D01*
X447500Y214163D01*
D02*
G37*
G36*
X617017Y209500D02*
X613000D01*
Y205483D01*
X613686Y205574D01*
X614791Y206031D01*
X615740Y206760D01*
X616469Y207709D01*
X616926Y208814D01*
X617017Y209500D01*
D02*
G37*
G36*
X612000D02*
X607983D01*
X608074Y208814D01*
X608531Y207709D01*
X609260Y206760D01*
X610209Y206031D01*
X611314Y205574D01*
X612000Y205483D01*
Y209500D01*
D02*
G37*
G36*
X164941Y208161D02*
X161917D01*
Y205137D01*
X162346Y205194D01*
X163212Y205553D01*
X163956Y206123D01*
X164526Y206867D01*
X164885Y207732D01*
X164941Y208161D01*
D02*
G37*
G36*
X160917D02*
X157893D01*
X157950Y207732D01*
X158308Y206867D01*
X158879Y206123D01*
X159622Y205553D01*
X160488Y205194D01*
X160917Y205137D01*
Y208161D01*
D02*
G37*
G36*
X232784Y204311D02*
Y201287D01*
X235807D01*
X235751Y201716D01*
X235392Y202582D01*
X234822Y203326D01*
X234078Y203896D01*
X233213Y204255D01*
X232784Y204311D01*
D02*
G37*
G36*
X231784D02*
X231354Y204255D01*
X230489Y203896D01*
X229745Y203326D01*
X229175Y202582D01*
X228816Y201716D01*
X228760Y201287D01*
X231784D01*
Y204311D01*
D02*
G37*
G36*
X613000Y204517D02*
Y200500D01*
X617017D01*
X616926Y201186D01*
X616469Y202291D01*
X615740Y203240D01*
X614791Y203969D01*
X613686Y204426D01*
X613000Y204517D01*
D02*
G37*
G36*
X612000D02*
X611314Y204426D01*
X610209Y203969D01*
X609260Y203240D01*
X608531Y202291D01*
X608074Y201186D01*
X607983Y200500D01*
X612000D01*
Y204517D01*
D02*
G37*
G36*
X302500Y205787D02*
X301649Y205675D01*
X300856Y205347D01*
X300176Y204824D01*
X299653Y204144D01*
X299325Y203351D01*
X299213Y202500D01*
X299325Y201649D01*
X299499Y201229D01*
X279135Y180865D01*
X278870Y180468D01*
X278777Y180000D01*
Y155507D01*
X276993Y153724D01*
X266153D01*
Y154302D01*
X258847D01*
Y150737D01*
X266153D01*
Y151277D01*
X277500D01*
X277968Y151370D01*
X278365Y151635D01*
X280865Y154135D01*
X281130Y154532D01*
X281224Y155000D01*
Y179493D01*
X285120Y183389D01*
X285568Y183168D01*
X285522Y182815D01*
X285674Y181656D01*
X286122Y180576D01*
X286833Y179648D01*
X287761Y178937D01*
X288776Y178516D01*
Y136350D01*
X285855D01*
Y133723D01*
X245507D01*
X243724Y135507D01*
Y154493D01*
X244267Y155036D01*
X246577D01*
X246736Y154602D01*
X246736D01*
Y153020D01*
X250689D01*
X254642D01*
Y154602D01*
X254342D01*
Y157717D01*
X254342Y158043D01*
X254342Y158543D01*
Y161783D01*
X247036D01*
Y158543D01*
X247036Y158217D01*
X247036Y157837D01*
X246683Y157483D01*
X243760D01*
X243292Y157390D01*
X242895Y157125D01*
X241635Y155865D01*
X241370Y155468D01*
X241277Y155000D01*
Y135000D01*
X241370Y134532D01*
X241635Y134135D01*
X244135Y131635D01*
X244532Y131370D01*
X245000Y131277D01*
X285855D01*
Y128650D01*
X294145D01*
Y136350D01*
X291224D01*
Y178516D01*
X292239Y178937D01*
X293167Y179648D01*
X293879Y180576D01*
X294326Y181656D01*
X294479Y182815D01*
X294326Y183974D01*
X293879Y185054D01*
X293167Y185982D01*
X292239Y186693D01*
X291159Y187141D01*
X290000Y187293D01*
X289647Y187247D01*
X289426Y187695D01*
X301229Y199499D01*
X301649Y199325D01*
X302500Y199213D01*
X303351Y199325D01*
X304144Y199653D01*
X304824Y200176D01*
X305347Y200856D01*
X305675Y201649D01*
X305787Y202500D01*
X305675Y203351D01*
X305347Y204144D01*
X304824Y204824D01*
X304144Y205347D01*
X303351Y205675D01*
X302500Y205787D01*
D02*
G37*
G36*
X312500Y206383D02*
X311495Y206251D01*
X310559Y205863D01*
X309754Y205246D01*
X309137Y204441D01*
X308750Y203505D01*
X308617Y202500D01*
X308750Y201495D01*
X309047Y200777D01*
X306635Y198365D01*
X306370Y197968D01*
X306276Y197500D01*
Y101224D01*
X40507D01*
X38723Y103007D01*
Y130000D01*
X38630Y130468D01*
X38365Y130865D01*
X34507Y134723D01*
X34110Y134989D01*
X33642Y135082D01*
X28447D01*
X28191Y135700D01*
X27605Y136463D01*
X26842Y137049D01*
X25954Y137417D01*
X25000Y137542D01*
X24046Y137417D01*
X23158Y137049D01*
X22395Y136463D01*
X21809Y135700D01*
X21441Y134812D01*
X21316Y133858D01*
X21441Y132905D01*
X21809Y132016D01*
X22395Y131253D01*
X23158Y130668D01*
X24046Y130299D01*
X25000Y130174D01*
X25954Y130299D01*
X26842Y130668D01*
X27605Y131253D01*
X28191Y132016D01*
X28447Y132635D01*
X33135D01*
X36277Y129493D01*
Y102500D01*
X36370Y102032D01*
X36635Y101635D01*
X39135Y99135D01*
X39532Y98870D01*
X40000Y98777D01*
X317482D01*
X317642Y98343D01*
X317642D01*
Y96760D01*
X321595D01*
X325547D01*
Y98343D01*
X325247D01*
Y101458D01*
X325247Y101783D01*
X325247Y102283D01*
Y105523D01*
X317942D01*
Y102283D01*
X317942Y101957D01*
X317942Y101577D01*
X317588Y101224D01*
X308723D01*
Y159784D01*
X309224Y159953D01*
X309541Y159540D01*
X310407Y158875D01*
X311417Y158457D01*
X312000Y158380D01*
Y162500D01*
Y166620D01*
X311417Y166543D01*
X310407Y166125D01*
X309541Y165460D01*
X309224Y165047D01*
X308723Y165216D01*
Y170318D01*
X309224Y170446D01*
X309754Y169754D01*
X310559Y169137D01*
X311495Y168749D01*
X312500Y168617D01*
X313505Y168749D01*
X314441Y169137D01*
X315246Y169754D01*
X315863Y170559D01*
X316250Y171495D01*
X316383Y172500D01*
X316250Y173505D01*
X315863Y174441D01*
X315246Y175246D01*
X314441Y175863D01*
X313505Y176251D01*
X312500Y176383D01*
X311495Y176251D01*
X310559Y175863D01*
X309754Y175246D01*
X309224Y174554D01*
X308723Y174682D01*
Y180318D01*
X309224Y180446D01*
X309754Y179754D01*
X310559Y179137D01*
X311495Y178750D01*
X312500Y178617D01*
X313505Y178750D01*
X314441Y179137D01*
X315246Y179754D01*
X315863Y180559D01*
X316250Y181495D01*
X316383Y182500D01*
X316250Y183505D01*
X315863Y184441D01*
X315246Y185246D01*
X314441Y185863D01*
X313505Y186250D01*
X312500Y186383D01*
X311495Y186250D01*
X310559Y185863D01*
X309754Y185246D01*
X309224Y184554D01*
X308723Y184682D01*
Y190318D01*
X309224Y190446D01*
X309754Y189754D01*
X310559Y189137D01*
X311495Y188750D01*
X312500Y188617D01*
X313505Y188750D01*
X314441Y189137D01*
X315246Y189754D01*
X315863Y190559D01*
X316250Y191495D01*
X316383Y192500D01*
X316250Y193505D01*
X315863Y194441D01*
X315246Y195246D01*
X314441Y195863D01*
X313505Y196250D01*
X312500Y196383D01*
X311495Y196250D01*
X310559Y195863D01*
X309754Y195246D01*
X309224Y194554D01*
X308723Y194682D01*
Y196993D01*
X310777Y199047D01*
X311495Y198749D01*
X312500Y198617D01*
X313505Y198749D01*
X314441Y199137D01*
X315246Y199754D01*
X315863Y200559D01*
X316250Y201495D01*
X316383Y202500D01*
X316250Y203505D01*
X315863Y204441D01*
X315246Y205246D01*
X314441Y205863D01*
X313505Y206251D01*
X312500Y206383D01*
D02*
G37*
G36*
X235807Y200287D02*
X232784D01*
Y197264D01*
X233213Y197320D01*
X234078Y197679D01*
X234822Y198249D01*
X235392Y198993D01*
X235751Y199858D01*
X235807Y200287D01*
D02*
G37*
G36*
X231784D02*
X228760D01*
X228816Y199858D01*
X229175Y198993D01*
X229745Y198249D01*
X230489Y197679D01*
X231354Y197320D01*
X231784Y197264D01*
Y200287D01*
D02*
G37*
G36*
X472500Y203883D02*
X471495Y203750D01*
X470559Y203363D01*
X469754Y202746D01*
X469137Y201941D01*
X468840Y201223D01*
X467500D01*
X467032Y201130D01*
X466635Y200865D01*
X464135Y198365D01*
X463870Y197968D01*
X463776Y197500D01*
Y182500D01*
X463870Y182032D01*
X464135Y181635D01*
X466635Y179135D01*
X467032Y178870D01*
X467500Y178777D01*
X468840D01*
X469137Y178059D01*
X469754Y177254D01*
X470559Y176637D01*
X471495Y176250D01*
X472500Y176117D01*
X473505Y176250D01*
X474441Y176637D01*
X475246Y177254D01*
X475863Y178059D01*
X476251Y178995D01*
X476383Y180000D01*
X476251Y181005D01*
X475863Y181941D01*
X475246Y182746D01*
X474441Y183363D01*
X473505Y183750D01*
X472500Y183883D01*
X471495Y183750D01*
X470559Y183363D01*
X469754Y182746D01*
X469137Y181941D01*
X468840Y181223D01*
X468007D01*
X466223Y183007D01*
Y196993D01*
X468007Y198776D01*
X468840D01*
X469137Y198059D01*
X469754Y197254D01*
X470559Y196637D01*
X471495Y196249D01*
X472500Y196117D01*
X473505Y196249D01*
X474441Y196637D01*
X475246Y197254D01*
X475863Y198059D01*
X476251Y198995D01*
X476383Y200000D01*
X476251Y201005D01*
X475863Y201941D01*
X475246Y202746D01*
X474441Y203363D01*
X473505Y203750D01*
X472500Y203883D01*
D02*
G37*
G36*
X559370Y204479D02*
X558211Y204326D01*
X557131Y203878D01*
X556203Y203167D01*
X555492Y202239D01*
X555044Y201159D01*
X554892Y200000D01*
X555044Y198841D01*
X555492Y197761D01*
X556203Y196833D01*
X557131Y196122D01*
X558211Y195674D01*
X559370Y195521D01*
X560529Y195674D01*
X561609Y196122D01*
X562537Y196833D01*
X563248Y197761D01*
X563669Y198776D01*
X578414D01*
X578793Y197860D01*
X579474Y196974D01*
X580360Y196293D01*
X581392Y195866D01*
X582500Y195720D01*
X583608Y195866D01*
X584640Y196293D01*
X585526Y196974D01*
X586206Y197860D01*
X586634Y198892D01*
X586780Y200000D01*
X586634Y201108D01*
X586206Y202140D01*
X585526Y203026D01*
X584640Y203707D01*
X583608Y204134D01*
X582500Y204280D01*
X581392Y204134D01*
X580360Y203707D01*
X579474Y203026D01*
X578793Y202140D01*
X578414Y201223D01*
X563669D01*
X563248Y202239D01*
X562537Y203167D01*
X561609Y203878D01*
X560529Y204326D01*
X559370Y204479D01*
D02*
G37*
G36*
X520000D02*
X518841Y204326D01*
X517761Y203878D01*
X516833Y203167D01*
X516121Y202239D01*
X515674Y201159D01*
X515521Y200000D01*
X515674Y198841D01*
X516121Y197761D01*
X516833Y196833D01*
X517761Y196122D01*
X518841Y195674D01*
X520000Y195521D01*
X521159Y195674D01*
X522239Y196122D01*
X523167Y196833D01*
X523878Y197761D01*
X524326Y198841D01*
X524478Y200000D01*
X524326Y201159D01*
X523878Y202239D01*
X523167Y203167D01*
X522239Y203878D01*
X521159Y204326D01*
X520000Y204479D01*
D02*
G37*
G36*
X617017Y199500D02*
X613000D01*
Y195483D01*
X613686Y195574D01*
X614791Y196031D01*
X615740Y196760D01*
X616469Y197709D01*
X616926Y198814D01*
X617017Y199500D01*
D02*
G37*
G36*
X612000D02*
X607983D01*
X608074Y198814D01*
X608531Y197709D01*
X609260Y196760D01*
X610209Y196031D01*
X611314Y195574D01*
X612000Y195483D01*
Y199500D01*
D02*
G37*
G36*
X613000Y194517D02*
Y190500D01*
X617017D01*
X616926Y191186D01*
X616469Y192291D01*
X615740Y193240D01*
X614791Y193969D01*
X613686Y194426D01*
X613000Y194517D01*
D02*
G37*
G36*
X612000D02*
X611314Y194426D01*
X610209Y193969D01*
X609260Y193240D01*
X608531Y192291D01*
X608074Y191186D01*
X607983Y190500D01*
X612000D01*
Y194517D01*
D02*
G37*
G36*
X503000Y194120D02*
Y190500D01*
X506620D01*
X506543Y191083D01*
X506125Y192093D01*
X505459Y192959D01*
X504593Y193625D01*
X503583Y194043D01*
X503000Y194120D01*
D02*
G37*
G36*
X342500Y196383D02*
X341495Y196250D01*
X340559Y195863D01*
X339754Y195246D01*
X339137Y194441D01*
X338750Y193505D01*
X338617Y192500D01*
X338750Y191495D01*
X339137Y190559D01*
X339754Y189754D01*
X340559Y189137D01*
X341495Y188750D01*
X342500Y188617D01*
X343505Y188750D01*
X344441Y189137D01*
X345246Y189754D01*
X345863Y190559D01*
X346251Y191495D01*
X346383Y192500D01*
X346251Y193505D01*
X345863Y194441D01*
X345246Y195246D01*
X344441Y195863D01*
X343505Y196250D01*
X342500Y196383D01*
D02*
G37*
G36*
X162500Y193883D02*
X161495Y193751D01*
X160559Y193363D01*
X159754Y192746D01*
X159137Y191941D01*
X158749Y191005D01*
X158617Y190000D01*
X158749Y188995D01*
X159047Y188277D01*
X156635Y185865D01*
X156370Y185468D01*
X156277Y185000D01*
Y162182D01*
X155777Y162054D01*
X155246Y162746D01*
X154441Y163363D01*
X153505Y163751D01*
X152500Y163883D01*
X151495Y163751D01*
X150559Y163363D01*
X149754Y162746D01*
X149137Y161941D01*
X148749Y161005D01*
X148617Y160000D01*
X148749Y158995D01*
X149137Y158059D01*
X149754Y157254D01*
X150559Y156637D01*
X151495Y156249D01*
X152500Y156117D01*
X153505Y156249D01*
X154441Y156637D01*
X155246Y157254D01*
X155777Y157946D01*
X156277Y157818D01*
Y140149D01*
X150855D01*
Y132450D01*
X159145D01*
Y140149D01*
X158723D01*
Y157818D01*
X159223Y157946D01*
X159754Y157254D01*
X160559Y156637D01*
X161495Y156249D01*
X162500Y156117D01*
X163505Y156249D01*
X164441Y156637D01*
X165246Y157254D01*
X165863Y158059D01*
X166251Y158995D01*
X166383Y160000D01*
X166251Y161005D01*
X165863Y161941D01*
X165246Y162746D01*
X164441Y163363D01*
X163505Y163751D01*
X162500Y163883D01*
X161495Y163751D01*
X160559Y163363D01*
X159754Y162746D01*
X159223Y162054D01*
X158723Y162182D01*
Y184493D01*
X160777Y186547D01*
X161495Y186249D01*
X162500Y186117D01*
X163505Y186249D01*
X164441Y186637D01*
X165246Y187254D01*
X165863Y188059D01*
X166251Y188995D01*
X166383Y190000D01*
X166251Y191005D01*
X165863Y191941D01*
X165246Y192746D01*
X164441Y193363D01*
X163505Y193751D01*
X162500Y193883D01*
D02*
G37*
G36*
X506620Y189500D02*
X503000D01*
Y185880D01*
X503583Y185957D01*
X504593Y186375D01*
X505459Y187040D01*
X506125Y187907D01*
X506543Y188917D01*
X506620Y189500D01*
D02*
G37*
G36*
X502000Y194120D02*
X501417Y194043D01*
X500407Y193625D01*
X499541Y192959D01*
X498875Y192093D01*
X498727Y191733D01*
X495000D01*
X494337Y191601D01*
X493774Y191226D01*
X492574Y190025D01*
X492199Y189463D01*
X492067Y188800D01*
Y149445D01*
X489650D01*
Y145500D01*
X497949D01*
Y149445D01*
X495533D01*
Y188082D01*
X495718Y188267D01*
X498727D01*
X498875Y187907D01*
X499541Y187040D01*
X500407Y186375D01*
X501417Y185957D01*
X502000Y185880D01*
Y190000D01*
Y194120D01*
D02*
G37*
G36*
X582500Y194280D02*
X581392Y194134D01*
X580360Y193707D01*
X579474Y193026D01*
X578793Y192140D01*
X578414Y191224D01*
X572500D01*
X572032Y191130D01*
X571635Y190865D01*
X569135Y188365D01*
X568870Y187968D01*
X568777Y187500D01*
Y173007D01*
X566993Y171223D01*
X563669D01*
X563248Y172239D01*
X562537Y173167D01*
X561609Y173879D01*
X560529Y174326D01*
X559370Y174478D01*
X558211Y174326D01*
X557131Y173879D01*
X556203Y173167D01*
X555492Y172239D01*
X555044Y171159D01*
X554892Y170000D01*
X555044Y168841D01*
X555492Y167761D01*
X556203Y166833D01*
X557131Y166121D01*
X558211Y165674D01*
X559370Y165522D01*
X560529Y165674D01*
X561609Y166121D01*
X562537Y166833D01*
X563248Y167761D01*
X563669Y168777D01*
X567500D01*
X567968Y168870D01*
X568365Y169135D01*
X570777Y171546D01*
X571122Y171459D01*
X571277Y171354D01*
Y143007D01*
X569493Y141224D01*
X563984D01*
X563563Y142239D01*
X562852Y143167D01*
X561924Y143878D01*
X560844Y144326D01*
X559685Y144478D01*
X558526Y144326D01*
X557446Y143878D01*
X556518Y143167D01*
X555807Y142239D01*
X555359Y141159D01*
X555207Y140000D01*
X555359Y138841D01*
X555807Y137761D01*
X556518Y136833D01*
X557446Y136121D01*
X558526Y135674D01*
X559685Y135521D01*
X560844Y135674D01*
X561924Y136121D01*
X562852Y136833D01*
X563563Y137761D01*
X563984Y138777D01*
X570000D01*
X570468Y138870D01*
X570865Y139135D01*
X573277Y141546D01*
X573622Y141460D01*
X573776Y141354D01*
Y83007D01*
X571993Y81223D01*
X561484D01*
X561063Y82239D01*
X560352Y83167D01*
X559424Y83878D01*
X558344Y84326D01*
X557185Y84478D01*
X556026Y84326D01*
X554946Y83878D01*
X554018Y83167D01*
X553307Y82239D01*
X552859Y81159D01*
X552707Y80000D01*
X552859Y78841D01*
X553307Y77761D01*
X554018Y76833D01*
X554946Y76121D01*
X556026Y75674D01*
X557185Y75521D01*
X558344Y75674D01*
X559424Y76121D01*
X560352Y76833D01*
X561063Y77761D01*
X561484Y78777D01*
X572500D01*
X572968Y78870D01*
X573365Y79135D01*
X575865Y81635D01*
X576130Y82032D01*
X576224Y82500D01*
Y166993D01*
X577952Y168722D01*
X578460Y168664D01*
X578793Y167860D01*
X579474Y166974D01*
X580360Y166294D01*
X581392Y165866D01*
X582500Y165720D01*
X583608Y165866D01*
X584640Y166294D01*
X585526Y166974D01*
X586206Y167860D01*
X586634Y168892D01*
X586780Y170000D01*
X586634Y171108D01*
X586206Y172140D01*
X585526Y173026D01*
X584640Y173706D01*
X583608Y174134D01*
X582500Y174280D01*
X581392Y174134D01*
X580360Y173706D01*
X579474Y173026D01*
X578793Y172140D01*
X578414Y171223D01*
X577500D01*
X577032Y171130D01*
X576635Y170865D01*
X574224Y168454D01*
X573878Y168541D01*
X573724Y168646D01*
Y176993D01*
X575507Y178777D01*
X578414D01*
X578793Y177860D01*
X579474Y176974D01*
X580360Y176294D01*
X581392Y175866D01*
X582500Y175720D01*
X583608Y175866D01*
X584640Y176294D01*
X585526Y176974D01*
X586206Y177860D01*
X586634Y178892D01*
X586780Y180000D01*
X586634Y181108D01*
X586206Y182140D01*
X585526Y183026D01*
X584640Y183706D01*
X583608Y184134D01*
X582500Y184280D01*
X581392Y184134D01*
X580360Y183706D01*
X579474Y183026D01*
X578793Y182140D01*
X578414Y181223D01*
X575000D01*
X574532Y181130D01*
X574135Y180865D01*
X571724Y178454D01*
X571378Y178541D01*
X571223Y178646D01*
Y186993D01*
X573007Y188777D01*
X578414D01*
X578793Y187860D01*
X579474Y186974D01*
X580360Y186293D01*
X581392Y185866D01*
X582500Y185720D01*
X583608Y185866D01*
X584640Y186293D01*
X585526Y186974D01*
X586206Y187860D01*
X586634Y188892D01*
X586780Y190000D01*
X586634Y191108D01*
X586206Y192140D01*
X585526Y193026D01*
X584640Y193707D01*
X583608Y194134D01*
X582500Y194280D01*
D02*
G37*
G36*
X617017Y189500D02*
X613000D01*
Y185483D01*
X613686Y185574D01*
X614791Y186031D01*
X615740Y186760D01*
X616469Y187709D01*
X616926Y188814D01*
X617017Y189500D01*
D02*
G37*
G36*
X612000D02*
X607983D01*
X608074Y188814D01*
X608531Y187709D01*
X609260Y186760D01*
X610209Y186031D01*
X611314Y185574D01*
X612000Y185483D01*
Y189500D01*
D02*
G37*
G36*
X342500Y216383D02*
X341495Y216250D01*
X340559Y215863D01*
X339754Y215246D01*
X339137Y214441D01*
X338750Y213505D01*
X338617Y212500D01*
X338750Y211495D01*
X339137Y210559D01*
X339754Y209754D01*
X340559Y209137D01*
X341495Y208750D01*
X342500Y208617D01*
X343505Y208750D01*
X344441Y209137D01*
X345246Y209754D01*
X345863Y210559D01*
X346160Y211277D01*
X394493D01*
X397043Y208726D01*
Y185070D01*
X396544Y184971D01*
X396378Y185369D01*
X395667Y186297D01*
X394739Y187008D01*
X393724Y187429D01*
Y187500D01*
X393630Y187968D01*
X393365Y188365D01*
X390865Y190865D01*
X390468Y191130D01*
X390000Y191224D01*
X355507D01*
X345953Y200777D01*
X346251Y201495D01*
X346383Y202500D01*
X346251Y203505D01*
X345863Y204441D01*
X345246Y205246D01*
X344441Y205863D01*
X343505Y206251D01*
X342500Y206383D01*
X341495Y206251D01*
X340559Y205863D01*
X339754Y205246D01*
X339137Y204441D01*
X338750Y203505D01*
X338617Y202500D01*
X338750Y201495D01*
X339137Y200559D01*
X339754Y199754D01*
X340559Y199137D01*
X341495Y198749D01*
X342500Y198617D01*
X343505Y198749D01*
X344223Y199047D01*
X354135Y189135D01*
X354532Y188870D01*
X355000Y188777D01*
X389493D01*
X390650Y187620D01*
X390552Y187129D01*
X390261Y187008D01*
X389333Y186297D01*
X388621Y185369D01*
X388174Y184289D01*
X388021Y183130D01*
X388174Y181971D01*
X388621Y180891D01*
X389333Y179963D01*
X390261Y179252D01*
X391341Y178804D01*
X392500Y178651D01*
X393659Y178804D01*
X394739Y179252D01*
X395667Y179963D01*
X396378Y180891D01*
X396544Y181289D01*
X397043Y181190D01*
Y154272D01*
X397137Y153804D01*
X397402Y153407D01*
X399154Y151655D01*
X399552Y151389D01*
X400020Y151296D01*
X400658D01*
Y150737D01*
X407964D01*
Y154302D01*
X400658D01*
Y154302D01*
X400158Y154111D01*
X399490Y154779D01*
Y209233D01*
X399397Y209701D01*
X399132Y210098D01*
X395865Y213365D01*
X395468Y213630D01*
X395000Y213723D01*
X346160D01*
X345863Y214441D01*
X345246Y215246D01*
X344441Y215863D01*
X343505Y216250D01*
X342500Y216383D01*
D02*
G37*
G36*
X177500Y198723D02*
X155000D01*
X154532Y198630D01*
X154135Y198365D01*
X151635Y195865D01*
X151370Y195468D01*
X151277Y195000D01*
Y193660D01*
X150559Y193363D01*
X149754Y192746D01*
X149137Y191941D01*
X148840Y191224D01*
X146160D01*
X145863Y191941D01*
X145246Y192746D01*
X144441Y193363D01*
X143505Y193751D01*
X142500Y193883D01*
X141495Y193751D01*
X140559Y193363D01*
X139754Y192746D01*
X139137Y191941D01*
X138750Y191005D01*
X138617Y190000D01*
X138750Y188995D01*
X139137Y188059D01*
X139754Y187254D01*
X140559Y186637D01*
X141495Y186249D01*
X142500Y186117D01*
X143505Y186249D01*
X144441Y186637D01*
X145246Y187254D01*
X145863Y188059D01*
X146160Y188777D01*
X148840D01*
X149137Y188059D01*
X149754Y187254D01*
X150559Y186637D01*
X151495Y186249D01*
X152500Y186117D01*
X153505Y186249D01*
X154441Y186637D01*
X155246Y187254D01*
X155863Y188059D01*
X156251Y188995D01*
X156383Y190000D01*
X156251Y191005D01*
X155863Y191941D01*
X155246Y192746D01*
X154441Y193363D01*
X153724Y193660D01*
Y194493D01*
X155507Y196276D01*
X176993D01*
X178777Y194493D01*
Y185000D01*
Y140149D01*
X175855D01*
Y132450D01*
X184145D01*
Y133776D01*
X204493D01*
X206276Y131993D01*
Y126547D01*
X204886D01*
X202863Y124523D01*
Y120477D01*
X204886Y118454D01*
X210114D01*
X212137Y120477D01*
Y124523D01*
X210114Y126547D01*
X208723D01*
Y132500D01*
X208630Y132968D01*
X208365Y133365D01*
X205865Y135865D01*
X205468Y136130D01*
X205000Y136223D01*
X184145D01*
Y140149D01*
X181223D01*
Y183776D01*
X188840D01*
X189137Y183059D01*
X189754Y182254D01*
X190559Y181637D01*
X191495Y181249D01*
X192500Y181117D01*
X193505Y181249D01*
X194441Y181637D01*
X195246Y182254D01*
X195863Y183059D01*
X196250Y183995D01*
X196383Y185000D01*
X196250Y186005D01*
X195863Y186941D01*
X195246Y187746D01*
X194441Y188363D01*
X193505Y188751D01*
X192500Y188883D01*
X191495Y188751D01*
X190559Y188363D01*
X189754Y187746D01*
X189137Y186941D01*
X188840Y186223D01*
X181223D01*
Y195000D01*
X181130Y195468D01*
X180865Y195865D01*
X178365Y198365D01*
X177968Y198630D01*
X177500Y198723D01*
D02*
G37*
G36*
X613000Y184517D02*
Y180500D01*
X617017D01*
X616926Y181186D01*
X616469Y182291D01*
X615740Y183240D01*
X614791Y183969D01*
X613686Y184426D01*
X613000Y184517D01*
D02*
G37*
G36*
X612000D02*
X611314Y184426D01*
X610209Y183969D01*
X609260Y183240D01*
X608531Y182291D01*
X608074Y181186D01*
X607983Y180500D01*
X612000D01*
Y184517D01*
D02*
G37*
G36*
X342500Y186383D02*
X341495Y186250D01*
X340559Y185863D01*
X339754Y185246D01*
X339137Y184441D01*
X338750Y183505D01*
X338617Y182500D01*
X338750Y181495D01*
X339137Y180559D01*
X339754Y179754D01*
X340559Y179137D01*
X341495Y178750D01*
X342500Y178617D01*
X343505Y178750D01*
X344441Y179137D01*
X345246Y179754D01*
X345863Y180559D01*
X346251Y181495D01*
X346383Y182500D01*
X346251Y183505D01*
X345863Y184441D01*
X345246Y185246D01*
X344441Y185863D01*
X343505Y186250D01*
X342500Y186383D01*
D02*
G37*
G36*
X85000Y199163D02*
X83841Y199011D01*
X82761Y198564D01*
X81833Y197852D01*
X81121Y196924D01*
X80674Y195844D01*
X80522Y194685D01*
X80674Y193526D01*
X81121Y192446D01*
X81833Y191518D01*
X82761Y190807D01*
X83841Y190359D01*
X85000Y190207D01*
X86159Y190359D01*
X87239Y190807D01*
X88167Y191518D01*
X88879Y192446D01*
X89088Y192952D01*
X104597D01*
X105767Y191782D01*
Y185149D01*
X103355D01*
Y177450D01*
X111645D01*
Y179566D01*
X131299D01*
X131963Y179698D01*
X132525Y180074D01*
X133726Y181274D01*
X134101Y181837D01*
X134233Y182500D01*
Y186551D01*
X134441Y186637D01*
X135246Y187254D01*
X135863Y188059D01*
X136250Y188995D01*
X136383Y190000D01*
X136250Y191005D01*
X135863Y191941D01*
X135246Y192746D01*
X134441Y193363D01*
X133505Y193751D01*
X132500Y193883D01*
X131495Y193751D01*
X130559Y193363D01*
X129754Y192746D01*
X129137Y191941D01*
X128750Y191005D01*
X128617Y190000D01*
X128750Y188995D01*
X129137Y188059D01*
X129754Y187254D01*
X130559Y186637D01*
X130767Y186551D01*
Y183218D01*
X130581Y183033D01*
X111645D01*
Y185149D01*
X109233D01*
Y192500D01*
X109101Y193163D01*
X108726Y193726D01*
X106541Y195911D01*
X105978Y196286D01*
X105315Y196418D01*
X89088D01*
X88879Y196924D01*
X88167Y197852D01*
X87239Y198564D01*
X86159Y199011D01*
X85000Y199163D01*
D02*
G37*
G36*
X617017Y179500D02*
X613000D01*
Y175483D01*
X613686Y175574D01*
X614791Y176031D01*
X615740Y176760D01*
X616469Y177709D01*
X616926Y178814D01*
X617017Y179500D01*
D02*
G37*
G36*
X612000D02*
X607983D01*
X608074Y178814D01*
X608531Y177709D01*
X609260Y176760D01*
X610209Y176031D01*
X611314Y175574D01*
X612000Y175483D01*
Y179500D01*
D02*
G37*
G36*
X613000Y174517D02*
Y170500D01*
X617017D01*
X616926Y171186D01*
X616469Y172291D01*
X615740Y173240D01*
X614791Y173969D01*
X613686Y174426D01*
X613000Y174517D01*
D02*
G37*
G36*
X612000D02*
X611314Y174426D01*
X610209Y173969D01*
X609260Y173240D01*
X608531Y172291D01*
X608074Y171186D01*
X607983Y170500D01*
X612000D01*
Y174517D01*
D02*
G37*
G36*
X107000Y172850D02*
X103055D01*
Y169200D01*
X107000D01*
Y172850D01*
D02*
G37*
G36*
X342500Y176383D02*
X341495Y176251D01*
X340559Y175863D01*
X339754Y175246D01*
X339137Y174441D01*
X338750Y173505D01*
X338617Y172500D01*
X338750Y171495D01*
X339137Y170559D01*
X339754Y169754D01*
X340559Y169137D01*
X341495Y168749D01*
X342500Y168617D01*
X343505Y168749D01*
X344441Y169137D01*
X345246Y169754D01*
X345863Y170559D01*
X346251Y171495D01*
X346383Y172500D01*
X346251Y173505D01*
X345863Y174441D01*
X345246Y175246D01*
X344441Y175863D01*
X343505Y176251D01*
X342500Y176383D01*
D02*
G37*
G36*
X502500Y173883D02*
X501495Y173750D01*
X500559Y173363D01*
X499754Y172746D01*
X499137Y171941D01*
X498749Y171005D01*
X498617Y170000D01*
X498749Y168995D01*
X499137Y168059D01*
X499754Y167254D01*
X500559Y166637D01*
X501495Y166250D01*
X502500Y166117D01*
X503505Y166250D01*
X504441Y166637D01*
X505246Y167254D01*
X505863Y168059D01*
X506250Y168995D01*
X506383Y170000D01*
X506250Y171005D01*
X505863Y171941D01*
X505246Y172746D01*
X504441Y173363D01*
X503505Y173750D01*
X502500Y173883D01*
D02*
G37*
G36*
X432500Y184065D02*
X431341Y183913D01*
X430261Y183465D01*
X429333Y182753D01*
X428621Y181826D01*
X428174Y180746D01*
X428021Y179587D01*
X428174Y178428D01*
X428621Y177347D01*
X429333Y176420D01*
X430261Y175708D01*
X431341Y175261D01*
X432500Y175108D01*
X433659Y175261D01*
X434739Y175708D01*
X435667Y176420D01*
X436378Y177347D01*
X436826Y178428D01*
X436872Y178777D01*
X444493D01*
X446277Y176993D01*
Y174614D01*
X445261Y174193D01*
X444333Y173482D01*
X443621Y172554D01*
X443174Y171474D01*
X443021Y170315D01*
X443174Y169156D01*
X443621Y168076D01*
X444333Y167148D01*
X445261Y166437D01*
X446341Y165989D01*
X447500Y165837D01*
X448659Y165989D01*
X449739Y166437D01*
X450667Y167148D01*
X451378Y168076D01*
X451734Y168934D01*
X468775D01*
X469137Y168059D01*
X469754Y167254D01*
X470559Y166637D01*
X471495Y166250D01*
X472500Y166117D01*
X473505Y166250D01*
X474441Y166637D01*
X475246Y167254D01*
X475863Y168059D01*
X476251Y168995D01*
X476383Y170000D01*
X476251Y171005D01*
X475863Y171941D01*
X475246Y172746D01*
X474441Y173363D01*
X473505Y173750D01*
X472500Y173883D01*
X471495Y173750D01*
X470559Y173363D01*
X469754Y172746D01*
X469137Y171941D01*
X468905Y171381D01*
X451838D01*
X451826Y171474D01*
X451378Y172554D01*
X450667Y173482D01*
X449739Y174193D01*
X448724Y174614D01*
Y177500D01*
X448630Y177968D01*
X448365Y178365D01*
X445865Y180865D01*
X445468Y181130D01*
X445000Y181223D01*
X436628D01*
X436378Y181826D01*
X435667Y182753D01*
X434739Y183465D01*
X433659Y183913D01*
X432500Y184065D01*
D02*
G37*
G36*
X520000Y174478D02*
X518841Y174326D01*
X517761Y173879D01*
X516833Y173167D01*
X516121Y172239D01*
X515674Y171159D01*
X515521Y170000D01*
X515674Y168841D01*
X516095Y167825D01*
X509493Y161223D01*
X506160D01*
X505863Y161941D01*
X505246Y162746D01*
X504441Y163363D01*
X503505Y163751D01*
X502500Y163883D01*
X501495Y163751D01*
X500559Y163363D01*
X499754Y162746D01*
X499137Y161941D01*
X498749Y161005D01*
X498617Y160000D01*
X498749Y158995D01*
X499137Y158059D01*
X499754Y157254D01*
X500559Y156637D01*
X501495Y156249D01*
X502500Y156117D01*
X503505Y156249D01*
X504441Y156637D01*
X505246Y157254D01*
X505863Y158059D01*
X506160Y158776D01*
X510000D01*
X510468Y158870D01*
X510865Y159135D01*
X517825Y166095D01*
X518841Y165674D01*
X520000Y165522D01*
X521159Y165674D01*
X522239Y166121D01*
X523167Y166833D01*
X523878Y167761D01*
X524326Y168841D01*
X524478Y170000D01*
X524326Y171159D01*
X523878Y172239D01*
X523167Y173167D01*
X522239Y173879D01*
X521159Y174326D01*
X520000Y174478D01*
D02*
G37*
G36*
X617017Y169500D02*
X613000D01*
Y165483D01*
X613686Y165574D01*
X614791Y166031D01*
X615740Y166760D01*
X616469Y167709D01*
X616926Y168814D01*
X617017Y169500D01*
D02*
G37*
G36*
X612000D02*
X607983D01*
X608074Y168814D01*
X608531Y167709D01*
X609260Y166760D01*
X610209Y166031D01*
X611314Y165574D01*
X612000Y165483D01*
Y169500D01*
D02*
G37*
G36*
X107000Y168200D02*
X103055D01*
Y164550D01*
X107000D01*
Y168200D01*
D02*
G37*
G36*
X192500Y168883D02*
X191495Y168751D01*
X190559Y168363D01*
X189754Y167746D01*
X189137Y166941D01*
X188750Y166005D01*
X188617Y165000D01*
X188750Y163995D01*
X189137Y163059D01*
X189754Y162254D01*
X190559Y161637D01*
X191495Y161249D01*
X192500Y161117D01*
X193505Y161249D01*
X194441Y161637D01*
X195246Y162254D01*
X195863Y163059D01*
X196250Y163995D01*
X196383Y165000D01*
X196250Y166005D01*
X195863Y166941D01*
X195246Y167746D01*
X194441Y168363D01*
X193505Y168751D01*
X192500Y168883D01*
D02*
G37*
G36*
X613000Y164517D02*
Y160500D01*
X617017D01*
X616926Y161186D01*
X616469Y162291D01*
X615740Y163240D01*
X614791Y163969D01*
X613686Y164426D01*
X613000Y164517D01*
D02*
G37*
G36*
X612000D02*
X611314Y164426D01*
X610209Y163969D01*
X609260Y163240D01*
X608531Y162291D01*
X608074Y161186D01*
X607983Y160500D01*
X612000D01*
Y164517D01*
D02*
G37*
G36*
X111945Y172850D02*
X108000D01*
Y168700D01*
Y164550D01*
X111945D01*
Y166967D01*
X130582D01*
X130767Y166782D01*
Y163774D01*
X130407Y163625D01*
X129541Y162960D01*
X128875Y162093D01*
X128457Y161083D01*
X128380Y160500D01*
X132500D01*
X136620D01*
X136543Y161083D01*
X136125Y162093D01*
X135459Y162960D01*
X134593Y163625D01*
X134233Y163774D01*
Y167500D01*
X134101Y168163D01*
X133726Y168726D01*
X132526Y169926D01*
X131963Y170301D01*
X131300Y170433D01*
X111945D01*
Y172850D01*
D02*
G37*
G36*
X342500Y166383D02*
X341495Y166251D01*
X340559Y165863D01*
X339754Y165246D01*
X339137Y164441D01*
X338750Y163505D01*
X338617Y162500D01*
X338750Y161495D01*
X339137Y160559D01*
X339754Y159754D01*
X340559Y159137D01*
X341495Y158749D01*
X342500Y158617D01*
X343505Y158749D01*
X344441Y159137D01*
X345246Y159754D01*
X345863Y160559D01*
X346251Y161495D01*
X346383Y162500D01*
X346251Y163505D01*
X345863Y164441D01*
X345246Y165246D01*
X344441Y165863D01*
X343505Y166251D01*
X342500Y166383D01*
D02*
G37*
G36*
X142500Y163883D02*
X141495Y163751D01*
X140559Y163363D01*
X139754Y162746D01*
X139137Y161941D01*
X138750Y161005D01*
X138617Y160000D01*
X138750Y158995D01*
X139047Y158277D01*
X137308Y156538D01*
X135583D01*
X135422Y157012D01*
X135459Y157041D01*
X136125Y157907D01*
X136543Y158917D01*
X136620Y159500D01*
X132500D01*
X128380D01*
X128457Y158917D01*
X128875Y157907D01*
X129541Y157041D01*
X129578Y157012D01*
X129417Y156538D01*
X89299D01*
X88879Y157554D01*
X88167Y158482D01*
X87239Y159193D01*
X86159Y159641D01*
X85000Y159793D01*
X83841Y159641D01*
X82761Y159193D01*
X81833Y158482D01*
X81121Y157554D01*
X80674Y156474D01*
X80522Y155315D01*
X80674Y154156D01*
X81121Y153076D01*
X81833Y152148D01*
X82761Y151436D01*
X83776Y151016D01*
Y141172D01*
X80166D01*
Y134261D01*
X89834D01*
Y141172D01*
X86224D01*
Y151016D01*
X87239Y151436D01*
X88167Y152148D01*
X88879Y153076D01*
X89299Y154092D01*
X137815D01*
X138283Y154185D01*
X138680Y154450D01*
X140777Y156547D01*
X141495Y156249D01*
X142500Y156117D01*
X143505Y156249D01*
X144441Y156637D01*
X145246Y157254D01*
X145863Y158059D01*
X146250Y158995D01*
X146383Y160000D01*
X146250Y161005D01*
X145863Y161941D01*
X145246Y162746D01*
X144441Y163363D01*
X143505Y163751D01*
X142500Y163883D01*
D02*
G37*
G36*
X472500D02*
X471495Y163751D01*
X470559Y163363D01*
X469754Y162746D01*
X469137Y161941D01*
X468750Y161005D01*
X468617Y160000D01*
X468750Y158995D01*
X469137Y158059D01*
X469754Y157254D01*
X470559Y156637D01*
X471495Y156249D01*
X472500Y156117D01*
X473505Y156249D01*
X474441Y156637D01*
X475246Y157254D01*
X475863Y158059D01*
X476251Y158995D01*
X476383Y160000D01*
X476251Y161005D01*
X475863Y161941D01*
X475246Y162746D01*
X474441Y163363D01*
X473505Y163751D01*
X472500Y163883D01*
D02*
G37*
G36*
X617017Y159500D02*
X613000D01*
Y155483D01*
X613686Y155574D01*
X614791Y156031D01*
X615740Y156760D01*
X616469Y157709D01*
X616926Y158814D01*
X617017Y159500D01*
D02*
G37*
G36*
X612000D02*
X607983D01*
X608074Y158814D01*
X608531Y157709D01*
X609260Y156760D01*
X610209Y156031D01*
X611314Y155574D01*
X612000Y155483D01*
Y159500D01*
D02*
G37*
G36*
X365000Y187608D02*
X363841Y187456D01*
X362761Y187008D01*
X361833Y186297D01*
X361122Y185369D01*
X360674Y184289D01*
X360522Y183130D01*
X360674Y181971D01*
X361122Y180891D01*
X361833Y179963D01*
X362761Y179252D01*
X363776Y178831D01*
Y136350D01*
X360855D01*
Y128650D01*
X369145D01*
Y136350D01*
X366224D01*
Y155036D01*
X388388D01*
X388547Y154602D01*
X388547D01*
Y153020D01*
X392500D01*
Y152520D01*
D01*
Y153020D01*
X396453D01*
Y154602D01*
X396153D01*
Y157717D01*
X396153Y158043D01*
X396153Y158543D01*
Y161783D01*
X388847D01*
Y158543D01*
X388847Y158217D01*
X388847Y157837D01*
X388494Y157483D01*
X366224D01*
Y178831D01*
X367239Y179252D01*
X368167Y179963D01*
X368879Y180891D01*
X369326Y181971D01*
X369479Y183130D01*
X369326Y184289D01*
X368879Y185369D01*
X368167Y186297D01*
X367239Y187008D01*
X366159Y187456D01*
X365000Y187608D01*
D02*
G37*
G36*
X254642Y152020D02*
X251189D01*
Y150437D01*
X254642D01*
Y152020D01*
D02*
G37*
G36*
X250189D02*
X246736D01*
Y150437D01*
X250189D01*
Y152020D01*
D02*
G37*
G36*
X396453Y152020D02*
X393000D01*
Y150437D01*
X396453D01*
Y152020D01*
D02*
G37*
G36*
X392000D02*
X388547D01*
Y150437D01*
X392000D01*
Y152020D01*
D02*
G37*
G36*
X313000Y166620D02*
Y162500D01*
Y158380D01*
X313583Y158457D01*
X314593Y158875D01*
X315459Y159540D01*
X316125Y160407D01*
X316273Y160767D01*
X316782D01*
X319467Y158082D01*
Y151945D01*
X317051D01*
Y148000D01*
X321200D01*
Y147500D01*
D01*
Y148000D01*
X325350D01*
Y151945D01*
X322933D01*
Y158800D01*
X322801Y159463D01*
X322426Y160026D01*
X318726Y163726D01*
X318163Y164101D01*
X317500Y164233D01*
X316273D01*
X316125Y164593D01*
X315459Y165460D01*
X314593Y166125D01*
X313583Y166543D01*
X313000Y166620D01*
D02*
G37*
G36*
X25787Y153684D02*
X24213D01*
X23259Y153559D01*
X22923Y153420D01*
X22523Y153367D01*
X21682Y153019D01*
X20960Y152465D01*
X20406Y151743D01*
X20058Y150902D01*
X19940Y150000D01*
X20058Y149098D01*
X20406Y148257D01*
X20960Y147535D01*
X21682Y146981D01*
X22523Y146633D01*
X22923Y146580D01*
X23259Y146441D01*
X24213Y146316D01*
X25787D01*
X26741Y146441D01*
X27077Y146580D01*
X27477Y146633D01*
X28318Y146981D01*
X29040Y147535D01*
X29594Y148257D01*
X29942Y149098D01*
X30060Y150000D01*
X29942Y150902D01*
X29594Y151743D01*
X29040Y152465D01*
X28318Y153019D01*
X27477Y153367D01*
X27077Y153420D01*
X26741Y153559D01*
X25787Y153684D01*
D02*
G37*
G36*
X325350Y147000D02*
X321700D01*
Y143055D01*
X325350D01*
Y147000D01*
D02*
G37*
G36*
X320700D02*
X317051D01*
Y143055D01*
X320700D01*
Y147000D01*
D02*
G37*
G36*
X224909Y145256D02*
Y142232D01*
X227933D01*
X227877Y142661D01*
X227518Y143527D01*
X226948Y144271D01*
X226204Y144841D01*
X225339Y145200D01*
X224909Y145256D01*
D02*
G37*
G36*
X223909D02*
X223480Y145200D01*
X222615Y144841D01*
X221871Y144271D01*
X221301Y143527D01*
X220942Y142661D01*
X220885Y142232D01*
X223909D01*
Y145256D01*
D02*
G37*
G36*
X447500Y154164D02*
X446341Y154011D01*
X445261Y153563D01*
X444333Y152852D01*
X443621Y151924D01*
X443174Y150844D01*
X443021Y149685D01*
X443174Y148526D01*
X443621Y147446D01*
X444333Y146518D01*
X445261Y145807D01*
X446277Y145386D01*
Y143007D01*
X444493Y141224D01*
X436846D01*
X436826Y141376D01*
X436378Y142456D01*
X435667Y143383D01*
X434739Y144095D01*
X433659Y144542D01*
X432500Y144695D01*
X431341Y144542D01*
X430261Y144095D01*
X429333Y143383D01*
X428621Y142456D01*
X428174Y141376D01*
X428021Y140217D01*
X428174Y139057D01*
X428621Y137977D01*
X429333Y137050D01*
X430261Y136338D01*
X431341Y135891D01*
X432500Y135738D01*
X433659Y135891D01*
X434739Y136338D01*
X435667Y137050D01*
X436378Y137977D01*
X436709Y138777D01*
X445000D01*
X445468Y138870D01*
X445865Y139135D01*
X448365Y141635D01*
X448630Y142032D01*
X448724Y142500D01*
Y145386D01*
X449739Y145807D01*
X450667Y146518D01*
X451378Y147446D01*
X451826Y148526D01*
X451978Y149685D01*
X451826Y150844D01*
X451378Y151924D01*
X450667Y152852D01*
X449739Y153563D01*
X448659Y154011D01*
X447500Y154164D01*
D02*
G37*
G36*
X497949Y144500D02*
X494300D01*
Y140555D01*
X497949D01*
Y144500D01*
D02*
G37*
G36*
X493300D02*
X489650D01*
Y140555D01*
X493300D01*
Y144500D01*
D02*
G37*
G36*
X227933Y141232D02*
X224909D01*
Y138208D01*
X225339Y138265D01*
X226204Y138623D01*
X226948Y139194D01*
X227518Y139937D01*
X227877Y140803D01*
X227933Y141232D01*
D02*
G37*
G36*
X223909D02*
X220885D01*
X220942Y140803D01*
X221301Y139937D01*
X221871Y139194D01*
X222615Y138623D01*
X223480Y138265D01*
X223909Y138208D01*
Y141232D01*
D02*
G37*
G36*
X25000Y145417D02*
X24046Y145291D01*
X23158Y144923D01*
X22395Y144337D01*
X21809Y143574D01*
X21441Y142686D01*
X21316Y141732D01*
X21441Y140779D01*
X21809Y139890D01*
X22395Y139127D01*
X23158Y138542D01*
X24046Y138174D01*
X25000Y138048D01*
X25954Y138174D01*
X26842Y138542D01*
X27605Y139127D01*
X28191Y139890D01*
X28559Y140779D01*
X28684Y141732D01*
X28559Y142686D01*
X28191Y143574D01*
X27605Y144337D01*
X26842Y144923D01*
X25954Y145291D01*
X25000Y145417D01*
D02*
G37*
G36*
X520315Y144478D02*
X519156Y144326D01*
X518076Y143878D01*
X517148Y143167D01*
X516436Y142239D01*
X515989Y141159D01*
X515836Y140000D01*
X515989Y138841D01*
X516436Y137761D01*
X517148Y136833D01*
X518076Y136121D01*
X519156Y135674D01*
X520315Y135521D01*
X521474Y135674D01*
X522554Y136121D01*
X523482Y136833D01*
X524193Y137761D01*
X524641Y138841D01*
X524793Y140000D01*
X524641Y141159D01*
X524193Y142239D01*
X523482Y143167D01*
X522554Y143878D01*
X521474Y144326D01*
X520315Y144478D01*
D02*
G37*
G36*
X129204Y141172D02*
X119536D01*
Y134261D01*
X129204D01*
Y141172D01*
D02*
G37*
G36*
X184445Y127850D02*
X180500D01*
Y124200D01*
X184445D01*
Y127850D01*
D02*
G37*
G36*
X159445D02*
X155500D01*
Y124200D01*
X159445D01*
Y127850D01*
D02*
G37*
G36*
X179500D02*
X175555D01*
Y124200D01*
X179500D01*
Y127850D01*
D02*
G37*
G36*
X154500D02*
X150555D01*
Y124200D01*
X154500D01*
Y127850D01*
D02*
G37*
G36*
X63492Y125571D02*
Y122547D01*
X66516D01*
X66460Y122976D01*
X66101Y123842D01*
X65531Y124586D01*
X64787Y125156D01*
X63921Y125515D01*
X63492Y125571D01*
D02*
G37*
G36*
X62492D02*
X62063Y125515D01*
X61197Y125156D01*
X60454Y124586D01*
X59883Y123842D01*
X59525Y122976D01*
X59468Y122547D01*
X62492D01*
Y125571D01*
D02*
G37*
G36*
X129504Y123756D02*
X124870D01*
Y120500D01*
X129504D01*
Y123756D01*
D02*
G37*
G36*
X123870D02*
X119236D01*
Y120500D01*
X123870D01*
Y123756D01*
D02*
G37*
G36*
X369445Y124050D02*
X365500D01*
Y120401D01*
X369445D01*
Y124050D01*
D02*
G37*
G36*
X294445D02*
X290500D01*
Y120401D01*
X294445D01*
Y124050D01*
D02*
G37*
G36*
X364500D02*
X360555D01*
Y120401D01*
X364500D01*
Y124050D01*
D02*
G37*
G36*
X289500D02*
X285555D01*
Y120401D01*
X289500D01*
Y124050D01*
D02*
G37*
G36*
X184445Y123200D02*
X180500D01*
Y119551D01*
X184445D01*
Y123200D01*
D02*
G37*
G36*
X179500D02*
X175555D01*
Y119551D01*
X179500D01*
Y123200D01*
D02*
G37*
G36*
X159445D02*
X155500D01*
Y119551D01*
X159445D01*
Y123200D01*
D02*
G37*
G36*
X154500D02*
X150555D01*
Y119551D01*
X154500D01*
Y123200D01*
D02*
G37*
G36*
X66516Y121547D02*
X63492D01*
Y118523D01*
X63921Y118580D01*
X64787Y118938D01*
X65531Y119509D01*
X66101Y120252D01*
X66460Y121118D01*
X66516Y121547D01*
D02*
G37*
G36*
X62492D02*
X59468D01*
X59525Y121118D01*
X59883Y120252D01*
X60454Y119509D01*
X61197Y118938D01*
X62063Y118580D01*
X62492Y118523D01*
Y121547D01*
D02*
G37*
G36*
X89834Y123456D02*
X80166D01*
Y116544D01*
X89834D01*
Y123456D01*
D02*
G37*
G36*
X129504Y119500D02*
X124870D01*
Y116244D01*
X129504D01*
Y119500D01*
D02*
G37*
G36*
X123870D02*
X119236D01*
Y116244D01*
X123870D01*
Y119500D01*
D02*
G37*
G36*
X369445Y119401D02*
X365500D01*
Y115751D01*
X369445D01*
Y119401D01*
D02*
G37*
G36*
X364500D02*
X360555D01*
Y115751D01*
X364500D01*
Y119401D01*
D02*
G37*
G36*
X294445D02*
X290500D01*
Y115751D01*
X294445D01*
Y119401D01*
D02*
G37*
G36*
X289500D02*
X285555D01*
Y115751D01*
X289500D01*
Y119401D01*
D02*
G37*
G36*
X25787Y121401D02*
X24213D01*
X23259Y121275D01*
X22923Y121136D01*
X22523Y121083D01*
X21682Y120735D01*
X20960Y120181D01*
X20406Y119459D01*
X20058Y118619D01*
X19940Y117717D01*
X20058Y116814D01*
X20406Y115974D01*
X20960Y115252D01*
X21682Y114698D01*
X22523Y114350D01*
X22923Y114297D01*
X23259Y114158D01*
X24213Y114032D01*
X25787D01*
X26741Y114158D01*
X27077Y114297D01*
X27477Y114350D01*
X28318Y114698D01*
X29040Y115252D01*
X29594Y115974D01*
X29942Y116814D01*
X30060Y117717D01*
X29942Y118619D01*
X29594Y119459D01*
X29040Y120181D01*
X28318Y120735D01*
X27477Y121083D01*
X27077Y121136D01*
X26741Y121275D01*
X25787Y121401D01*
D02*
G37*
G36*
X462500Y163287D02*
X461649Y163175D01*
X460856Y162847D01*
X460176Y162324D01*
X459653Y161644D01*
X459325Y160851D01*
X459213Y160000D01*
X459325Y159149D01*
X459653Y158356D01*
X460176Y157676D01*
X460856Y157153D01*
X461276Y156979D01*
Y113021D01*
X460856Y112847D01*
X460176Y112324D01*
X459653Y111644D01*
X459325Y110851D01*
X459213Y110000D01*
X459325Y109149D01*
X459653Y108356D01*
X460176Y107676D01*
X460856Y107153D01*
X461649Y106825D01*
X462500Y106713D01*
X463351Y106825D01*
X464144Y107153D01*
X464824Y107676D01*
X465347Y108356D01*
X465675Y109149D01*
X465787Y110000D01*
X465675Y110851D01*
X465347Y111644D01*
X464824Y112324D01*
X464144Y112847D01*
X463724Y113021D01*
Y156979D01*
X464144Y157153D01*
X464824Y157676D01*
X465347Y158356D01*
X465675Y159149D01*
X465787Y160000D01*
X465675Y160851D01*
X465347Y161644D01*
X464824Y162324D01*
X464144Y162847D01*
X463351Y163175D01*
X462500Y163287D01*
D02*
G37*
G36*
X432500Y124065D02*
X431341Y123913D01*
X430261Y123465D01*
X429333Y122753D01*
X428621Y121826D01*
X428174Y120746D01*
X428021Y119587D01*
X428174Y118428D01*
X428621Y117347D01*
X429333Y116420D01*
X430261Y115708D01*
X431341Y115261D01*
X432500Y115108D01*
X433659Y115261D01*
X434739Y115708D01*
X435667Y116420D01*
X436378Y117347D01*
X436826Y118428D01*
X436872Y118777D01*
X444493D01*
X446277Y116993D01*
Y114614D01*
X445261Y114193D01*
X444333Y113482D01*
X443621Y112554D01*
X443174Y111474D01*
X443021Y110315D01*
X443174Y109156D01*
X443621Y108076D01*
X444333Y107148D01*
X445261Y106437D01*
X446341Y105989D01*
X447500Y105836D01*
X448659Y105989D01*
X449739Y106437D01*
X450667Y107148D01*
X451378Y108076D01*
X451826Y109156D01*
X451978Y110315D01*
X451826Y111474D01*
X451378Y112554D01*
X450667Y113482D01*
X449739Y114193D01*
X448724Y114614D01*
Y117500D01*
X448630Y117968D01*
X448365Y118365D01*
X445865Y120865D01*
X445468Y121130D01*
X445000Y121223D01*
X436628D01*
X436378Y121826D01*
X435667Y122753D01*
X434739Y123465D01*
X433659Y123913D01*
X432500Y124065D01*
D02*
G37*
G36*
X543807Y105886D02*
Y102862D01*
X546831D01*
X546774Y103291D01*
X546416Y104157D01*
X545845Y104901D01*
X545102Y105471D01*
X544236Y105830D01*
X543807Y105886D01*
D02*
G37*
G36*
X542807D02*
X542378Y105830D01*
X541512Y105471D01*
X540769Y104901D01*
X540198Y104157D01*
X539840Y103291D01*
X539783Y102862D01*
X542807D01*
Y105886D01*
D02*
G37*
G36*
X546831Y101862D02*
X543807D01*
Y98838D01*
X544236Y98895D01*
X545102Y99253D01*
X545845Y99824D01*
X546416Y100567D01*
X546774Y101433D01*
X546831Y101862D01*
D02*
G37*
G36*
X542807D02*
X539783D01*
X539840Y101433D01*
X540198Y100567D01*
X540769Y99824D01*
X541512Y99253D01*
X542378Y98895D01*
X542807Y98838D01*
Y101862D01*
D02*
G37*
G36*
X502500Y103883D02*
X501495Y103751D01*
X500559Y103363D01*
X499754Y102746D01*
X499137Y101941D01*
X498749Y101005D01*
X498617Y100000D01*
X498749Y98995D01*
X499137Y98059D01*
X499754Y97254D01*
X500559Y96637D01*
X501495Y96250D01*
X502500Y96117D01*
X503505Y96250D01*
X504441Y96637D01*
X505246Y97254D01*
X505863Y98059D01*
X506250Y98995D01*
X506383Y100000D01*
X506250Y101005D01*
X505863Y101941D01*
X505246Y102746D01*
X504441Y103363D01*
X503505Y103751D01*
X502500Y103883D01*
D02*
G37*
G36*
X472500D02*
X471495Y103751D01*
X470559Y103363D01*
X469754Y102746D01*
X469137Y101941D01*
X468750Y101005D01*
X468617Y100000D01*
X468750Y98995D01*
X469137Y98059D01*
X469754Y97254D01*
X470559Y96637D01*
X471495Y96250D01*
X472500Y96117D01*
X473505Y96250D01*
X474441Y96637D01*
X475246Y97254D01*
X475863Y98059D01*
X476251Y98995D01*
X476383Y100000D01*
X476251Y101005D01*
X475863Y101941D01*
X475246Y102746D01*
X474441Y103363D01*
X473505Y103751D01*
X472500Y103883D01*
D02*
G37*
G36*
X327500Y195787D02*
X326649Y195675D01*
X325856Y195347D01*
X325176Y194824D01*
X324653Y194144D01*
X324325Y193351D01*
X324213Y192500D01*
X324325Y191649D01*
X324653Y190856D01*
X325176Y190176D01*
X325856Y189653D01*
X326276Y189479D01*
Y97500D01*
X326370Y97032D01*
X326635Y96635D01*
X327875Y95395D01*
X328272Y95130D01*
X328740Y95036D01*
X329753D01*
Y94477D01*
X337058D01*
Y98043D01*
X329753D01*
Y97483D01*
X329247D01*
X328724Y98007D01*
Y189479D01*
X329144Y189653D01*
X329824Y190176D01*
X330347Y190856D01*
X330675Y191649D01*
X330787Y192500D01*
X330675Y193351D01*
X330347Y194144D01*
X329824Y194824D01*
X329144Y195347D01*
X328351Y195675D01*
X327500Y195787D01*
D02*
G37*
G36*
X325547Y95760D02*
X322094D01*
Y94177D01*
X325547D01*
Y95760D01*
D02*
G37*
G36*
X321094D02*
X317642D01*
Y94177D01*
X321094D01*
Y95760D01*
D02*
G37*
G36*
X502500Y93883D02*
X501495Y93751D01*
X500559Y93363D01*
X499754Y92746D01*
X499137Y91941D01*
X498749Y91005D01*
X498617Y90000D01*
X498749Y88995D01*
X499137Y88059D01*
X499754Y87254D01*
X500559Y86637D01*
X501495Y86250D01*
X502500Y86117D01*
X503505Y86250D01*
X504441Y86637D01*
X505246Y87254D01*
X505863Y88059D01*
X506250Y88995D01*
X506383Y90000D01*
X506250Y91005D01*
X505863Y91941D01*
X505246Y92746D01*
X504441Y93363D01*
X503505Y93751D01*
X502500Y93883D01*
D02*
G37*
G36*
X447500Y94164D02*
X446341Y94011D01*
X445261Y93563D01*
X444333Y92852D01*
X443621Y91924D01*
X443174Y90844D01*
X443021Y89685D01*
X443174Y88526D01*
X443621Y87446D01*
X444333Y86518D01*
X445261Y85807D01*
X446277Y85386D01*
Y83007D01*
X444493Y81223D01*
X436846D01*
X436826Y81376D01*
X436378Y82456D01*
X435667Y83383D01*
X434739Y84095D01*
X433659Y84542D01*
X432500Y84695D01*
X431341Y84542D01*
X430261Y84095D01*
X429333Y83383D01*
X428621Y82456D01*
X428174Y81376D01*
X428021Y80216D01*
X428174Y79057D01*
X428621Y77977D01*
X429333Y77050D01*
X430261Y76338D01*
X431341Y75891D01*
X432500Y75738D01*
X433659Y75891D01*
X434739Y76338D01*
X435667Y77050D01*
X436378Y77977D01*
X436709Y78777D01*
X445000D01*
X445468Y78870D01*
X445865Y79135D01*
X448365Y81635D01*
X448630Y82032D01*
X448724Y82500D01*
Y85386D01*
X449739Y85807D01*
X450667Y86518D01*
X451378Y87446D01*
X451826Y88526D01*
X451838Y88619D01*
X468905D01*
X469137Y88059D01*
X469754Y87254D01*
X470559Y86637D01*
X471495Y86250D01*
X472500Y86117D01*
X473505Y86250D01*
X474441Y86637D01*
X475246Y87254D01*
X475863Y88059D01*
X476251Y88995D01*
X476383Y90000D01*
X476251Y91005D01*
X475863Y91941D01*
X475246Y92746D01*
X474441Y93363D01*
X473505Y93751D01*
X472500Y93883D01*
X471495Y93751D01*
X470559Y93363D01*
X469754Y92746D01*
X469137Y91941D01*
X468775Y91066D01*
X451734D01*
X451378Y91924D01*
X450667Y92852D01*
X449739Y93563D01*
X448659Y94011D01*
X447500Y94164D01*
D02*
G37*
G36*
X386327Y86201D02*
Y83177D01*
X389351D01*
X389294Y83606D01*
X388936Y84472D01*
X388365Y85216D01*
X387622Y85786D01*
X386756Y86145D01*
X386327Y86201D01*
D02*
G37*
G36*
X385327D02*
X384898Y86145D01*
X384032Y85786D01*
X383288Y85216D01*
X382718Y84472D01*
X382359Y83606D01*
X382303Y83177D01*
X385327D01*
Y86201D01*
D02*
G37*
G36*
X228847Y82264D02*
Y79240D01*
X231870D01*
X231814Y79669D01*
X231455Y80535D01*
X230885Y81279D01*
X230141Y81849D01*
X229276Y82208D01*
X228847Y82264D01*
D02*
G37*
G36*
X227847D02*
X227417Y82208D01*
X226552Y81849D01*
X225808Y81279D01*
X225238Y80535D01*
X224879Y79669D01*
X224822Y79240D01*
X227847D01*
Y82264D01*
D02*
G37*
G36*
X389351Y82177D02*
X386327D01*
Y79153D01*
X386756Y79210D01*
X387622Y79568D01*
X388365Y80139D01*
X388936Y80882D01*
X389294Y81748D01*
X389351Y82177D01*
D02*
G37*
G36*
X385327D02*
X382303D01*
X382359Y81748D01*
X382718Y80882D01*
X383288Y80139D01*
X384032Y79568D01*
X384898Y79210D01*
X385327Y79153D01*
Y82177D01*
D02*
G37*
G36*
X42449Y82715D02*
Y76524D01*
X48641D01*
X48560Y77339D01*
X48177Y78603D01*
X47554Y79769D01*
X46716Y80790D01*
X45694Y81629D01*
X44528Y82252D01*
X43264Y82635D01*
X42449Y82715D01*
D02*
G37*
G36*
X41449D02*
X40634Y82635D01*
X39369Y82252D01*
X38204Y81629D01*
X37182Y80790D01*
X36344Y79769D01*
X35721Y78603D01*
X35337Y77339D01*
X35257Y76524D01*
X41449D01*
Y82715D01*
D02*
G37*
G36*
X502500Y83883D02*
X501495Y83750D01*
X500559Y83363D01*
X499754Y82746D01*
X499137Y81941D01*
X498749Y81005D01*
X498617Y80000D01*
X498749Y78995D01*
X499137Y78059D01*
X499754Y77254D01*
X500559Y76637D01*
X501495Y76249D01*
X502500Y76117D01*
X503505Y76249D01*
X504441Y76637D01*
X505246Y77254D01*
X505863Y78059D01*
X506250Y78995D01*
X506383Y80000D01*
X506250Y81005D01*
X505863Y81941D01*
X505246Y82746D01*
X504441Y83363D01*
X503505Y83750D01*
X502500Y83883D01*
D02*
G37*
G36*
X472500D02*
X471495Y83750D01*
X470559Y83363D01*
X469754Y82746D01*
X469137Y81941D01*
X468840Y81223D01*
X467500D01*
X467032Y81130D01*
X466635Y80865D01*
X464135Y78365D01*
X463870Y77968D01*
X463776Y77500D01*
Y62500D01*
X463870Y62032D01*
X464135Y61635D01*
X466635Y59135D01*
X467032Y58870D01*
X467500Y58776D01*
X468840D01*
X469137Y58059D01*
X469754Y57254D01*
X470559Y56637D01*
X471495Y56249D01*
X472500Y56117D01*
X473505Y56249D01*
X474441Y56637D01*
X475246Y57254D01*
X475863Y58059D01*
X476251Y58995D01*
X476383Y60000D01*
X476251Y61005D01*
X475863Y61941D01*
X475246Y62746D01*
X474441Y63363D01*
X473505Y63750D01*
X472500Y63883D01*
X471495Y63750D01*
X470559Y63363D01*
X469754Y62746D01*
X469137Y61941D01*
X468840Y61224D01*
X468007D01*
X466223Y63007D01*
Y76993D01*
X468007Y78777D01*
X468840D01*
X469137Y78059D01*
X469754Y77254D01*
X470559Y76637D01*
X471495Y76249D01*
X472500Y76117D01*
X473505Y76249D01*
X474441Y76637D01*
X475246Y77254D01*
X475863Y78059D01*
X476251Y78995D01*
X476383Y80000D01*
X476251Y81005D01*
X475863Y81941D01*
X475246Y82746D01*
X474441Y83363D01*
X473505Y83750D01*
X472500Y83883D01*
D02*
G37*
G36*
X517815Y84478D02*
X516656Y84326D01*
X515576Y83878D01*
X514648Y83167D01*
X513937Y82239D01*
X513489Y81159D01*
X513337Y80000D01*
X513489Y78841D01*
X513937Y77761D01*
X514648Y76833D01*
X515576Y76121D01*
X516656Y75674D01*
X517815Y75521D01*
X518974Y75674D01*
X520054Y76121D01*
X520982Y76833D01*
X521693Y77761D01*
X522141Y78841D01*
X522293Y80000D01*
X522141Y81159D01*
X521693Y82239D01*
X520982Y83167D01*
X520054Y83878D01*
X518974Y84326D01*
X517815Y84478D01*
D02*
G37*
G36*
X231870Y78240D02*
X228847D01*
Y75216D01*
X229276Y75273D01*
X230141Y75631D01*
X230885Y76202D01*
X231455Y76945D01*
X231814Y77811D01*
X231870Y78240D01*
D02*
G37*
G36*
X227847D02*
X224822D01*
X224879Y77811D01*
X225238Y76945D01*
X225808Y76202D01*
X226552Y75631D01*
X227417Y75273D01*
X227847Y75216D01*
Y78240D01*
D02*
G37*
G36*
X280350Y74445D02*
X276700D01*
Y70500D01*
X280350D01*
Y74445D01*
D02*
G37*
G36*
X503000Y74120D02*
Y70500D01*
X506620D01*
X506543Y71083D01*
X506125Y72093D01*
X505459Y72960D01*
X504593Y73625D01*
X503583Y74043D01*
X503000Y74120D01*
D02*
G37*
G36*
X82500Y82463D02*
X81244Y82340D01*
X80036Y81973D01*
X78922Y81378D01*
X77947Y80577D01*
X77146Y79601D01*
X76551Y78488D01*
X76184Y77280D01*
X76060Y76024D01*
X76184Y74767D01*
X76551Y73559D01*
X77146Y72446D01*
X77947Y71470D01*
X78922Y70669D01*
X80036Y70074D01*
X81244Y69708D01*
X82500Y69584D01*
X83756Y69708D01*
X84964Y70074D01*
X86078Y70669D01*
X87054Y71470D01*
X87854Y72446D01*
X88450Y73559D01*
X88816Y74767D01*
X88940Y76024D01*
X88816Y77280D01*
X88450Y78488D01*
X87854Y79601D01*
X87054Y80577D01*
X86078Y81378D01*
X84964Y81973D01*
X83756Y82340D01*
X82500Y82463D01*
D02*
G37*
G36*
X41449Y75524D02*
X35257D01*
X35337Y74708D01*
X35721Y73444D01*
X36344Y72278D01*
X37182Y71257D01*
X38204Y70419D01*
X39369Y69796D01*
X40634Y69412D01*
X41449Y69332D01*
Y75524D01*
D02*
G37*
G36*
X292649Y74145D02*
X284950D01*
Y65855D01*
X285572D01*
Y58294D01*
X285682Y57459D01*
X286004Y56680D01*
X286517Y56012D01*
X291471Y51057D01*
X291575Y50807D01*
X291772Y50550D01*
Y14266D01*
X290734Y13228D01*
X273433D01*
X272614Y14046D01*
X267386D01*
X265363Y12023D01*
Y7977D01*
X267386Y5954D01*
X272614D01*
X273433Y6772D01*
X292071D01*
X292906Y6882D01*
X293685Y7205D01*
X294353Y7718D01*
X297282Y10647D01*
X297795Y11315D01*
X298118Y12094D01*
X298228Y12929D01*
Y50550D01*
X298425Y50807D01*
X298763Y51623D01*
X298879Y52500D01*
X298763Y53377D01*
X298425Y54193D01*
X297887Y54895D01*
X297185Y55433D01*
X296369Y55771D01*
X295813Y55844D01*
X292027Y59631D01*
Y65855D01*
X292649D01*
Y68267D01*
X317222D01*
X317676Y67676D01*
X318356Y67153D01*
X319149Y66825D01*
X320000Y66713D01*
X320851Y66825D01*
X321644Y67153D01*
X322324Y67676D01*
X322847Y68356D01*
X323175Y69149D01*
X323287Y70000D01*
X323175Y70851D01*
X322847Y71644D01*
X322324Y72324D01*
X321644Y72847D01*
X320851Y73175D01*
X320000Y73287D01*
X319149Y73175D01*
X318356Y72847D01*
X317676Y72324D01*
X317222Y71733D01*
X292649D01*
Y74145D01*
D02*
G37*
G36*
X506620Y69500D02*
X503000D01*
Y65880D01*
X503583Y65957D01*
X504593Y66375D01*
X505459Y67040D01*
X506125Y67907D01*
X506543Y68917D01*
X506620Y69500D01*
D02*
G37*
G36*
X502000Y74120D02*
X501417Y74043D01*
X500407Y73625D01*
X499541Y72960D01*
X498875Y72093D01*
X498727Y71733D01*
X495000D01*
X494337Y71601D01*
X493774Y71226D01*
X492574Y70025D01*
X492199Y69463D01*
X492067Y68800D01*
Y29445D01*
X489650D01*
Y25500D01*
X497949D01*
Y29445D01*
X495533D01*
Y68082D01*
X495718Y68267D01*
X498727D01*
X498875Y67907D01*
X499541Y67040D01*
X500407Y66375D01*
X501417Y65957D01*
X502000Y65880D01*
Y70000D01*
Y74120D01*
D02*
G37*
G36*
X183087Y70823D02*
X175500D01*
Y64902D01*
X174500D01*
Y70823D01*
X166913D01*
Y68228D01*
X152500D01*
X151665Y68118D01*
X150886Y67795D01*
X150218Y67282D01*
X142463Y59527D01*
X131945D01*
Y60449D01*
X128000D01*
Y56300D01*
Y52150D01*
X131945D01*
Y53072D01*
X143800D01*
X144635Y53182D01*
X145414Y53505D01*
X146082Y54018D01*
X153837Y61772D01*
X166913D01*
Y58980D01*
X169365D01*
Y33228D01*
X165000D01*
X164165Y33118D01*
X163386Y32795D01*
X162718Y32282D01*
X162205Y31614D01*
X161882Y30835D01*
X161772Y30000D01*
X161882Y29165D01*
X162205Y28386D01*
X162718Y27718D01*
X163386Y27205D01*
X164165Y26882D01*
X165000Y26772D01*
X169365D01*
Y25335D01*
X169419Y25062D01*
X169574Y24830D01*
X169806Y24676D01*
X170079Y24622D01*
X171772D01*
Y13883D01*
X170063Y12173D01*
Y10500D01*
X179937D01*
Y12173D01*
X178228Y13883D01*
Y24622D01*
X179921D01*
X180194Y24676D01*
X180426Y24830D01*
X180581Y25062D01*
X180635Y25335D01*
Y26772D01*
X185000D01*
X185835Y26882D01*
X186614Y27205D01*
X187282Y27718D01*
X187795Y28386D01*
X188118Y29165D01*
X188228Y30000D01*
X188118Y30835D01*
X187795Y31614D01*
X187282Y32282D01*
X186614Y32795D01*
X185835Y33118D01*
X185000Y33228D01*
X180635D01*
Y58980D01*
X183087D01*
Y61772D01*
X196163D01*
X203918Y54018D01*
X204586Y53505D01*
X205365Y53182D01*
X206200Y53072D01*
X220555D01*
Y52150D01*
X224500D01*
Y56300D01*
Y60449D01*
X220555D01*
Y59527D01*
X207537D01*
X199782Y67282D01*
X199114Y67795D01*
X198335Y68118D01*
X197500Y68228D01*
X183087D01*
Y70823D01*
D02*
G37*
G36*
X502500Y63883D02*
X501495Y63750D01*
X500559Y63363D01*
X499754Y62746D01*
X499137Y61941D01*
X498749Y61005D01*
X498617Y60000D01*
X498749Y58995D01*
X499137Y58059D01*
X499754Y57254D01*
X500559Y56637D01*
X501495Y56249D01*
X502500Y56117D01*
X503505Y56249D01*
X504441Y56637D01*
X505246Y57254D01*
X505863Y58059D01*
X506250Y58995D01*
X506383Y60000D01*
X506250Y61005D01*
X505863Y61941D01*
X505246Y62746D01*
X504441Y63363D01*
X503505Y63750D01*
X502500Y63883D01*
D02*
G37*
G36*
X354145Y56350D02*
X345855D01*
Y55728D01*
X316474D01*
X316369Y55771D01*
X315492Y55887D01*
X314508D01*
X313631Y55771D01*
X312815Y55433D01*
X312113Y54895D01*
X311575Y54193D01*
X311237Y53377D01*
X311121Y52500D01*
X311237Y51623D01*
X311575Y50807D01*
X311772Y50550D01*
Y12929D01*
X311882Y12094D01*
X312205Y11315D01*
X312718Y10647D01*
X315647Y7718D01*
X316315Y7205D01*
X317094Y6882D01*
X317929Y6772D01*
X321567D01*
X322386Y5954D01*
X327614D01*
X329637Y7977D01*
Y12023D01*
X327614Y14046D01*
X322386D01*
X321567Y13228D01*
X319266D01*
X318228Y14266D01*
Y49272D01*
X345855D01*
Y48650D01*
X354145D01*
Y50767D01*
X409722D01*
X410176Y50176D01*
X410856Y49653D01*
X411649Y49325D01*
X412500Y49213D01*
X413351Y49325D01*
X414144Y49653D01*
X414824Y50176D01*
X415347Y50856D01*
X415675Y51649D01*
X415787Y52500D01*
X415675Y53351D01*
X415347Y54144D01*
X414824Y54824D01*
X414144Y55347D01*
X413351Y55675D01*
X412500Y55787D01*
X411649Y55675D01*
X410856Y55347D01*
X410176Y54824D01*
X409722Y54233D01*
X354145D01*
Y56350D01*
D02*
G37*
G36*
X275700Y74445D02*
X272051D01*
Y73228D01*
X257500D01*
X256665Y73118D01*
X255887Y72795D01*
X255218Y72283D01*
X242463Y59527D01*
X229445D01*
Y60449D01*
X225500D01*
Y56300D01*
Y52150D01*
X229445D01*
Y53072D01*
X243800D01*
X244635Y53182D01*
X245414Y53505D01*
X246082Y54018D01*
X258837Y66773D01*
X271772D01*
Y54943D01*
X271313Y54344D01*
X270944Y53455D01*
X270885Y53000D01*
X279115D01*
X279056Y53455D01*
X278687Y54344D01*
X278228Y54943D01*
Y65555D01*
X280350D01*
Y69500D01*
X276200D01*
Y70000D01*
X275700D01*
Y74445D01*
D02*
G37*
G36*
X48641Y75524D02*
X42449D01*
Y69332D01*
X43264Y69412D01*
X43826Y69582D01*
X59390Y54018D01*
X60059Y53505D01*
X60837Y53182D01*
X61673Y53072D01*
X123055D01*
Y52150D01*
X127000D01*
Y56300D01*
Y60449D01*
X123055D01*
Y59527D01*
X63010D01*
X48390Y74147D01*
X48560Y74708D01*
X48641Y75524D01*
D02*
G37*
G36*
X582500Y164280D02*
X581392Y164134D01*
X580360Y163707D01*
X579474Y163026D01*
X578793Y162140D01*
X578366Y161108D01*
X578220Y160000D01*
X578366Y158892D01*
X578793Y157860D01*
X579474Y156974D01*
X580360Y156293D01*
X581277Y155914D01*
Y53007D01*
X579493Y51223D01*
X561484D01*
X561063Y52239D01*
X560352Y53167D01*
X559424Y53878D01*
X558344Y54326D01*
X557185Y54479D01*
X556026Y54326D01*
X554946Y53878D01*
X554018Y53167D01*
X553307Y52239D01*
X552859Y51159D01*
X552707Y50000D01*
X552859Y48841D01*
X553307Y47761D01*
X554018Y46833D01*
X554946Y46121D01*
X556026Y45674D01*
X557185Y45522D01*
X558344Y45674D01*
X559424Y46121D01*
X560352Y46833D01*
X561063Y47761D01*
X561484Y48777D01*
X580000D01*
X580468Y48870D01*
X580865Y49135D01*
X583365Y51635D01*
X583630Y52032D01*
X583723Y52500D01*
Y155914D01*
X584640Y156293D01*
X585526Y156974D01*
X586206Y157860D01*
X586634Y158892D01*
X586780Y160000D01*
X586634Y161108D01*
X586206Y162140D01*
X585526Y163026D01*
X584640Y163707D01*
X583608Y164134D01*
X582500Y164280D01*
D02*
G37*
G36*
X305492Y55887D02*
X304508D01*
X303631Y55771D01*
X302815Y55433D01*
X302113Y54895D01*
X301575Y54193D01*
X301237Y53377D01*
X301121Y52500D01*
X301237Y51623D01*
X301575Y50807D01*
X302113Y50105D01*
X302815Y49567D01*
X303631Y49229D01*
X304508Y49114D01*
X305492D01*
X306369Y49229D01*
X307185Y49567D01*
X307887Y50105D01*
X308425Y50807D01*
X308763Y51623D01*
X308879Y52500D01*
X308763Y53377D01*
X308425Y54193D01*
X307887Y54895D01*
X307185Y55433D01*
X306369Y55771D01*
X305492Y55887D01*
D02*
G37*
G36*
X279115Y52000D02*
X275500D01*
Y48812D01*
X276447Y48937D01*
X277337Y49305D01*
X278101Y49891D01*
X278687Y50656D01*
X279056Y51545D01*
X279115Y52000D01*
D02*
G37*
G36*
X274500D02*
X270885D01*
X270944Y51545D01*
X271313Y50656D01*
X271899Y49891D01*
X272663Y49305D01*
X273553Y48937D01*
X274500Y48812D01*
Y52000D01*
D02*
G37*
G36*
X265492Y55887D02*
X264508D01*
X263631Y55771D01*
X262815Y55433D01*
X262113Y54895D01*
X261575Y54193D01*
X261532Y54088D01*
X254372Y46928D01*
X229145D01*
Y47550D01*
X220855D01*
Y46928D01*
X206201D01*
X205365Y46818D01*
X204587Y46496D01*
X203919Y45983D01*
X201163Y43228D01*
X196678D01*
Y44921D01*
X196624Y45194D01*
X196469Y45426D01*
X196238Y45581D01*
X195965Y45635D01*
X182185D01*
X181912Y45581D01*
X181680Y45426D01*
X181526Y45194D01*
X181471Y44921D01*
Y35177D01*
X181526Y34904D01*
X181680Y34672D01*
X181912Y34518D01*
X182185Y34464D01*
X195965D01*
X196238Y34518D01*
X196469Y34672D01*
X196624Y34904D01*
X196678Y35177D01*
Y36772D01*
X202500D01*
X203335Y36882D01*
X204114Y37205D01*
X204782Y37718D01*
X207538Y40473D01*
X220855D01*
Y39851D01*
X221772D01*
Y13433D01*
X220363Y12023D01*
Y7977D01*
X222386Y5954D01*
X227614D01*
X229637Y7977D01*
Y12023D01*
X228228Y13433D01*
Y39851D01*
X229145D01*
Y40473D01*
X255709D01*
X256544Y40583D01*
X257323Y40906D01*
X257991Y41418D01*
X265715Y49143D01*
X266369Y49229D01*
X267185Y49567D01*
X267887Y50105D01*
X268425Y50807D01*
X268763Y51623D01*
X268879Y52500D01*
X268763Y53377D01*
X268425Y54193D01*
X267887Y54895D01*
X267185Y55433D01*
X266369Y55771D01*
X265492Y55887D01*
D02*
G37*
G36*
X502500Y53883D02*
X501495Y53750D01*
X500559Y53363D01*
X499754Y52746D01*
X499137Y51941D01*
X498749Y51005D01*
X498617Y50000D01*
X498749Y48995D01*
X499137Y48059D01*
X499754Y47254D01*
X500559Y46637D01*
X501495Y46249D01*
X502500Y46117D01*
X503505Y46249D01*
X504441Y46637D01*
X505246Y47254D01*
X505863Y48059D01*
X506250Y48995D01*
X506383Y50000D01*
X506250Y51005D01*
X505863Y51941D01*
X505246Y52746D01*
X504441Y53363D01*
X503505Y53750D01*
X502500Y53883D01*
D02*
G37*
G36*
X432500Y64065D02*
X431341Y63912D01*
X430261Y63465D01*
X429333Y62753D01*
X428621Y61826D01*
X428174Y60746D01*
X428021Y59587D01*
X428174Y58428D01*
X428621Y57347D01*
X429333Y56420D01*
X430261Y55708D01*
X431341Y55261D01*
X432500Y55108D01*
X433659Y55261D01*
X434739Y55708D01*
X435667Y56420D01*
X436378Y57347D01*
X436826Y58428D01*
X436872Y58776D01*
X444493D01*
X446277Y56993D01*
Y54614D01*
X445261Y54193D01*
X444333Y53482D01*
X443621Y52554D01*
X443174Y51474D01*
X443021Y50315D01*
X443174Y49156D01*
X443621Y48076D01*
X444333Y47148D01*
X445261Y46437D01*
X446341Y45989D01*
X447500Y45836D01*
X448659Y45989D01*
X449739Y46437D01*
X450667Y47148D01*
X451378Y48076D01*
X451734Y48934D01*
X468775D01*
X469137Y48059D01*
X469754Y47254D01*
X470559Y46637D01*
X471495Y46249D01*
X472500Y46117D01*
X473505Y46249D01*
X474441Y46637D01*
X475246Y47254D01*
X475863Y48059D01*
X476251Y48995D01*
X476383Y50000D01*
X476251Y51005D01*
X475863Y51941D01*
X475246Y52746D01*
X474441Y53363D01*
X473505Y53750D01*
X472500Y53883D01*
X471495Y53750D01*
X470559Y53363D01*
X469754Y52746D01*
X469137Y51941D01*
X468905Y51381D01*
X451838D01*
X451826Y51474D01*
X451378Y52554D01*
X450667Y53482D01*
X449739Y54193D01*
X448724Y54614D01*
Y57500D01*
X448630Y57968D01*
X448365Y58365D01*
X445865Y60865D01*
X445468Y61130D01*
X445000Y61224D01*
X436628D01*
X436378Y61826D01*
X435667Y62753D01*
X434739Y63465D01*
X433659Y63912D01*
X432500Y64065D01*
D02*
G37*
G36*
X517815Y54479D02*
X516656Y54326D01*
X515576Y53878D01*
X514648Y53167D01*
X513937Y52239D01*
X513489Y51159D01*
X513337Y50000D01*
X513489Y48841D01*
X513937Y47761D01*
X514648Y46833D01*
X515576Y46121D01*
X516656Y45674D01*
X517815Y45522D01*
X518974Y45674D01*
X520054Y46121D01*
X520982Y46833D01*
X521693Y47761D01*
X522141Y48841D01*
X522293Y50000D01*
X522141Y51159D01*
X521693Y52239D01*
X520982Y53167D01*
X520054Y53878D01*
X518974Y54326D01*
X517815Y54479D01*
D02*
G37*
G36*
X354445Y44050D02*
X350500D01*
Y40401D01*
X354445D01*
Y44050D01*
D02*
G37*
G36*
X349500D02*
X345555D01*
Y40401D01*
X349500D01*
Y44050D01*
D02*
G37*
G36*
X502500Y43883D02*
X501495Y43751D01*
X500559Y43363D01*
X499754Y42746D01*
X499137Y41941D01*
X498749Y41005D01*
X498617Y40000D01*
X498749Y38995D01*
X499137Y38059D01*
X499754Y37254D01*
X500559Y36637D01*
X501495Y36250D01*
X502500Y36117D01*
X503505Y36250D01*
X504441Y36637D01*
X505246Y37254D01*
X505863Y38059D01*
X506250Y38995D01*
X506383Y40000D01*
X506250Y41005D01*
X505863Y41941D01*
X505246Y42746D01*
X504441Y43363D01*
X503505Y43751D01*
X502500Y43883D01*
D02*
G37*
G36*
X472500D02*
X471495Y43751D01*
X470559Y43363D01*
X469754Y42746D01*
X469137Y41941D01*
X468750Y41005D01*
X468617Y40000D01*
X468750Y38995D01*
X469137Y38059D01*
X469754Y37254D01*
X470559Y36637D01*
X471495Y36250D01*
X472500Y36117D01*
X473505Y36250D01*
X474441Y36637D01*
X475246Y37254D01*
X475863Y38059D01*
X476251Y38995D01*
X476383Y40000D01*
X476251Y41005D01*
X475863Y41941D01*
X475246Y42746D01*
X474441Y43363D01*
X473505Y43751D01*
X472500Y43883D01*
D02*
G37*
G36*
X131645Y47550D02*
X123355D01*
Y46928D01*
X111201D01*
X110365Y46818D01*
X109587Y46496D01*
X108918Y45983D01*
X84136Y21201D01*
X83756Y21316D01*
X82500Y21440D01*
X81244Y21316D01*
X80036Y20949D01*
X78922Y20354D01*
X77947Y19554D01*
X77146Y18578D01*
X76551Y17464D01*
X76184Y16256D01*
X76060Y15000D01*
X76184Y13744D01*
X76551Y12536D01*
X77146Y11422D01*
X77947Y10447D01*
X78922Y9646D01*
X80036Y9050D01*
X81244Y8684D01*
X82500Y8560D01*
X83756Y8684D01*
X84964Y9050D01*
X86078Y9646D01*
X87054Y10447D01*
X87854Y11422D01*
X88450Y12536D01*
X88816Y13744D01*
X88940Y15000D01*
X88816Y16256D01*
X88701Y16636D01*
X112538Y40473D01*
X123355D01*
Y39851D01*
X131645D01*
Y40473D01*
X142462D01*
X145218Y37718D01*
X145886Y37205D01*
X146665Y36882D01*
X147500Y36772D01*
X153322D01*
Y35177D01*
X153376Y34904D01*
X153531Y34672D01*
X153762Y34518D01*
X154035Y34463D01*
X167815D01*
X167884Y34477D01*
X168515D01*
Y35108D01*
X168529Y35177D01*
Y45020D01*
X168515Y45089D01*
Y45720D01*
X167884D01*
X167815Y45733D01*
X154035D01*
X153762Y45679D01*
X153531Y45524D01*
X153376Y45293D01*
X153322Y45020D01*
Y43228D01*
X148837D01*
X146081Y45983D01*
X145413Y46496D01*
X144635Y46818D01*
X143799Y46928D01*
X131645D01*
Y47550D01*
D02*
G37*
G36*
X354445Y39401D02*
X350000D01*
X345555D01*
Y35751D01*
X346772D01*
Y29007D01*
X346533Y28429D01*
X346476Y28000D01*
X353524D01*
X353467Y28429D01*
X353227Y29009D01*
Y35751D01*
X354445D01*
Y39401D01*
D02*
G37*
G36*
X353524Y27000D02*
X350500D01*
Y23976D01*
X350929Y24033D01*
X351795Y24391D01*
X352538Y24962D01*
X353109Y25705D01*
X353467Y26571D01*
X353524Y27000D01*
D02*
G37*
G36*
X349500D02*
X346476D01*
X346533Y26571D01*
X346891Y25705D01*
X347462Y24962D01*
X348205Y24391D01*
X349071Y24033D01*
X349500Y23976D01*
Y27000D01*
D02*
G37*
G36*
X433000Y24932D02*
Y20717D01*
X437215D01*
X437118Y21454D01*
X436641Y22607D01*
X435881Y23597D01*
X434891Y24357D01*
X433737Y24835D01*
X433000Y24932D01*
D02*
G37*
G36*
X432000D02*
X431263Y24835D01*
X430110Y24357D01*
X429119Y23597D01*
X428360Y22607D01*
X427882Y21454D01*
X427785Y20717D01*
X432000D01*
Y24932D01*
D02*
G37*
G36*
X497949Y24500D02*
X494300D01*
Y20555D01*
X497949D01*
Y24500D01*
D02*
G37*
G36*
X493300D02*
X489650D01*
Y20555D01*
X493300D01*
Y24500D01*
D02*
G37*
G36*
X437215Y19716D02*
X433000D01*
Y15501D01*
X433737Y15598D01*
X434891Y16076D01*
X435881Y16836D01*
X436641Y17826D01*
X437118Y18979D01*
X437215Y19716D01*
D02*
G37*
G36*
X432000D02*
X427785D01*
X427882Y18979D01*
X428360Y17826D01*
X429119Y16836D01*
X430110Y16076D01*
X431263Y15598D01*
X432000Y15501D01*
Y19716D01*
D02*
G37*
G36*
X42449Y21692D02*
Y15500D01*
X48641D01*
X48560Y16315D01*
X48177Y17580D01*
X47554Y18745D01*
X46716Y19767D01*
X45694Y20605D01*
X44528Y21228D01*
X43264Y21612D01*
X42449Y21692D01*
D02*
G37*
G36*
X41449D02*
X40634Y21612D01*
X39369Y21228D01*
X38204Y20605D01*
X37182Y19767D01*
X36344Y18745D01*
X35721Y17580D01*
X35337Y16315D01*
X35257Y15500D01*
X41449D01*
Y21692D01*
D02*
G37*
G36*
X48641Y14500D02*
X42449D01*
Y8308D01*
X43264Y8388D01*
X44528Y8772D01*
X45694Y9395D01*
X46716Y10233D01*
X47554Y11255D01*
X48177Y12420D01*
X48560Y13685D01*
X48641Y14500D01*
D02*
G37*
G36*
X41449D02*
X35257D01*
X35337Y13685D01*
X35721Y12420D01*
X36344Y11255D01*
X37182Y10233D01*
X38204Y9395D01*
X39369Y8772D01*
X40634Y8388D01*
X41449Y8308D01*
Y14500D01*
D02*
G37*
G36*
X179937Y9500D02*
X175500D01*
Y5654D01*
X177764D01*
X179937Y7827D01*
Y9500D01*
D02*
G37*
G36*
X174500D02*
X170063D01*
Y7827D01*
X172236Y5654D01*
X174500D01*
Y9500D01*
D02*
G37*
%LPD*%
D12*
X485000Y200000D02*
Y220000D01*
X487500Y222500D01*
X485000Y200000D02*
X502500D01*
X487500Y222500D02*
X500000Y235000D01*
X143818Y281241D02*
X178759D01*
X143799Y281260D02*
X143818Y281241D01*
X178759D02*
X182500Y277500D01*
X355000Y375000D02*
X370000Y360000D01*
X282500Y375000D02*
X315000D01*
X142500Y190000D02*
X152500D01*
X182228Y252448D02*
X182500Y252719D01*
Y277500D01*
X85000Y155315D02*
X137815D01*
X142500Y160000D01*
X85000Y137716D02*
Y155315D01*
X290000Y255000D02*
X292500Y252500D01*
X375000D02*
X377500Y255000D01*
X290000D02*
Y272185D01*
X377500Y255000D02*
Y260000D01*
X292500Y252500D02*
X375000D01*
X310000Y247500D02*
X365000D01*
X290000Y272185D02*
X290315Y272500D01*
X37500Y102500D02*
Y130000D01*
Y102500D02*
X40000Y100000D01*
X307500D01*
X321595D01*
X160000Y366200D02*
X161300Y367500D01*
X160000Y345000D02*
Y366200D01*
X157500Y342500D02*
X160000Y345000D01*
X140000Y342500D02*
X157500D01*
X142500Y367500D02*
X148701D01*
X140000Y365000D02*
X142500Y367500D01*
X140000Y352500D02*
Y365000D01*
X150000Y375000D02*
X242500D01*
X148701Y367500D02*
Y373701D01*
X150000Y375000D01*
X360000Y360000D02*
X362500Y357500D01*
X370000Y292500D02*
Y360000D01*
X315000Y352500D02*
Y357500D01*
X317500Y360000D01*
X360000D01*
X362500Y352815D02*
Y357500D01*
Y352815D02*
X362815Y352500D01*
X280000Y342500D02*
X285000D01*
X272500D02*
X280000D01*
Y372500D02*
X282500Y375000D01*
X280000Y342500D02*
Y372500D01*
X242500Y342500D02*
X255000D01*
Y292500D02*
Y342500D01*
Y350000D01*
X242500Y352500D02*
X252500D01*
X255000Y350000D01*
X287500Y357185D02*
X302185Y342500D01*
X315000D01*
X287500Y332500D02*
Y340000D01*
Y317815D02*
Y332500D01*
X272500D02*
X287500D01*
X285000Y342500D02*
X287500Y340000D01*
X327500Y297500D02*
X329685Y295315D01*
Y290000D02*
Y295315D01*
X275000Y297500D02*
X327500D01*
X272500Y300000D02*
Y322500D01*
Y300000D02*
X275000Y297500D01*
X255000Y292500D02*
X257500Y290000D01*
X290315D01*
X363701D02*
X367500D01*
X370000Y292500D01*
X329685Y290000D02*
X363701D01*
X329685Y272500D02*
Y290000D01*
X242500Y332500D02*
X250000D01*
X252500Y282500D02*
Y330000D01*
X250000Y332500D02*
X252500Y330000D01*
X217500Y260315D02*
X217815Y260000D01*
X240000D01*
X242500Y262500D01*
Y282500D01*
X307500Y100000D02*
X307500Y100000D01*
X307500Y100000D02*
Y197500D01*
X327500Y97500D02*
X328740Y96260D01*
X333405D01*
X327500Y97500D02*
Y192500D01*
X25000Y133858D02*
X33642D01*
X37500Y130000D01*
X307500Y197500D02*
X312500Y202500D01*
X262500Y152520D02*
X262520Y152500D01*
X277500D01*
X280000Y155000D01*
Y180000D01*
X302500Y202500D01*
X262500Y183130D02*
X291870Y212500D01*
X312500D01*
X262500Y247500D02*
X287500D01*
X242500D02*
X262500D01*
Y282500D01*
X287500Y247500D02*
X290000Y245000D01*
Y222185D02*
Y245000D01*
X365000Y247500D02*
X385000D01*
X387500Y250000D02*
Y260000D01*
X385000Y247500D02*
X387500Y250000D01*
X365000Y222500D02*
Y247500D01*
X398267Y154272D02*
Y209233D01*
Y154272D02*
X400020Y152520D01*
X395000Y212500D02*
X398267Y209233D01*
X342500Y212500D02*
X395000D01*
X390000Y190000D02*
X392500Y187500D01*
X355000Y190000D02*
X390000D01*
X392500Y183130D02*
Y187500D01*
X400020Y152520D02*
X404311D01*
X342500Y202500D02*
X355000Y190000D01*
X365000Y132500D02*
Y183130D01*
X365183Y156260D02*
X392500D01*
X365143Y156300D02*
X365183Y156260D01*
X290000Y132500D02*
Y182815D01*
X245000Y132500D02*
X290000D01*
X242500Y135000D02*
X245000Y132500D01*
X242500Y135000D02*
Y155000D01*
X243760Y156260D02*
X250689D01*
X242500Y155000D02*
X243760Y156260D01*
X462500Y110000D02*
Y160000D01*
X472342Y170158D02*
X472500Y170000D01*
X447657Y170158D02*
X472342D01*
X447500Y170315D02*
X447657Y170158D01*
X467500Y80000D02*
X472500D01*
X465000Y77500D02*
X467500Y80000D01*
X465000Y62500D02*
Y77500D01*
Y62500D02*
X467500Y60000D01*
X472500D01*
X497500Y295000D02*
X502500Y300000D01*
X497500Y275000D02*
Y295000D01*
X500000Y235000D02*
Y272500D01*
X497500Y275000D02*
X500000Y272500D01*
X487500Y237500D02*
Y272500D01*
X467500Y200000D02*
X472500D01*
X465000Y197500D02*
X467500Y200000D01*
X465000Y182500D02*
Y197500D01*
Y182500D02*
X467500Y180000D01*
X472500D01*
X502500D02*
X507500D01*
X510000Y182500D01*
Y197500D01*
X507500Y200000D02*
X510000Y197500D01*
X502500Y200000D02*
X507500D01*
X472500Y320000D02*
X502500D01*
X467500D02*
X472500D01*
X502500D02*
X507500D01*
X510000Y265000D02*
Y287500D01*
X515000Y270000D02*
X520315D01*
X512500Y272500D02*
Y330000D01*
Y272500D02*
X515000Y270000D01*
X507500Y290000D02*
X510000Y287500D01*
X502500Y290000D02*
X507500D01*
X467500Y300000D02*
X472500D01*
X465000Y302500D02*
X467500Y300000D01*
X465000Y302500D02*
Y317500D01*
X467500Y320000D01*
X502500Y300000D02*
X507500D01*
X510000Y302500D01*
Y317500D01*
X502500Y340000D02*
X512500Y330000D01*
X507500Y320000D02*
X510000Y317500D01*
X447500Y329685D02*
X447657Y329842D01*
X472342D01*
X472500Y330000D01*
X447500Y322500D02*
Y329685D01*
X445000Y320000D02*
X447500Y322500D01*
X432500Y320216D02*
X432717Y320000D01*
X445000D01*
X447500Y290315D02*
X447657Y290158D01*
X472342D01*
X472500Y290000D01*
X447500Y290315D02*
Y297500D01*
X445000Y300000D02*
X447500Y297500D01*
X432500Y299587D02*
X432913Y300000D01*
X445000D01*
X447500Y262500D02*
Y269685D01*
X445000Y260000D02*
X447500Y262500D01*
X432717Y260000D02*
X445000D01*
X432500Y260216D02*
X432717Y260000D01*
X447500Y230315D02*
Y237500D01*
X445000Y240000D02*
X447500Y237500D01*
X432500Y239587D02*
X432913Y240000D01*
X445000D01*
X447500Y209685D02*
X447657Y209842D01*
X472342D01*
X472500Y210000D01*
X447500Y202500D02*
Y209685D01*
X445000Y200000D02*
X447500Y202500D01*
X432500Y200217D02*
X432717Y200000D01*
X445000D01*
X447500Y170315D02*
Y177500D01*
X445000Y180000D02*
X447500Y177500D01*
X432500Y179587D02*
X432913Y180000D01*
X445000D01*
X447500Y142500D02*
Y149685D01*
X445000Y140000D02*
X447500Y142500D01*
X432500Y140217D02*
X432717Y140000D01*
X445000D01*
X447500Y110315D02*
Y117500D01*
X445000Y120000D02*
X447500Y117500D01*
X432500Y119587D02*
X432913Y120000D01*
X445000D01*
X447500Y82500D02*
Y89685D01*
X445000Y80000D02*
X447500Y82500D01*
X432500Y80216D02*
X432717Y80000D01*
X445000D01*
X447500Y50315D02*
Y57500D01*
X445000Y60000D02*
X447500Y57500D01*
X432500Y59587D02*
X432913Y60000D01*
X445000D01*
X447500Y89685D02*
X447657Y89842D01*
X472342D01*
X472500Y90000D01*
X447500Y50315D02*
X447657Y50157D01*
X472342D01*
X472500Y50000D01*
X502500Y160000D02*
X510000D01*
X520000Y170000D01*
X582500Y250000D02*
Y357500D01*
X580000Y360000D02*
X582500Y357500D01*
X559685Y360000D02*
X580000D01*
X582500Y52500D02*
Y160000D01*
X580000Y50000D02*
X582500Y52500D01*
X557185Y50000D02*
X580000D01*
X570000Y210000D02*
X582500D01*
X567500Y212500D02*
X570000Y210000D01*
X567500Y212500D02*
Y227500D01*
Y270000D02*
X570000Y267500D01*
Y222500D02*
X572500Y220000D01*
X570000Y222500D02*
Y267500D01*
X565000Y230000D02*
X567500Y227500D01*
X559685Y230000D02*
X565000D01*
X572500Y220000D02*
X582500D01*
X575000Y242500D02*
Y327500D01*
X570000Y300000D02*
X572500Y297500D01*
X575000Y230000D02*
X582500D01*
X572500Y232500D02*
X575000Y230000D01*
X572500Y232500D02*
Y297500D01*
X575000Y242500D02*
X577500Y240000D01*
X572500Y330000D02*
X575000Y327500D01*
X577500Y240000D02*
X582500D01*
X559685Y270000D02*
X567500D01*
X559685Y300000D02*
X570000D01*
X559370Y200000D02*
X582500D01*
X572500Y177500D02*
X575000Y180000D01*
X572500Y190000D02*
X582500D01*
X575000Y180000D02*
X582500D01*
X570000Y187500D02*
X572500Y190000D01*
X570000Y172500D02*
Y187500D01*
X572500Y142500D02*
Y177500D01*
X575000Y82500D02*
Y167500D01*
X577500Y170000D01*
X582500D01*
X572500Y80000D02*
X575000Y82500D01*
X559685Y330000D02*
X572500D01*
X567500Y170000D02*
X570000Y172500D01*
X559370Y170000D02*
X567500D01*
X570000Y140000D02*
X572500Y142500D01*
X559685Y140000D02*
X570000D01*
X557185Y80000D02*
X572500D01*
X85315Y342500D02*
Y374685D01*
X85000Y375000D02*
X85315Y374685D01*
X130082Y254947D02*
X135135Y260000D01*
X182364Y224864D02*
Y252311D01*
Y219864D02*
Y224864D01*
X17500Y265000D02*
X70000D01*
X15000Y262500D02*
X17500Y265000D01*
X15000Y130000D02*
Y262500D01*
X19016Y125984D02*
X25000D01*
X15000Y130000D02*
X19016Y125984D01*
X70000Y275000D02*
X82500D01*
X85000Y272500D01*
Y220000D02*
Y272500D01*
X177500Y220000D02*
X182364Y224864D01*
X85000Y220000D02*
X177500D01*
X182228Y252448D02*
X182364Y252311D01*
X137500Y285000D02*
Y312500D01*
Y262500D02*
Y285000D01*
X131201D02*
X137500D01*
X135000Y315000D02*
X137500Y312500D01*
X85000Y315000D02*
X135000D01*
Y260000D02*
X135135D01*
X135000D02*
X137500Y262500D01*
X156821Y230000D02*
X172500D01*
X149374Y237448D02*
X156821Y230000D01*
X156874Y262448D02*
X172228D01*
X149374Y254947D02*
X156874Y262448D01*
X130082Y237448D02*
Y254947D01*
X113799Y255000D02*
X130030D01*
X130082Y254947D01*
X180000Y136299D02*
X181299Y135000D01*
X205000D01*
X207500Y122500D02*
Y132500D01*
X205000Y135000D02*
X207500Y132500D01*
X180000Y185000D02*
X192500D01*
X180000Y136299D02*
Y185000D01*
Y195000D01*
X177500Y197500D02*
X180000Y195000D01*
X155000Y197500D02*
X177500D01*
X152500Y195000D02*
X155000Y197500D01*
X152500Y190000D02*
Y195000D01*
X155000Y136299D02*
X157500Y138799D01*
Y185000D01*
X162500Y190000D01*
D14*
X610236Y0D02*
G03*
X629921Y19685I0J19685D01*
G01*
Y374016D02*
G03*
X610236Y393701I-19685J0D01*
G01*
X19685D02*
G03*
X0Y374016I0J-19685D01*
G01*
Y19685D02*
G03*
X19685Y0I19685J0D01*
G01*
Y393701D02*
X610236D01*
X629921Y19685D02*
Y374016D01*
X0Y19685D02*
Y374016D01*
X19685Y0D02*
X610236D01*
D41*
X124370Y120000D02*
D03*
X85000D02*
D03*
X124370Y137716D02*
D03*
X85000D02*
D03*
D42*
X131201Y288740D02*
D03*
Y285000D02*
D03*
Y281260D02*
D03*
X143799Y288740D02*
D03*
Y285000D02*
D03*
Y281260D02*
D03*
D43*
X130082Y254947D02*
D03*
X149374Y254947D02*
D03*
Y237448D02*
D03*
X130082Y237448D02*
D03*
D44*
X184055Y40098D02*
D03*
X175000D02*
D03*
D45*
Y64902D02*
D03*
D46*
X165945Y40098D02*
D03*
D47*
X392500Y156260D02*
D03*
Y152520D02*
D03*
X404311D02*
D03*
Y160000D02*
D03*
X250689Y156260D02*
D03*
Y152520D02*
D03*
X262500D02*
D03*
Y160000D02*
D03*
X333405Y103740D02*
D03*
Y96260D02*
D03*
X321595D02*
D03*
Y100000D02*
D03*
D48*
X392500Y160000D02*
D03*
X250689Y160000D02*
D03*
X321595Y103740D02*
D03*
D49*
X481201Y25000D02*
D03*
X493800Y25000D02*
D03*
X276200Y70000D02*
D03*
X288799Y70000D02*
D03*
X481201Y145000D02*
D03*
X493800Y145000D02*
D03*
X363701Y322500D02*
D03*
X376300Y322500D02*
D03*
X363701Y337500D02*
D03*
X376300Y337500D02*
D03*
X481201Y265000D02*
D03*
X493800Y265000D02*
D03*
X333799Y147500D02*
D03*
X321200Y147500D02*
D03*
X113799Y255000D02*
D03*
X101200Y255000D02*
D03*
X363701Y290000D02*
D03*
X376300Y290000D02*
D03*
X148701Y367500D02*
D03*
X161300Y367500D02*
D03*
D50*
X225000Y56300D02*
D03*
X225000Y43701D02*
D03*
X127500Y56300D02*
D03*
X127500Y43701D02*
D03*
X350000Y39901D02*
D03*
X350000Y52500D02*
D03*
X365000Y132500D02*
D03*
X365000Y119901D02*
D03*
X290000Y132500D02*
D03*
X290000Y119901D02*
D03*
X180000Y123700D02*
D03*
X180000Y136299D02*
D03*
X155000Y123700D02*
D03*
X155000Y136299D02*
D03*
X107500Y168700D02*
D03*
X107500Y181299D02*
D03*
X197500Y336300D02*
D03*
X197500Y323701D02*
D03*
Y366299D02*
D03*
X197500Y353700D02*
D03*
X220000Y323701D02*
D03*
X220000Y336300D02*
D03*
X220000Y366299D02*
D03*
X220000Y353700D02*
D03*
X99728Y278648D02*
D03*
X99728Y291247D02*
D03*
D51*
X480741Y145460D02*
Y264540D01*
X481201Y265000D01*
X480741Y145460D02*
X481201Y145000D01*
X152269Y285000D02*
X154769Y287500D01*
X143799Y285000D02*
X152269D01*
X154769Y287500D02*
X155000D01*
X197500Y366299D02*
X220000D01*
X258701D01*
X272500Y352500D01*
X197205Y366299D02*
X197500D01*
X183405Y352500D02*
X197205Y366299D01*
X170000Y352500D02*
X183405D01*
X352500Y337500D02*
X363701D01*
X350000Y52500D02*
X412500D01*
X320000Y222500D02*
Y237500D01*
X288799Y70000D02*
X320000D01*
X197500Y353700D02*
X220000D01*
X197500Y336300D02*
X220000D01*
X157700Y315000D02*
X175905D01*
X140200Y332500D02*
X157700Y315000D01*
X175905D02*
X197205Y336300D01*
X140000Y322500D02*
X150200Y312300D01*
X194800D02*
X197500Y315000D01*
X150200Y312300D02*
X194800D01*
X140000Y332500D02*
X140200D01*
X197205Y336300D02*
X197500D01*
X220000Y323701D02*
X221201Y322500D01*
X242500D01*
X197500Y323701D02*
X220000D01*
X197500Y315000D02*
Y323701D01*
X220000Y336300D02*
Y353699D01*
X220000Y353700D02*
X220000Y353699D01*
X197500Y336300D02*
Y353700D01*
Y336300D02*
X197500Y336300D01*
X315000Y322500D02*
X322500Y315000D01*
X363701Y322205D02*
Y322500D01*
X356496Y315000D02*
X363701Y322205D01*
X322500Y315000D02*
X356496D01*
X363701Y337500D02*
Y337795D01*
X349819Y351677D02*
X363701Y337795D01*
X345823Y351677D02*
X349819D01*
X345000Y352500D02*
X345823Y351677D01*
X376300Y322500D02*
Y337500D01*
X333799Y103823D02*
Y147500D01*
X333717Y103740D02*
X333799Y103823D01*
X333405Y103740D02*
X333717D01*
X405000Y222500D02*
X417500D01*
X392500D02*
X405000D01*
X404311Y160000D02*
X404917D01*
X405000Y160083D01*
Y222500D01*
X337500D02*
X342500D01*
X333799Y147500D02*
Y218799D01*
X337500Y222500D01*
X312500Y162500D02*
X317500D01*
X321200Y147500D02*
Y158800D01*
X317500Y162500D02*
X321200Y158800D01*
X212500Y175000D02*
Y220000D01*
X215000Y222500D01*
X262500D01*
X212500Y175000D02*
X260000D01*
X262500Y172500D01*
Y160000D02*
Y172500D01*
X350000Y17500D02*
X357500Y10000D01*
X350000Y17500D02*
X350000D01*
X357500Y10000D02*
X477500D01*
X481201Y13701D02*
Y25000D01*
X477500Y10000D02*
X481201Y13701D01*
Y25000D02*
Y145000D01*
X472500Y190000D02*
X480000D01*
X432087Y360000D02*
X432500Y359587D01*
X422500Y360000D02*
X432087D01*
X420000Y357500D02*
X422500Y360000D01*
X420000Y225000D02*
Y357500D01*
X417500Y222500D02*
X420000Y225000D01*
X70000Y285000D02*
X82500D01*
X90000Y292500D02*
X100000D01*
X82500Y285000D02*
X90000Y292500D01*
X100000D02*
Y300000D01*
Y291519D02*
X100981Y292500D01*
X99728Y278648D02*
X100875Y277500D01*
X107500D01*
X111260Y281260D02*
X131201D01*
X107500Y277500D02*
X111260Y281260D01*
X100981Y292500D02*
X107500D01*
X111260Y288740D02*
X131201D01*
X107500Y292500D02*
X111260Y288740D01*
X132500Y160000D02*
Y167500D01*
X107500Y168700D02*
X131300D01*
X132500Y167500D01*
Y182500D02*
Y190000D01*
X107500Y181299D02*
X131299D01*
X132500Y182500D01*
X107500Y181299D02*
Y192500D01*
X85000Y194685D02*
X105315D01*
X107500Y192500D01*
X495000Y310000D02*
X502500D01*
X493800Y265000D02*
Y308800D01*
X495000Y310000D01*
X472500D02*
X480000D01*
X481201Y265000D02*
Y308799D01*
X480000Y310000D02*
X481201Y308799D01*
X495000Y190000D02*
X502500D01*
X493800Y145000D02*
Y188800D01*
X495000Y190000D01*
Y70000D02*
X502500D01*
X493800Y25000D02*
Y68800D01*
X495000Y70000D01*
X472500D02*
X480000D01*
D52*
X175000Y30000D02*
X185000D01*
X175000D02*
Y35000D01*
Y10000D02*
Y30000D01*
X165000D02*
X175000D01*
X197500Y65000D02*
X206200Y56300D01*
X174902Y65000D02*
X197500D01*
X350000Y27500D02*
X350000Y27500D01*
X350000Y27500D02*
Y39901D01*
X315000Y52500D02*
X350000D01*
X315000Y12929D02*
Y52500D01*
X317929Y10000D02*
X325000D01*
X315000Y12929D02*
X317929Y10000D01*
X295000Y12929D02*
Y52500D01*
X270000Y10000D02*
X292071D01*
X295000Y12929D01*
X294593Y52500D02*
X295000D01*
X288799Y58294D02*
Y70000D01*
Y58294D02*
X294593Y52500D01*
X275000D02*
Y68505D01*
X276200Y69705D01*
Y70000D01*
X257500D02*
X276200D01*
X243800Y56300D02*
X257500Y70000D01*
X225000Y56300D02*
X243800D01*
X225000Y43701D02*
X255709D01*
X264508Y52500D01*
X265000D01*
X225000Y10000D02*
Y43701D01*
X206200Y56300D02*
X225000D01*
X190000Y40000D02*
X202500D01*
X206201Y43701D02*
X225000D01*
X202500Y40000D02*
X206201Y43701D01*
X174902Y65000D02*
X175000Y64902D01*
X152500Y65000D02*
X174902D01*
X127500Y56300D02*
X143800D01*
X152500Y65000D01*
X175000Y35000D02*
X175000Y35000D01*
X175000Y10000D02*
X175000Y10000D01*
X147500Y40000D02*
X161307D01*
X161056Y40251D02*
X161307Y40000D01*
X127500Y43701D02*
X143799D01*
X147500Y40000D01*
X82500Y15000D02*
X111201Y43701D01*
X127500D01*
X41949Y76024D02*
X61673Y56300D01*
X127500D01*
D53*
X160925Y40098D02*
D03*
D54*
X175000Y46792D02*
D03*
D55*
X189075Y40049D02*
D03*
D56*
X315000Y375000D02*
D03*
X270000Y10000D02*
D03*
X325000D02*
D03*
X225000D02*
D03*
X175000D02*
D03*
X405000Y375000D02*
D03*
X207500Y122500D02*
D03*
X310000Y247500D02*
D03*
X242500D02*
D03*
X85000Y375000D02*
D03*
Y315000D02*
D03*
Y220000D02*
D03*
X242500Y375000D02*
D03*
X355000D02*
D03*
D57*
X132500Y190000D02*
D03*
X142500D02*
D03*
X152500D02*
D03*
X162500D02*
D03*
Y160000D02*
D03*
X152500D02*
D03*
X142500D02*
D03*
X132500D02*
D03*
X192500Y185000D02*
D03*
X212500Y175000D02*
D03*
X192500Y165000D02*
D03*
X472500Y100000D02*
D03*
Y90000D02*
D03*
Y80000D02*
D03*
Y70000D02*
D03*
Y60000D02*
D03*
Y50000D02*
D03*
Y40000D02*
D03*
X502500D02*
D03*
Y100000D02*
D03*
Y90000D02*
D03*
Y80000D02*
D03*
Y70000D02*
D03*
Y60000D02*
D03*
Y50000D02*
D03*
X472500Y220000D02*
D03*
Y210000D02*
D03*
Y200000D02*
D03*
Y190000D02*
D03*
Y180000D02*
D03*
Y170000D02*
D03*
Y160000D02*
D03*
X502500D02*
D03*
Y220000D02*
D03*
Y210000D02*
D03*
Y200000D02*
D03*
Y190000D02*
D03*
Y180000D02*
D03*
Y170000D02*
D03*
X472500Y340000D02*
D03*
Y330000D02*
D03*
Y320000D02*
D03*
Y310000D02*
D03*
Y300000D02*
D03*
Y290000D02*
D03*
Y280000D02*
D03*
X502500D02*
D03*
Y340000D02*
D03*
Y330000D02*
D03*
Y320000D02*
D03*
Y310000D02*
D03*
Y300000D02*
D03*
Y290000D02*
D03*
X315000Y352500D02*
D03*
Y342500D02*
D03*
Y332500D02*
D03*
Y322500D02*
D03*
X345000D02*
D03*
Y332500D02*
D03*
Y342500D02*
D03*
Y352500D02*
D03*
X312500Y222500D02*
D03*
Y212500D02*
D03*
Y202500D02*
D03*
Y192500D02*
D03*
Y182500D02*
D03*
Y172500D02*
D03*
Y162500D02*
D03*
X342500D02*
D03*
Y222500D02*
D03*
Y212500D02*
D03*
Y202500D02*
D03*
Y192500D02*
D03*
Y182500D02*
D03*
Y172500D02*
D03*
X140000Y352500D02*
D03*
Y342500D02*
D03*
Y332500D02*
D03*
Y322500D02*
D03*
X170000D02*
D03*
Y332500D02*
D03*
Y342500D02*
D03*
Y352500D02*
D03*
X242500D02*
D03*
Y342500D02*
D03*
Y332500D02*
D03*
Y322500D02*
D03*
X272500D02*
D03*
Y332500D02*
D03*
Y342500D02*
D03*
Y352500D02*
D03*
D58*
X25000Y117717D02*
D03*
Y150000D02*
D03*
D59*
Y125984D02*
D03*
Y133858D02*
D03*
Y141732D02*
D03*
X172228Y262448D02*
D03*
X182228Y252448D02*
D03*
X192228Y262448D02*
D03*
X172500Y230000D02*
D03*
X182500Y220000D02*
D03*
X192500Y230000D02*
D03*
D60*
X262500Y282500D02*
D03*
X387500Y260000D02*
D03*
D61*
X252500Y282500D02*
D03*
X242500D02*
D03*
X367500Y260000D02*
D03*
X377500D02*
D03*
D62*
X70000Y285000D02*
D03*
Y275000D02*
D03*
Y265000D02*
D03*
Y255000D02*
D03*
D63*
X41949Y15000D02*
D03*
Y76024D02*
D03*
X82500D02*
D03*
Y15000D02*
D03*
D64*
X432500Y59587D02*
D03*
Y20216D02*
D03*
X447500Y89685D02*
D03*
Y50315D02*
D03*
X432500Y119587D02*
D03*
Y80216D02*
D03*
X447500Y149685D02*
D03*
Y110315D02*
D03*
X432500Y179587D02*
D03*
Y140217D02*
D03*
X517815Y50000D02*
D03*
X557185D02*
D03*
X517815Y80000D02*
D03*
X557185D02*
D03*
X520315Y140000D02*
D03*
X559685D02*
D03*
X520000Y170000D02*
D03*
X559370D02*
D03*
X447500Y170315D02*
D03*
Y209685D02*
D03*
X520000Y200000D02*
D03*
X559370D02*
D03*
X520315Y230000D02*
D03*
X559685D02*
D03*
X520315Y270000D02*
D03*
X559685D02*
D03*
X432500Y239587D02*
D03*
Y200217D02*
D03*
X520315Y300000D02*
D03*
X559685D02*
D03*
X520315Y330000D02*
D03*
X559685D02*
D03*
X520315Y360000D02*
D03*
X559685D02*
D03*
X447500Y269685D02*
D03*
Y230315D02*
D03*
X432500Y299587D02*
D03*
Y260216D02*
D03*
X447500Y329685D02*
D03*
Y290315D02*
D03*
X432500Y359587D02*
D03*
Y320216D02*
D03*
X287500Y317815D02*
D03*
Y357185D02*
D03*
X402185Y352500D02*
D03*
X362815D02*
D03*
X365000Y222500D02*
D03*
Y183130D02*
D03*
X290000Y182815D02*
D03*
Y222185D02*
D03*
X85000Y194685D02*
D03*
Y155315D02*
D03*
X392500Y183130D02*
D03*
Y222500D02*
D03*
X262500Y183130D02*
D03*
Y222500D02*
D03*
X217500Y299685D02*
D03*
Y260315D02*
D03*
X290315Y272500D02*
D03*
X329685D02*
D03*
X124685Y342500D02*
D03*
X85315D02*
D03*
X290315Y290000D02*
D03*
D65*
X329685D02*
D03*
D66*
X612500Y160000D02*
D03*
Y170000D02*
D03*
Y180000D02*
D03*
Y190000D02*
D03*
Y200000D02*
D03*
Y210000D02*
D03*
Y220000D02*
D03*
Y230000D02*
D03*
Y240000D02*
D03*
Y250000D02*
D03*
X582500Y160000D02*
D03*
Y170000D02*
D03*
Y180000D02*
D03*
Y190000D02*
D03*
Y200000D02*
D03*
Y210000D02*
D03*
Y220000D02*
D03*
Y230000D02*
D03*
Y240000D02*
D03*
D67*
Y250000D02*
D03*
D68*
X315000Y52500D02*
D03*
X305000D02*
D03*
X295000D02*
D03*
X275000D02*
D03*
X265000D02*
D03*
D69*
X485000Y200000D02*
D03*
X155000Y287500D02*
D03*
X279528Y255906D02*
D03*
X161417Y208661D02*
D03*
X129921Y374016D02*
D03*
X62992Y122047D02*
D03*
X224410Y141732D02*
D03*
X228346Y78740D02*
D03*
X543307Y102362D02*
D03*
X385827Y82677D02*
D03*
X488189Y370079D02*
D03*
X401575Y283465D02*
D03*
X228346Y311024D02*
D03*
X232283Y200787D02*
D03*
X352500Y337500D02*
D03*
X412500Y52500D02*
D03*
X320000Y237500D02*
D03*
Y222500D02*
D03*
Y70000D02*
D03*
X327500Y192500D02*
D03*
X302500Y202500D02*
D03*
X350000Y17500D02*
D03*
X462500Y160000D02*
D03*
Y110000D02*
D03*
X487500Y237500D02*
D03*
Y272500D02*
D03*
X510000Y265000D02*
D03*
X100000Y300000D02*
D03*
X350000Y27500D02*
D03*
M02*
