G04*
G04 #@! TF.GenerationSoftware,Altium Limited,Altium Designer,20.1.12 (249)*
G04*
G04 Layer_Color=16711935*
%FSLAX25Y25*%
%MOIN*%
G70*
G04*
G04 #@! TF.SameCoordinates,6C7D9CAF-E978-41D4-BD8A-455F840FEFA2*
G04*
G04*
G04 #@! TF.FilePolarity,Negative*
G04*
G01*
G75*
%ADD14C,0.00197*%
G04:AMPARAMS|DCode=27|XSize=86.74mil|YSize=74.93mil|CornerRadius=0mil|HoleSize=0mil|Usage=FLASHONLY|Rotation=0.000|XOffset=0mil|YOffset=0mil|HoleType=Round|Shape=Octagon|*
%AMOCTAGOND27*
4,1,8,0.04337,-0.01873,0.04337,0.01873,0.02464,0.03747,-0.02464,0.03747,-0.04337,0.01873,-0.04337,-0.01873,-0.02464,-0.03747,0.02464,-0.03747,0.04337,-0.01873,0.0*
%
%ADD27OCTAGOND27*%

%ADD28C,0.07099*%
%ADD29O,0.08280X0.06706*%
%ADD30C,0.06706*%
%ADD31R,0.07887X0.10642*%
%ADD32O,0.07887X0.10642*%
%ADD33O,0.09068X0.06706*%
%ADD34C,0.12217*%
%ADD35C,0.08280*%
%ADD36R,0.08280X0.08280*%
%ADD37C,0.07887*%
%ADD38R,0.07887X0.07887*%
%ADD39O,0.07099X0.06115*%
%ADD40C,0.05918*%
D14*
X610236D02*
G03*
X629921Y19685I0J19685D01*
G01*
Y374016D02*
G03*
X610236Y393701I-19685J0D01*
G01*
X19685D02*
G03*
X0Y374016I0J-19685D01*
G01*
Y19685D02*
G03*
X19685Y0I19685J0D01*
G01*
Y393701D02*
X610236D01*
X629921Y19685D02*
Y374016D01*
X0Y19685D02*
Y374016D01*
X19685Y0D02*
X610236D01*
D27*
X315000Y375000D02*
D03*
X270000Y10000D02*
D03*
X325000D02*
D03*
X225000D02*
D03*
X175000D02*
D03*
X405000Y375000D02*
D03*
X207500Y122500D02*
D03*
X310000Y247500D02*
D03*
X242500D02*
D03*
X85000Y375000D02*
D03*
Y315000D02*
D03*
Y220000D02*
D03*
X242500Y375000D02*
D03*
X355000D02*
D03*
D28*
X132500Y190000D02*
D03*
X142500D02*
D03*
X152500D02*
D03*
X162500D02*
D03*
Y160000D02*
D03*
X152500D02*
D03*
X142500D02*
D03*
X132500D02*
D03*
X192500Y185000D02*
D03*
X212500Y175000D02*
D03*
X192500Y165000D02*
D03*
X472500Y100000D02*
D03*
Y90000D02*
D03*
Y80000D02*
D03*
Y70000D02*
D03*
Y60000D02*
D03*
Y50000D02*
D03*
Y40000D02*
D03*
X502500D02*
D03*
Y100000D02*
D03*
Y90000D02*
D03*
Y80000D02*
D03*
Y70000D02*
D03*
Y60000D02*
D03*
Y50000D02*
D03*
X472500Y220000D02*
D03*
Y210000D02*
D03*
Y200000D02*
D03*
Y190000D02*
D03*
Y180000D02*
D03*
Y170000D02*
D03*
Y160000D02*
D03*
X502500D02*
D03*
Y220000D02*
D03*
Y210000D02*
D03*
Y200000D02*
D03*
Y190000D02*
D03*
Y180000D02*
D03*
Y170000D02*
D03*
X472500Y340000D02*
D03*
Y330000D02*
D03*
Y320000D02*
D03*
Y310000D02*
D03*
Y300000D02*
D03*
Y290000D02*
D03*
Y280000D02*
D03*
X502500D02*
D03*
Y340000D02*
D03*
Y330000D02*
D03*
Y320000D02*
D03*
Y310000D02*
D03*
Y300000D02*
D03*
Y290000D02*
D03*
X315000Y352500D02*
D03*
Y342500D02*
D03*
Y332500D02*
D03*
Y322500D02*
D03*
X345000D02*
D03*
Y332500D02*
D03*
Y342500D02*
D03*
Y352500D02*
D03*
X312500Y222500D02*
D03*
Y212500D02*
D03*
Y202500D02*
D03*
Y192500D02*
D03*
Y182500D02*
D03*
Y172500D02*
D03*
Y162500D02*
D03*
X342500D02*
D03*
Y222500D02*
D03*
Y212500D02*
D03*
Y202500D02*
D03*
Y192500D02*
D03*
Y182500D02*
D03*
Y172500D02*
D03*
X140000Y352500D02*
D03*
Y342500D02*
D03*
Y332500D02*
D03*
Y322500D02*
D03*
X170000D02*
D03*
Y332500D02*
D03*
Y342500D02*
D03*
Y352500D02*
D03*
X242500D02*
D03*
Y342500D02*
D03*
Y332500D02*
D03*
Y322500D02*
D03*
X272500D02*
D03*
Y332500D02*
D03*
Y342500D02*
D03*
Y352500D02*
D03*
D29*
X25000Y117717D02*
D03*
Y150000D02*
D03*
D30*
Y125984D02*
D03*
Y133858D02*
D03*
Y141732D02*
D03*
X172228Y262448D02*
D03*
X182228Y252448D02*
D03*
X192228Y262448D02*
D03*
X172500Y230000D02*
D03*
X182500Y220000D02*
D03*
X192500Y230000D02*
D03*
D31*
X262500Y282500D02*
D03*
X387500Y260000D02*
D03*
D32*
X252500Y282500D02*
D03*
X242500D02*
D03*
X367500Y260000D02*
D03*
X377500D02*
D03*
D33*
X70000Y285000D02*
D03*
Y275000D02*
D03*
Y265000D02*
D03*
Y255000D02*
D03*
D34*
X41949Y15000D02*
D03*
Y76024D02*
D03*
X82500D02*
D03*
Y15000D02*
D03*
D35*
X432500Y59587D02*
D03*
Y20216D02*
D03*
X447500Y89685D02*
D03*
Y50315D02*
D03*
X432500Y119587D02*
D03*
Y80216D02*
D03*
X447500Y149685D02*
D03*
Y110315D02*
D03*
X432500Y179587D02*
D03*
Y140217D02*
D03*
X517815Y50000D02*
D03*
X557185D02*
D03*
X517815Y80000D02*
D03*
X557185D02*
D03*
X520315Y140000D02*
D03*
X559685D02*
D03*
X520000Y170000D02*
D03*
X559370D02*
D03*
X447500Y170315D02*
D03*
Y209685D02*
D03*
X520000Y200000D02*
D03*
X559370D02*
D03*
X520315Y230000D02*
D03*
X559685D02*
D03*
X520315Y270000D02*
D03*
X559685D02*
D03*
X432500Y239587D02*
D03*
Y200217D02*
D03*
X520315Y300000D02*
D03*
X559685D02*
D03*
X520315Y330000D02*
D03*
X559685D02*
D03*
X520315Y360000D02*
D03*
X559685D02*
D03*
X447500Y269685D02*
D03*
Y230315D02*
D03*
X432500Y299587D02*
D03*
Y260216D02*
D03*
X447500Y329685D02*
D03*
Y290315D02*
D03*
X432500Y359587D02*
D03*
Y320216D02*
D03*
X287500Y317815D02*
D03*
Y357185D02*
D03*
X402185Y352500D02*
D03*
X362815D02*
D03*
X365000Y222500D02*
D03*
Y183130D02*
D03*
X290000Y182815D02*
D03*
Y222185D02*
D03*
X85000Y194685D02*
D03*
Y155315D02*
D03*
X392500Y183130D02*
D03*
Y222500D02*
D03*
X262500Y183130D02*
D03*
Y222500D02*
D03*
X217500Y299685D02*
D03*
Y260315D02*
D03*
X290315Y272500D02*
D03*
X329685D02*
D03*
X124685Y342500D02*
D03*
X85315D02*
D03*
X290315Y290000D02*
D03*
D36*
X329685D02*
D03*
D37*
X612500Y160000D02*
D03*
Y170000D02*
D03*
Y180000D02*
D03*
Y190000D02*
D03*
Y200000D02*
D03*
Y210000D02*
D03*
Y220000D02*
D03*
Y230000D02*
D03*
Y240000D02*
D03*
Y250000D02*
D03*
X582500Y160000D02*
D03*
Y170000D02*
D03*
Y180000D02*
D03*
Y190000D02*
D03*
Y200000D02*
D03*
Y210000D02*
D03*
Y220000D02*
D03*
Y230000D02*
D03*
Y240000D02*
D03*
D38*
Y250000D02*
D03*
D39*
X315000Y52500D02*
D03*
X305000D02*
D03*
X295000D02*
D03*
X275000D02*
D03*
X265000D02*
D03*
D40*
X485000Y200000D02*
D03*
X155000Y287500D02*
D03*
X279528Y255906D02*
D03*
X161417Y208661D02*
D03*
X129921Y374016D02*
D03*
X62992Y122047D02*
D03*
X224410Y141732D02*
D03*
X228346Y78740D02*
D03*
X543307Y102362D02*
D03*
X385827Y82677D02*
D03*
X488189Y370079D02*
D03*
X401575Y283465D02*
D03*
X228346Y311024D02*
D03*
X232283Y200787D02*
D03*
X352500Y337500D02*
D03*
X412500Y52500D02*
D03*
X320000Y237500D02*
D03*
Y222500D02*
D03*
Y70000D02*
D03*
X327500Y192500D02*
D03*
X302500Y202500D02*
D03*
X350000Y17500D02*
D03*
X462500Y160000D02*
D03*
Y110000D02*
D03*
X487500Y237500D02*
D03*
Y272500D02*
D03*
X510000Y265000D02*
D03*
X100000Y300000D02*
D03*
X350000Y27500D02*
D03*
M02*
