G04*
G04 #@! TF.GenerationSoftware,Altium Limited,Altium Designer,20.1.12 (249)*
G04*
G04 Layer_Color=32896*
%FSLAX25Y25*%
%MOIN*%
G70*
G04*
G04 #@! TF.SameCoordinates,6C7D9CAF-E978-41D4-BD8A-455F840FEFA2*
G04*
G04*
G04 #@! TF.FilePolarity,Positive*
G04*
G01*
G75*
%ADD13C,0.00591*%
%ADD14C,0.00197*%
D13*
X16339Y377362D02*
Y364033D01*
X19671D01*
X33000Y377362D01*
X36332D01*
Y364033D01*
Y357369D02*
X16339D01*
Y347372D01*
X19671Y344040D01*
X26335D01*
X29668Y347372D01*
Y357369D01*
X36332Y324046D02*
Y337375D01*
X23003Y324046D01*
X19671D01*
X16339Y327378D01*
Y334043D01*
X19671Y337375D01*
X39664Y317382D02*
Y304053D01*
X19671Y284059D02*
X16339Y287391D01*
Y294056D01*
X19671Y297388D01*
X23003D01*
X26335Y294056D01*
Y287391D01*
X29668Y284059D01*
X33000D01*
X36332Y287391D01*
Y294056D01*
X33000Y297388D01*
X36332Y277395D02*
X16339D01*
X23003Y270730D01*
X16339Y264066D01*
X36332D01*
X16339Y257401D02*
Y244072D01*
Y250736D01*
X36332D01*
X16339Y217414D02*
X29668D01*
X36332Y210749D01*
X29668Y204085D01*
X16339D01*
X36332Y197420D02*
Y190756D01*
Y194088D01*
X16339D01*
X19671Y197420D01*
D14*
X610236Y0D02*
G03*
X629921Y19685I0J19685D01*
G01*
Y374016D02*
G03*
X610236Y393701I-19685J0D01*
G01*
X19685D02*
G03*
X0Y374016I0J-19685D01*
G01*
Y19685D02*
G03*
X19685Y0I19685J0D01*
G01*
Y393701D02*
X610236D01*
X629921Y19685D02*
Y374016D01*
X0Y19685D02*
Y374016D01*
X19685Y0D02*
X610236D01*
M02*
